<svg width="32" height="32" viewBox="0 0 32 32" fill="none" xmlns="http://www.w3.org/2000/svg">
<circle opacity="0.15" cx="16" cy="16" r="16" fill="#9AADCE"/>
<path d="M13.5179 15.9871L18.6815 21.1921C18.7812 21.2891 18.8606 21.4052 18.9153 21.5334C18.97 21.6617 18.9988 21.7997 19 21.9393C19.0012 22.079 18.9748 22.2174 18.9223 22.3467C18.8699 22.4759 18.7924 22.5933 18.6945 22.692C18.5965 22.7907 18.4801 22.8688 18.3519 22.9217C18.2237 22.9746 18.0863 23.0012 17.9478 23C17.8093 22.9987 17.6724 22.9697 17.5451 22.9146C17.4179 22.8595 17.3028 22.7794 17.2065 22.679L11.3054 16.7305C11.1099 16.5333 11 16.2659 11 15.9871C11 15.7083 11.1099 15.4408 11.3054 15.2437L17.2065 9.29518C17.4033 9.10363 17.6668 8.99764 17.9403 9.00004C18.2138 9.00244 18.4754 9.11302 18.6688 9.30798C18.8622 9.50295 18.9719 9.76668 18.9743 10.0424C18.9767 10.3181 18.8716 10.5837 18.6815 10.782L13.5179 15.9871Z" fill="#9AADCE"/>
</svg>
