<svg width="24" height="24" viewBox="0 0 24 24" fill="none" xmlns="http://www.w3.org/2000/svg">
<path fill-rule="evenodd" clip-rule="evenodd" d="M10.3603 3.8356C10.4406 3.35341 10.8578 3 11.3467 3H12.6524C13.1412 3 13.5584 3.35341 13.6388 3.8356L13.8752 5.25414C15.0323 5.57516 16.0688 6.18588 16.9019 7.00328L18.2502 6.49815C18.708 6.32665 19.2226 6.51124 19.467 6.93459L20.1199 8.0654C20.3643 8.48875 20.2669 9.02675 19.8895 9.33744L18.7793 10.2513C18.9231 10.8103 18.9995 11.3962 18.9995 12C18.9995 12.6038 18.9231 13.1897 18.7793 13.7487L19.8895 14.6625C20.2669 14.9732 20.3643 15.5112 20.1199 15.9346L19.467 17.0654C19.2226 17.4887 18.708 17.6733 18.2502 17.5018L16.9019 16.9967C16.0688 17.8141 15.0323 18.4248 13.8752 18.7459L13.6388 20.1644C13.5584 20.6466 13.1412 21 12.6524 21H11.3467C10.8578 21 10.4406 20.6466 10.3603 20.1644L10.1238 18.7459C8.96679 18.4248 7.93024 17.8141 7.0972 16.9967L5.74887 17.5019C5.2911 17.6733 4.77644 17.4888 4.53202 17.0654L3.87915 15.9346C3.63473 15.5113 3.7322 14.9732 4.1096 14.6626L5.21972 13.7487C5.07598 13.1897 4.99953 12.6038 4.99953 12C4.99953 11.3962 5.07597 10.8103 5.2197 10.2514L4.1096 9.33751C3.7322 9.02682 3.63473 8.48882 3.87915 8.06547L4.53202 6.93466C4.77644 6.51131 5.2911 6.32672 5.74887 6.49822L7.09715 7.00333C7.93019 6.18591 8.96677 5.57517 10.1238 5.25414L10.3603 3.8356ZM11.9995 17C14.761 17 16.9995 14.7614 16.9995 12C16.9995 9.23858 14.761 7 11.9995 7C9.23811 7 6.99953 9.23858 6.99953 12C6.99953 14.7614 9.23811 17 11.9995 17Z" fill="#9AADCE"/>
</svg>
