<svg width="16" height="19" viewBox="0 0 16 19" fill="none" xmlns="http://www.w3.org/2000/svg">
<path fill-rule="evenodd" clip-rule="evenodd" d="M4 4V3C4 1.34315 5.34315 0 7 0H9C10.6569 0 12 1.34315 12 3V4H15C15.5523 4 16 4.44772 16 5C16 5.55225 15.5523 5.99994 15.0001 6C15.0001 6.02748 14.9989 6.05518 14.9966 6.08305L14.2258 15.3322C14.0531 17.4054 12.32 19 10.2397 19H5.76045C3.6801 19 1.94704 17.4054 1.77427 15.3322L1.00351 6.08305C1.00119 6.05518 1.00003 6.02748 1 6C0.447715 6 0 5.55228 0 5C0 4.44772 0.447715 4 1 4H4ZM6 4V3C6 2.44772 6.44772 2 7 2H9C9.55228 2 10 2.44772 10 3V4H6ZM3.00352 6L3.76736 15.1661C3.85374 16.2027 4.72028 17 5.76045 17H10.2397C11.2798 17 12.1464 16.2027 12.2327 15.1661L12.9966 6H3.00352Z" fill="#FF6755"/>
</svg>
