<svg width="122" height="32" viewBox="0 0 122 32" fill="none" xmlns="http://www.w3.org/2000/svg">
<path d="M49.3097 5.7124H46.959V26.391H49.3097V5.7124Z" fill="#25395F"/>
<path d="M56.877 16.0344C56.877 10.2407 61.7169 5.33398 67.4089 5.33398C73.1341 5.33398 77.9054 10.204 77.9054 16.0344C77.9054 21.8649 73.1009 26.7371 67.4089 26.7371C61.7502 26.7694 56.877 21.866 56.877 16.0344ZM75.5547 16.0344C75.5547 11.4404 71.8407 7.52972 67.4089 7.52972C62.9771 7.52972 59.2309 11.4371 59.2309 16.0344C59.2309 20.6663 62.9783 24.5725 67.4089 24.5725C71.8396 24.5725 75.5547 20.6663 75.5547 16.0344Z" fill="#25395F"/>
<path d="M89.9685 7.9416H83.0508V5.71582H99.2059V7.9416H92.2859V26.3911H89.9353L89.9685 7.9416Z" fill="#25395F"/>
<path d="M111.543 8.59269L103.739 26.3912H101.188L109.737 6.87438C109.887 6.52748 110.135 6.23222 110.451 6.02499C110.766 5.81776 111.135 5.70759 111.512 5.70807C111.889 5.70492 112.258 5.81409 112.572 6.02175C112.887 6.22941 113.133 6.52618 113.279 6.87438L121.834 26.3867H119.283L111.543 8.59269Z" fill="#25395F"/>
<path d="M24.2082 3.83724C24.5862 3.83592 24.9553 3.72227 25.2689 3.51065C25.5825 3.29903 25.8266 2.99892 25.9704 2.64823C26.1141 2.29753 26.151 1.91197 26.0765 1.54023C26.0019 1.1685 25.8193 0.827255 25.5515 0.559598C25.2838 0.291941 24.943 0.109872 24.5722 0.0363812C24.2014 -0.0371098 23.8172 0.00127339 23.4681 0.146684C23.1191 0.292094 22.8208 0.538011 22.6109 0.853381C22.4011 1.16875 22.2891 1.53943 22.2891 1.91861C22.2894 2.17105 22.3392 2.42096 22.4359 2.65404C22.5325 2.88712 22.674 3.09881 22.8522 3.277C23.0305 3.45519 23.242 3.59638 23.4746 3.69252C23.7073 3.78865 23.9566 3.83783 24.2082 3.83724Z" fill="#25395F"/>
<path d="M26.3633 30.9373C26.7415 30.9362 27.1108 30.8227 27.4246 30.6111C27.7384 30.3996 27.9827 30.0994 28.1265 29.7486C28.2703 29.3978 28.3073 29.0121 28.2327 28.6402C28.1581 28.2683 27.9753 27.927 27.7074 27.6593C27.4395 27.3916 27.0985 27.2096 26.7275 27.1363C26.3565 27.063 25.9722 27.1016 25.6231 27.2473C25.274 27.393 24.9758 27.6393 24.7662 27.955C24.5565 28.2707 24.4449 28.6416 24.4453 29.0209C24.4458 29.2731 24.4957 29.5228 24.5924 29.7556C24.689 29.9884 24.8304 30.1999 25.0085 30.3778C25.1867 30.5558 25.398 30.6968 25.6304 30.7928C25.8629 30.8888 26.112 30.9379 26.3633 30.9373Z" fill="#25395F"/>
<path d="M24.755 8.63379C25.0723 8.63313 25.3824 8.53812 25.6459 8.36077C25.9094 8.18343 26.1147 7.93169 26.2356 7.63738C26.3566 7.34307 26.3879 7.01939 26.3256 6.70723C26.2633 6.39507 26.1102 6.10845 25.8856 5.88357C25.6609 5.65869 25.3749 5.50565 25.0636 5.44379C24.7523 5.38192 24.4298 5.414 24.1366 5.53599C23.8435 5.65797 23.593 5.86437 23.4168 6.12912C23.2405 6.39387 23.1465 6.70508 23.1465 7.02344C23.1471 7.45093 23.3168 7.86069 23.6185 8.16266C23.9201 8.46462 24.3289 8.63408 24.755 8.63379Z" fill="#25395F"/>
<path d="M29.0354 9.25025C29.3527 9.24937 29.6626 9.15417 29.926 8.97669C30.1894 8.79921 30.3944 8.5474 30.5153 8.25307C30.6361 7.95874 30.6672 7.63509 30.6048 7.32301C30.5423 7.01092 30.3891 6.7244 30.1645 6.49963C29.9398 6.27487 29.6538 6.12194 29.3425 6.06016C29.0313 5.99838 28.7087 6.03053 28.4157 6.15255C28.1226 6.27456 27.8722 6.48097 27.696 6.74569C27.5198 7.01041 27.4258 7.32158 27.4258 7.63989C27.4259 7.8517 27.4677 8.0614 27.5487 8.257C27.6297 8.4526 27.7483 8.63027 27.8978 8.77983C28.0473 8.9294 28.2247 9.04793 28.4199 9.12864C28.6151 9.20936 28.8243 9.25068 29.0354 9.25025Z" fill="#25395F"/>
<path d="M24.2079 12.7112C24.4781 12.7105 24.742 12.6295 24.9663 12.4785C25.1906 12.3274 25.3653 12.113 25.4682 11.8625C25.5711 11.6119 25.5977 11.3363 25.5446 11.0705C25.4915 10.8048 25.3611 10.5608 25.1698 10.3694C24.9785 10.178 24.735 10.0477 24.47 9.9951C24.205 9.94246 23.9303 9.96981 23.6808 10.0737C23.4313 10.1776 23.218 10.3533 23.068 10.5787C22.918 10.8041 22.8379 11.069 22.8379 11.3401C22.8379 11.5204 22.8734 11.699 22.9422 11.8655C23.0111 12.0321 23.1121 12.1834 23.2394 12.3108C23.3666 12.4381 23.5177 12.539 23.6839 12.6078C23.8501 12.6765 24.0282 12.7116 24.2079 12.7112Z" fill="#25395F"/>
<path d="M28.4872 13.2934C28.7571 13.2925 29.0206 13.2115 29.2446 13.0604C29.4685 12.9094 29.6429 12.6952 29.7456 12.4449C29.8483 12.1945 29.8748 11.9193 29.8217 11.6539C29.7686 11.3884 29.6383 11.1447 29.4472 10.9535C29.2562 10.7624 29.0129 10.6322 28.7482 10.5796C28.4835 10.527 28.2092 10.5542 27.9599 10.6579C27.7106 10.7615 27.4976 10.9369 27.3476 11.162C27.1976 11.387 27.1174 11.6516 27.1172 11.9223C27.1173 12.1026 27.1529 12.2811 27.2218 12.4476C27.2908 12.6141 27.3918 12.7653 27.519 12.8927C27.6462 13.02 27.7972 13.1209 27.9633 13.1897C28.1295 13.2585 28.3075 13.2937 28.4872 13.2934Z" fill="#25395F"/>
<path d="M31.9099 14.6288C32.1799 14.6282 32.4437 14.5472 32.6678 14.3963C32.892 14.2453 33.0665 14.031 33.1693 13.7806C33.2721 13.5301 33.2986 13.2547 33.2455 12.9892C33.1923 12.7236 33.0619 12.4798 32.8707 12.2886C32.6794 12.0974 32.436 11.9673 32.1711 11.9149C31.9062 11.8624 31.6318 11.8899 31.3825 11.9938C31.1332 12.0978 30.9202 12.2736 30.7704 12.4989C30.6206 12.7243 30.5408 12.9891 30.541 13.26C30.5413 13.44 30.5769 13.6183 30.6459 13.7845C30.7148 13.9507 30.8158 14.1017 30.9429 14.2288C31.07 14.3559 31.2208 14.4567 31.3868 14.5253C31.5527 14.594 31.7305 14.6291 31.9099 14.6288Z" fill="#25395F"/>
<path d="M27.2196 16.582C27.456 16.5816 27.6871 16.5108 27.8834 16.3787C28.0798 16.2465 28.2328 16.0589 28.3229 15.8396C28.413 15.6203 28.4363 15.3791 28.3899 15.1465C28.3434 14.9139 28.2292 14.7003 28.0618 14.5328C27.8943 14.3653 27.6811 14.2514 27.4491 14.2054C27.2172 14.1594 26.9768 14.1834 26.7584 14.2745C26.5401 14.3655 26.3535 14.5195 26.2223 14.7168C26.0912 14.9142 26.0213 15.1462 26.0215 15.3834C26.0221 15.7017 26.1486 16.0067 26.3732 16.2315C26.5979 16.4562 26.9023 16.5823 27.2196 16.582Z" fill="#25395F"/>
<path d="M22.9392 16C23.1757 15.9998 23.4068 15.9292 23.6033 15.7972C23.7999 15.6652 23.953 15.4777 24.0433 15.2584C24.1336 15.0391 24.1571 14.7978 24.1107 14.5651C24.0643 14.3325 23.9503 14.1188 23.7829 13.9512C23.6155 13.7836 23.4023 13.6695 23.1703 13.6234C22.9382 13.5773 22.6978 13.6013 22.4794 13.6923C22.261 13.7833 22.0743 13.9373 21.9431 14.1347C21.8119 14.3321 21.742 14.5641 21.7422 14.8014C21.7428 15.1195 21.8691 15.4243 22.0936 15.6491C22.318 15.8738 22.6221 16 22.9392 16Z" fill="#25395F"/>
<path d="M30.6785 17.9187C30.915 17.9182 31.1459 17.8475 31.3423 17.7154C31.5387 17.5833 31.6916 17.3958 31.7818 17.1765C31.8719 16.9573 31.8953 16.7161 31.8489 16.4836C31.8025 16.251 31.6885 16.0374 31.5211 15.8699C31.3538 15.7023 31.1407 15.5883 30.9088 15.5422C30.6769 15.4961 30.4366 15.52 30.2182 15.6108C29.9998 15.7017 29.8132 15.8555 29.6819 16.0527C29.5505 16.2499 29.4805 16.4818 29.4805 16.719C29.4806 16.8767 29.5117 17.0328 29.572 17.1784C29.6323 17.3241 29.7206 17.4564 29.8318 17.5678C29.9431 17.6792 30.0751 17.7675 30.2204 17.8277C30.3657 17.8879 30.5214 17.9188 30.6785 17.9187Z" fill="#25395F"/>
<path d="M25.5077 19.084C25.7103 19.0835 25.9083 19.0228 26.0766 18.9096C26.2448 18.7963 26.3759 18.6356 26.4531 18.4476C26.5304 18.2597 26.5503 18.053 26.5105 17.8537C26.4707 17.6544 26.3729 17.4713 26.2295 17.3277C26.0861 17.1842 25.9034 17.0864 25.7046 17.0469C25.5059 17.0074 25.2999 17.0279 25.1127 17.1058C24.9256 17.1837 24.7656 17.3155 24.6531 17.4846C24.5405 17.6536 24.4805 17.8524 24.4805 18.0557C24.4811 18.3286 24.5895 18.5901 24.7821 18.7829C24.9747 18.9757 25.2357 19.084 25.5077 19.084Z" fill="#25395F"/>
<path d="M28.9695 20.386C29.1722 20.3858 29.3702 20.3253 29.5387 20.2121C29.7071 20.099 29.8383 19.9383 29.9157 19.7504C29.9931 19.5625 30.0132 19.3558 29.9736 19.1564C29.9339 18.957 29.8362 18.7738 29.6928 18.6301C29.5494 18.4864 29.3667 18.3886 29.1679 18.349C28.9691 18.3094 28.7631 18.3299 28.5759 18.4077C28.3886 18.4856 28.2286 18.6174 28.116 18.7865C28.0034 18.9556 27.9434 19.1543 27.9434 19.3577C27.9439 19.6304 28.0523 19.8918 28.2446 20.0845C28.437 20.2773 28.6976 20.3857 28.9695 20.386Z" fill="#25395F"/>
<path d="M21.2636 18.4663C21.4662 18.4659 21.6642 18.4052 21.8324 18.2919C22.0007 18.1787 22.1317 18.0179 22.209 17.83C22.2862 17.642 22.3062 17.4353 22.2664 17.236C22.2266 17.0367 22.1288 16.8537 21.9854 16.7101C21.8419 16.5665 21.6593 16.4688 21.4605 16.4293C21.2617 16.3898 21.0557 16.4103 20.8686 16.4882C20.6814 16.5661 20.5215 16.6979 20.4089 16.8669C20.2964 17.036 20.2363 17.2347 20.2363 17.438C20.2363 17.5732 20.2629 17.7071 20.3146 17.832C20.3662 17.9569 20.4419 18.0704 20.5373 18.1659C20.6327 18.2614 20.746 18.3371 20.8706 18.3887C20.9952 18.4402 21.1288 18.4666 21.2636 18.4663Z" fill="#25395F"/>
<path d="M23.6259 20.7622C23.7948 20.7617 23.9597 20.7111 24.0999 20.6167C24.2401 20.5223 24.3492 20.3883 24.4135 20.2317C24.4778 20.075 24.4944 19.9028 24.4612 19.7367C24.428 19.5706 24.3465 19.4182 24.2269 19.2985C24.1074 19.1789 23.9552 19.0975 23.7895 19.0646C23.6239 19.0318 23.4523 19.0489 23.2963 19.1138C23.1404 19.1787 23.0071 19.2885 22.9133 19.4294C22.8196 19.5703 22.7695 19.7359 22.7695 19.9053C22.7697 20.0179 22.7919 20.1295 22.8351 20.2335C22.8782 20.3376 22.9413 20.4321 23.0208 20.5117C23.1003 20.5912 23.1947 20.6543 23.2985 20.6973C23.4024 20.7403 23.5136 20.7623 23.6259 20.7622Z" fill="#25395F"/>
<path d="M25.0959 23.1223C25.2444 23.1221 25.3894 23.0777 25.5128 22.9948C25.6362 22.9119 25.7323 22.7942 25.7889 22.6565C25.8456 22.5188 25.8603 22.3673 25.8312 22.2212C25.8021 22.0752 25.7305 21.941 25.6254 21.8358C25.5203 21.7305 25.3865 21.6589 25.2409 21.6299C25.0952 21.6009 24.9443 21.6159 24.8071 21.6729C24.6699 21.73 24.5527 21.8266 24.4702 21.9504C24.3878 22.0743 24.3438 22.2199 24.3438 22.3689C24.3437 22.4679 24.3632 22.566 24.401 22.6575C24.4388 22.749 24.4943 22.8321 24.5641 22.9021C24.634 22.972 24.7169 23.0275 24.8081 23.0653C24.8994 23.1031 24.9972 23.1225 25.0959 23.1223Z" fill="#25395F"/>
<path d="M23.2817 23.6066C23.4035 23.6066 23.5225 23.5704 23.6237 23.5026C23.725 23.4347 23.8039 23.3382 23.8505 23.2254C23.8971 23.1125 23.9093 22.9883 23.8855 22.8685C23.8618 22.7487 23.8031 22.6386 23.717 22.5522C23.6309 22.4659 23.5212 22.407 23.4018 22.3832C23.2824 22.3594 23.1586 22.3716 23.0461 22.4184C22.9336 22.4651 22.8374 22.5443 22.7698 22.6458C22.7021 22.7474 22.666 22.8668 22.666 22.989C22.6666 23.1526 22.7317 23.3094 22.847 23.4251C22.9623 23.5408 23.1186 23.6061 23.2817 23.6066Z" fill="#25395F"/>
<path d="M21.6732 21.8237C21.8216 21.8233 21.9666 21.7787 22.0898 21.6957C22.213 21.6126 22.3089 21.4948 22.3654 21.3571C22.4219 21.2194 22.4365 21.068 22.4072 20.922C22.378 20.776 22.3063 20.6419 22.2012 20.5368C22.0961 20.4316 21.9623 20.3601 21.8166 20.3312C21.671 20.3023 21.5201 20.3174 21.383 20.3745C21.2459 20.4315 21.1288 20.5281 21.0463 20.652C20.9639 20.7758 20.9199 20.9214 20.9199 21.0703C20.9199 21.1694 20.9394 21.2676 20.9773 21.3592C21.0152 21.4507 21.0707 21.5339 21.1407 21.6039C21.2106 21.6739 21.2937 21.7293 21.3851 21.767C21.4764 21.8048 21.5743 21.824 21.6732 21.8237Z" fill="#25395F"/>
<path d="M19.3466 20.1802C19.5155 20.1797 19.6804 20.1291 19.8206 20.0347C19.9608 19.9402 20.0699 19.8062 20.1342 19.6496C20.1985 19.493 20.2151 19.3208 20.1819 19.1547C20.1487 18.9886 20.0672 18.8361 19.9476 18.7165C19.8281 18.5969 19.6759 18.5155 19.5102 18.4826C19.3446 18.4497 19.173 18.4668 19.017 18.5317C18.8611 18.5967 18.7278 18.7065 18.634 18.8474C18.5403 18.9883 18.4902 19.1538 18.4902 19.3232C18.4904 19.4359 18.5126 19.5475 18.5558 19.6515C18.5989 19.7555 18.662 19.8501 18.7415 19.9296C18.8211 20.0092 18.9154 20.0723 19.0192 20.1153C19.1231 20.1583 19.2343 20.1803 19.3466 20.1802Z" fill="#25395F"/>
<path d="M19.3115 13.7385C19.4803 13.7381 19.6453 13.6874 19.7854 13.593C19.9256 13.4986 20.0348 13.3646 20.0991 13.208C20.1634 13.0514 20.18 12.8791 20.1468 12.713C20.1136 12.547 20.032 12.3945 19.9125 12.2749C19.7929 12.1552 19.6407 12.0738 19.4751 12.041C19.3095 12.0081 19.1378 12.0252 18.9819 12.0901C18.8259 12.155 18.6926 12.2649 18.5989 12.4057C18.5051 12.5466 18.4551 12.7122 18.4551 12.8816C18.4552 12.9943 18.4775 13.1058 18.5206 13.2099C18.5637 13.3139 18.6268 13.4084 18.7064 13.488C18.7859 13.5676 18.8803 13.6306 18.9841 13.6736C19.0879 13.7166 19.1992 13.7387 19.3115 13.7385Z" fill="#25395F"/>
<path d="M19.6868 10.7237C19.8356 10.7235 19.9809 10.679 20.1045 10.5959C20.2281 10.5128 20.3243 10.3948 20.381 10.2569C20.4377 10.1189 20.4524 9.96717 20.4232 9.82084C20.3939 9.67452 20.3221 9.54018 20.2168 9.43481C20.1114 9.32944 19.9773 9.25778 19.8314 9.22888C19.6854 9.19998 19.5342 9.21515 19.3969 9.27246C19.2595 9.32978 19.1422 9.42666 19.0597 9.55086C18.9773 9.67507 18.9334 9.82102 18.9336 9.97025C18.9342 10.1703 19.0138 10.3619 19.155 10.5031C19.2962 10.6444 19.4874 10.7237 19.6868 10.7237Z" fill="#25395F"/>
<path d="M20.5102 8.25777C20.632 8.25777 20.751 8.22154 20.8523 8.15368C20.9535 8.08581 21.0324 7.98934 21.079 7.87648C21.1256 7.76362 21.1378 7.63943 21.1141 7.51962C21.0903 7.3998 21.0317 7.28975 20.9456 7.20337C20.8595 7.11699 20.7498 7.05816 20.6303 7.03433C20.5109 7.0105 20.3871 7.02273 20.2746 7.06948C20.1621 7.11623 20.0659 7.19539 19.9983 7.29696C19.9306 7.39854 19.8945 7.51795 19.8945 7.64012C19.8951 7.80375 19.9602 7.96051 20.0755 8.07621C20.1908 8.19192 20.3471 8.25718 20.5102 8.25777Z" fill="#25395F"/>
<path d="M19.0705 7.09694C19.219 7.09672 19.3641 7.05235 19.4874 6.96943C19.6108 6.88651 19.7069 6.76876 19.7635 6.63107C19.8202 6.49338 19.8349 6.34193 19.8058 6.19585C19.7767 6.04977 19.7051 5.91563 19.6 5.81037C19.495 5.70511 19.3611 5.63346 19.2155 5.60448C19.0698 5.5755 18.9189 5.59049 18.7817 5.64755C18.6445 5.7046 18.5273 5.80117 18.4449 5.92505C18.3624 6.04893 18.3184 6.19455 18.3184 6.34352C18.3184 6.44255 18.3378 6.54061 18.3756 6.6321C18.4134 6.72358 18.4689 6.80669 18.5387 6.87666C18.6086 6.94664 18.6915 7.00211 18.7827 7.03991C18.874 7.07771 18.9718 7.09709 19.0705 7.09694Z" fill="#25395F"/>
<path d="M27.0498 22.064C27.2186 22.0635 27.3835 22.0129 27.5237 21.9185C27.6639 21.824 27.773 21.69 27.8373 21.5334C27.9016 21.3768 27.9182 21.2046 27.885 21.0385C27.8518 20.8724 27.7703 20.7199 27.6507 20.6003C27.5312 20.4807 27.379 20.3993 27.2134 20.3664C27.0477 20.3335 26.8761 20.3506 26.7201 20.4155C26.5642 20.4805 26.4309 20.5903 26.3372 20.7312C26.2434 20.872 26.1934 21.0376 26.1934 21.207C26.1935 21.3197 26.2158 21.4312 26.2589 21.5353C26.302 21.6393 26.3651 21.7339 26.4447 21.8134C26.5242 21.893 26.6185 21.9561 26.7224 21.9991C26.8262 22.0421 26.9374 22.0641 27.0498 22.064Z" fill="#25395F"/>
<path d="M17.1212 6.09544C17.29 6.09478 17.4548 6.04396 17.5948 5.9494C17.7349 5.85484 17.8438 5.72078 17.908 5.56414C17.9721 5.4075 17.9885 5.2353 17.9552 5.0693C17.9219 4.90329 17.8403 4.75091 17.7207 4.6314C17.6011 4.51189 17.4489 4.43061 17.2833 4.39782C17.1177 4.36502 16.9461 4.38218 16.7902 4.44714C16.6343 4.5121 16.5011 4.62193 16.4074 4.76278C16.3137 4.90363 16.2637 5.06917 16.2637 5.23851C16.2638 5.35129 16.2861 5.46292 16.3293 5.56704C16.3725 5.67116 16.4357 5.76572 16.5154 5.84531C16.595 5.92489 16.6895 5.98795 16.7934 6.03087C16.8974 6.07379 17.0088 6.09573 17.1212 6.09544Z" fill="#25395F"/>
<path d="M17.7021 9.73095C17.871 9.73051 18.0359 9.67987 18.1761 9.58545C18.3162 9.49102 18.4254 9.35703 18.4897 9.20041C18.554 9.04379 18.5706 8.87156 18.5374 8.70548C18.5042 8.5394 18.4226 8.38692 18.3031 8.26729C18.1836 8.14767 18.0313 8.06628 17.8657 8.03339C17.7001 8.00051 17.5284 8.01761 17.3725 8.08253C17.2165 8.14746 17.0833 8.25729 16.9895 8.39816C16.8957 8.53904 16.8457 8.70463 16.8457 8.87402C16.8458 8.9867 16.8681 9.09824 16.9112 9.20229C16.9543 9.30634 17.0175 9.40085 17.097 9.48042C17.1765 9.55999 17.2709 9.62307 17.3747 9.66606C17.4785 9.70904 17.5898 9.73109 17.7021 9.73095Z" fill="#25395F"/>
<path d="M16.7429 13.1899C16.9453 13.1895 17.1431 13.1288 17.3112 13.0157C17.4793 12.9026 17.6101 12.742 17.6873 12.5542C17.7645 12.3665 17.7844 12.16 17.7447 11.9609C17.7049 11.7618 17.6072 11.579 17.4639 11.4356C17.3206 11.2921 17.1382 11.1945 16.9396 11.1551C16.7411 11.1156 16.5353 11.1361 16.3484 11.2139C16.1614 11.2917 16.0016 11.4234 15.8892 11.5922C15.7768 11.7611 15.7168 11.9596 15.7168 12.1627C15.7174 12.4353 15.8258 12.6966 16.0181 12.8892C16.2105 13.0817 16.4712 13.1899 16.7429 13.1899Z" fill="#25395F"/>
<path d="M13.6278 13.1899C13.8643 13.1895 14.0954 13.1187 14.2919 12.9864C14.4883 12.8542 14.6412 12.6665 14.7313 12.447C14.8214 12.2276 14.8446 11.9862 14.7979 11.7536C14.7512 11.5209 14.6368 11.3074 14.4692 11.1399C14.3015 10.9725 14.0881 10.8587 13.856 10.813C13.6239 10.7673 13.3834 10.7916 13.1651 10.883C12.9468 10.9744 12.7604 11.1287 12.6295 11.3264C12.4986 11.524 12.429 11.7562 12.4297 11.9936C12.4306 12.3115 12.5573 12.6162 12.7819 12.8405C13.0066 13.0648 13.3108 13.1905 13.6278 13.1899Z" fill="#25395F"/>
<path d="M10.0009 14.0134C10.271 14.0127 10.5349 13.9318 10.7593 13.7807C10.9836 13.6296 11.1582 13.4153 11.2612 13.1647C11.3641 12.9141 11.3907 12.6385 11.3376 12.3728C11.2845 12.107 11.154 11.8631 10.9628 11.6716C10.7715 11.4802 10.528 11.35 10.263 11.2973C9.99793 11.2447 9.72331 11.2721 9.47377 11.3759C9.22424 11.4798 9.01099 11.6555 8.86096 11.8809C8.71093 12.1063 8.63086 12.3713 8.63086 12.6423C8.63145 13.0063 8.77608 13.3552 9.03298 13.6123C9.28988 13.8694 9.63801 14.0137 10.0009 14.0134Z" fill="#25395F"/>
<path d="M6.02454 15.9653C6.34188 15.9647 6.6519 15.8697 6.91543 15.6923C7.17897 15.515 7.38419 15.2632 7.50517 14.9689C7.62616 14.6746 7.65747 14.3509 7.59516 14.0388C7.53285 13.7266 7.37971 13.44 7.15508 13.2151C6.93046 12.9902 6.64444 12.8372 6.33315 12.7753C6.02186 12.7135 5.69928 12.7455 5.40616 12.8675C5.11305 12.9895 4.86255 13.1959 4.68631 13.4607C4.51008 13.7254 4.41602 14.0366 4.41602 14.355C4.4166 14.7825 4.58637 15.1922 4.88799 15.4942C5.18962 15.7962 5.59842 15.9656 6.02454 15.9653Z" fill="#25395F"/>
<path d="M1.91803 19.2552C2.29599 19.2541 2.66516 19.1407 2.97891 18.9292C3.29266 18.7178 3.53693 18.4178 3.68086 18.0672C3.8248 17.7166 3.86194 17.3311 3.78761 16.9593C3.71328 16.5875 3.53081 16.2462 3.26324 15.9784C2.99567 15.7105 2.65499 15.5283 2.28423 15.4546C1.91347 15.3809 1.52925 15.419 1.1801 15.5642C0.830941 15.7094 0.532503 15.9552 0.322468 16.2704C0.112433 16.5857 0.000220829 16.9563 0 17.3355C0.000291189 17.5879 0.0501333 17.8377 0.146681 18.0708C0.243228 18.3039 0.38459 18.5156 0.562695 18.6939C0.740801 18.8721 0.95216 19.0134 1.18471 19.1098C1.41726 19.2061 1.66644 19.2555 1.91803 19.2552Z" fill="#25395F"/>
<path d="M4.41627 11.957C4.73356 11.9562 5.04347 11.861 5.30686 11.6835C5.57025 11.506 5.7753 11.2542 5.89611 10.9599C6.01693 10.6655 6.04808 10.3419 5.98565 10.0298C5.92321 9.71771 5.76998 9.43119 5.54531 9.20642C5.32065 8.98165 5.03462 8.82872 4.72337 8.76695C4.41211 8.70517 4.08959 8.73732 3.79653 8.85933C3.50348 8.98135 3.25305 9.18775 3.07686 9.45248C2.90067 9.7172 2.80664 10.0284 2.80664 10.3467C2.80679 10.5585 2.84855 10.7682 2.92955 10.9638C3.01055 11.1594 3.12919 11.3371 3.27869 11.4866C3.42818 11.6362 3.6056 11.7547 3.8008 11.8354C3.996 11.9161 4.20514 11.9575 4.41627 11.957Z" fill="#25395F"/>
<path d="M8.38733 10.0049C8.65758 10.0046 8.92171 9.92404 9.14632 9.77325C9.37092 9.62246 9.54592 9.40825 9.64919 9.1577C9.75246 8.90714 9.77937 8.6315 9.72651 8.36561C9.67365 8.09972 9.5434 7.85552 9.35222 7.66388C9.16104 7.47224 8.91752 7.34177 8.65244 7.28896C8.38736 7.23615 8.11262 7.26336 7.86295 7.36717C7.61329 7.47098 7.39991 7.64671 7.24978 7.87216C7.09966 8.09761 7.01953 8.36265 7.01953 8.63378C7.01983 8.99751 7.16406 9.34625 7.42054 9.60334C7.67702 9.86044 8.02476 10.0049 8.38733 10.0049Z" fill="#25395F"/>
<path d="M7.80641 6.37254C8.07667 6.3721 8.34073 6.29128 8.56521 6.14031C8.78969 5.98933 8.96452 5.77498 9.06759 5.52435C9.17065 5.27371 9.19734 4.99804 9.14427 4.7322C9.09119 4.46635 8.96074 4.22226 8.76941 4.03077C8.57807 3.83929 8.33445 3.70902 8.06932 3.65642C7.8042 3.60382 7.52948 3.63126 7.2799 3.73527C7.03032 3.83928 6.81708 4.01519 6.66714 4.24076C6.51719 4.46633 6.43728 4.73144 6.4375 5.00257C6.43809 5.3663 6.58261 5.71492 6.83929 5.97181C7.09598 6.2287 7.44384 6.37283 7.80641 6.37254Z" fill="#25395F"/>
<path d="M11.4355 5.54999C11.6716 5.54911 11.9022 5.47807 12.0981 5.34583C12.294 5.2136 12.4464 5.0261 12.5361 4.80701C12.6259 4.58792 12.6489 4.34707 12.6023 4.11486C12.5557 3.88265 12.4416 3.6695 12.2743 3.50232C12.1071 3.33514 11.8942 3.22143 11.6625 3.17554C11.4309 3.12965 11.1909 3.15365 10.9728 3.24449C10.7548 3.33534 10.5685 3.48897 10.4374 3.68598C10.3063 3.88298 10.2363 4.11454 10.2363 4.35141C10.2365 4.50914 10.2676 4.6653 10.328 4.81094C10.3884 4.95659 10.4768 5.08886 10.5882 5.20018C10.6995 5.31151 10.8317 5.39971 10.9771 5.45974C11.1225 5.51976 11.2783 5.55043 11.4355 5.54999Z" fill="#25395F"/>
<path d="M14.5496 5.55C14.752 5.54956 14.9497 5.48894 15.1178 5.37581C15.2859 5.26267 15.4168 5.10209 15.4939 4.91436C15.5711 4.72662 15.5911 4.52016 15.5513 4.32104C15.5115 4.12193 15.4139 3.93911 15.2706 3.79568C15.1273 3.65225 14.9448 3.55464 14.7463 3.51518C14.5477 3.47573 14.342 3.4962 14.155 3.57401C13.968 3.65182 13.8083 3.78348 13.6958 3.95235C13.5834 4.12123 13.5234 4.31974 13.5234 4.5228C13.524 4.79544 13.6324 5.0567 13.8248 5.24928C14.0171 5.44185 14.2778 5.55 14.5496 5.55Z" fill="#25395F"/>
<path d="M15.1338 9.1811C15.3361 9.18022 15.5337 9.11923 15.7015 9.00583C15.8693 8.89242 15.9998 8.73169 16.0766 8.54392C16.1534 8.35615 16.1731 8.14975 16.1331 7.95079C16.0931 7.75183 15.9952 7.56921 15.8518 7.426C15.7085 7.28279 15.526 7.1854 15.3275 7.14612C15.129 7.10685 14.9234 7.12745 14.7365 7.20532C14.5497 7.2832 14.39 7.41486 14.2777 7.58368C14.1654 7.75251 14.1055 7.95093 14.1055 8.1539C14.1058 8.28909 14.1326 8.42289 14.1844 8.54767C14.2363 8.67246 14.3121 8.78578 14.4076 8.88116C14.5031 8.97655 14.6164 9.05213 14.741 9.10359C14.8656 9.15505 14.9991 9.18139 15.1338 9.1811Z" fill="#25395F"/>
<path d="M12.0195 9.2114C12.2559 9.21074 12.4868 9.13979 12.6831 9.00752C12.8793 8.87524 13.0321 8.68758 13.122 8.46824C13.212 8.2489 13.2352 8.00773 13.1885 7.77521C13.1419 7.54268 13.0277 7.32923 12.8602 7.16182C12.6927 6.99442 12.4795 6.88058 12.2476 6.83469C12.0156 6.78879 11.7753 6.8129 11.557 6.90397C11.3387 6.99504 11.1522 7.14898 11.0211 7.34635C10.89 7.54371 10.8201 7.77563 10.8203 8.01282C10.8206 8.17051 10.8519 8.3266 10.9123 8.47218C10.9727 8.61775 11.0611 8.74997 11.1725 8.86127C11.2838 8.97257 11.4159 9.06077 11.5613 9.12085C11.7066 9.18092 11.8623 9.21169 12.0195 9.2114Z" fill="#25395F"/>
<path d="M8.62851 18.3293C8.74996 18.3288 8.86856 18.2923 8.96934 18.2243C9.07011 18.1563 9.14854 18.0598 9.19471 17.9471C9.24089 17.8344 9.25274 17.7105 9.22878 17.5911C9.20481 17.4716 9.14611 17.362 9.06007 17.276C8.97403 17.19 8.86453 17.1315 8.74537 17.1079C8.62622 17.0843 8.50276 17.0966 8.39059 17.1433C8.27843 17.1901 8.18257 17.2691 8.11514 17.3704C8.04771 17.4718 8.01172 17.5909 8.01172 17.7127C8.01186 17.7938 8.02793 17.8741 8.05901 17.949C8.09008 18.0239 8.13556 18.0919 8.19283 18.1492C8.25011 18.2064 8.31806 18.2518 8.39281 18.2827C8.46756 18.3136 8.54765 18.3294 8.62851 18.3293Z" fill="#25395F"/>
<path d="M11.0942 18.021C11.2426 18.0203 11.3875 17.9756 11.5105 17.8924C11.6336 17.8092 11.7293 17.6913 11.7857 17.5536C11.842 17.4159 11.8564 17.2645 11.827 17.1186C11.7977 16.9726 11.7259 16.8387 11.6207 16.7337C11.5156 16.6286 11.3817 16.5572 11.2362 16.5284C11.0906 16.4996 10.9397 16.5147 10.8027 16.5718C10.6657 16.6289 10.5486 16.7255 10.4662 16.8493C10.3838 16.9732 10.3398 17.1187 10.3398 17.2676C10.3404 17.4678 10.4202 17.6596 10.5616 17.8009C10.7031 17.9421 10.8946 18.0213 11.0942 18.021Z" fill="#25395F"/>
<path d="M13.7987 16.9939C13.9676 16.9937 14.1327 16.9432 14.273 16.8488C14.4134 16.7545 14.5227 16.6205 14.5871 16.4639C14.6516 16.3072 14.6683 16.1349 14.6351 15.9687C14.6019 15.8025 14.5204 15.6499 14.4008 15.5302C14.2811 15.4105 14.1288 15.3291 13.9631 15.2963C13.7974 15.2634 13.6256 15.2806 13.4696 15.3457C13.3136 15.4107 13.1804 15.5208 13.0867 15.6618C12.993 15.8028 12.9431 15.9686 12.9434 16.1381C12.9435 16.2506 12.9657 16.362 13.0088 16.4659C13.0519 16.5698 13.1149 16.6642 13.1943 16.7437C13.2737 16.8231 13.368 16.8861 13.4717 16.9291C13.5754 16.972 13.6865 16.994 13.7987 16.9939Z" fill="#25395F"/>
<path d="M14.4491 19.7336C14.6515 19.7329 14.8491 19.6721 15.0171 19.5589C15.185 19.4456 15.3157 19.2849 15.3927 19.0972C15.4697 18.9094 15.4895 18.703 15.4496 18.504C15.4097 18.3049 15.3119 18.1222 15.1686 17.9789C15.0253 17.8356 14.8428 17.7381 14.6443 17.6987C14.4458 17.6593 14.2401 17.6799 14.0532 17.7577C13.8663 17.8356 13.7066 17.9672 13.5942 18.1361C13.4818 18.3049 13.4219 18.5034 13.4219 18.7064C13.422 18.8415 13.4487 18.9753 13.5004 19.1001C13.5521 19.2249 13.6279 19.3382 13.7233 19.4336C13.8187 19.529 13.9319 19.6046 14.0564 19.6561C14.181 19.7075 14.3144 19.7339 14.4491 19.7336Z" fill="#25395F"/>
<path d="M11.1619 20.3847C11.3308 20.3845 11.4959 20.3341 11.6362 20.2398C11.7765 20.1455 11.8858 20.0116 11.9503 19.855C12.0148 19.6984 12.0315 19.5261 11.9985 19.36C11.9654 19.1938 11.8839 19.0412 11.7644 18.9215C11.6449 18.8018 11.4927 18.7203 11.3271 18.6873C11.1614 18.6543 10.9897 18.6713 10.8337 18.7362C10.6777 18.8011 10.5443 18.911 10.4505 19.0519C10.3567 19.1928 10.3066 19.3584 10.3066 19.5278C10.3069 19.7552 10.3972 19.9732 10.5575 20.1338C10.7179 20.2945 10.9353 20.3847 11.1619 20.3847Z" fill="#25395F"/>
<path d="M8.25212 20.3514C8.40088 20.3514 8.54629 20.3071 8.66998 20.2242C8.79366 20.1413 8.89006 20.0234 8.94699 19.8856C9.00392 19.7477 9.01881 19.596 8.98979 19.4496C8.96077 19.3033 8.88914 19.1688 8.78395 19.0633C8.67876 18.9578 8.54475 18.8859 8.39885 18.8568C8.25295 18.8277 8.10173 18.8426 7.9643 18.8997C7.82686 18.9568 7.7094 19.0535 7.62675 19.1776C7.54411 19.3017 7.5 19.4476 7.5 19.5968C7.50029 19.7968 7.57963 19.9886 7.72062 20.13C7.8616 20.2715 8.05274 20.3511 8.25212 20.3514Z" fill="#25395F"/>
<path d="M8.28413 22.7151C8.45298 22.7146 8.61791 22.664 8.75809 22.5696C8.89826 22.4751 9.0074 22.3412 9.07171 22.1845C9.13602 22.0279 9.15262 21.8557 9.11941 21.6896C9.08621 21.5235 9.00467 21.371 8.88513 21.2514C8.76558 21.1318 8.61338 21.0504 8.44774 21.0175C8.28211 20.9846 8.11047 21.0017 7.95452 21.0667C7.79857 21.1316 7.6653 21.2414 7.57154 21.3823C7.47777 21.5232 7.42773 21.6888 7.42773 21.8581C7.42788 21.9708 7.45015 22.0824 7.49326 22.1864C7.53638 22.2905 7.5995 22.385 7.67903 22.4645C7.75855 22.5441 7.85292 22.6072 7.95674 22.6502C8.06057 22.6932 8.17182 22.7152 8.28413 22.7151Z" fill="#25395F"/>
<path d="M11.7761 23.1604C11.9788 23.1602 12.1769 23.0997 12.3453 22.9865C12.5137 22.8734 12.6449 22.7127 12.7223 22.5248C12.7997 22.3369 12.8199 22.1302 12.7802 21.9308C12.7405 21.7314 12.6428 21.5483 12.4994 21.4046C12.356 21.2609 12.1734 21.163 11.9746 21.1234C11.7758 21.0839 11.5697 21.1043 11.3825 21.1821C11.1953 21.26 11.0353 21.3918 10.9227 21.5609C10.8101 21.73 10.75 21.9287 10.75 22.1321C10.7503 22.4049 10.8585 22.6665 11.0509 22.8593C11.2433 23.0521 11.5042 23.1604 11.7761 23.1604Z" fill="#25395F"/>
<path d="M15.8538 22.7151C16.0904 22.7155 16.3218 22.6455 16.5188 22.514C16.7157 22.3824 16.8693 22.1952 16.9602 21.976C17.051 21.7568 17.075 21.5156 17.0292 21.2827C16.9833 21.0498 16.8695 20.8358 16.7024 20.6678C16.5352 20.4998 16.3222 20.3854 16.0901 20.3389C15.8581 20.2924 15.6175 20.316 15.3989 20.4068C15.1802 20.4975 14.9933 20.6513 14.8618 20.8486C14.7303 21.046 14.6602 21.278 14.6602 21.5154C14.6604 21.8331 14.7862 22.1377 15.01 22.3626C15.2337 22.5874 15.5371 22.7142 15.8538 22.7151Z" fill="#25395F"/>
<path d="M18.25 25.6955C18.5202 25.6946 18.784 25.6135 19.0082 25.4622C19.2324 25.311 19.4069 25.0965 19.5096 24.8458C19.6124 24.5951 19.6387 24.3195 19.5854 24.0538C19.5321 23.7881 19.4015 23.5442 19.21 23.353C19.0186 23.1617 18.775 23.0317 18.5099 22.9793C18.2449 22.9268 17.9702 22.9544 17.7208 23.0585C17.4713 23.1626 17.2582 23.3385 17.1084 23.564C16.9585 23.7895 16.8787 24.0545 16.8789 24.3256C16.8792 24.5058 16.9149 24.6843 16.984 24.8508C17.0531 25.0172 17.1542 25.1684 17.2815 25.2956C17.4088 25.4228 17.5599 25.5236 17.7261 25.5922C17.8923 25.6609 18.0703 25.696 18.25 25.6955Z" fill="#25395F"/>
<path d="M13.2168 26.1062C13.453 26.1055 13.6837 26.0347 13.8799 25.9026C14.076 25.7705 14.2288 25.5831 14.3189 25.364C14.409 25.145 14.4324 24.904 14.3861 24.6716C14.3399 24.4392 14.2261 24.2258 14.059 24.0582C13.892 23.8906 13.6792 23.7764 13.4475 23.73C13.2159 23.6836 12.9757 23.7071 12.7573 23.7975C12.539 23.8879 12.3522 24.0411 12.2205 24.2379C12.0888 24.4347 12.0182 24.6661 12.0176 24.9031C12.0173 25.0612 12.0481 25.2178 12.1083 25.3639C12.1684 25.51 12.2567 25.6427 12.3682 25.7545C12.4796 25.8662 12.6119 25.9548 12.7575 26.0152C12.9031 26.0756 13.0592 26.1065 13.2168 26.1062Z" fill="#25395F"/>
<path d="M10.3739 28.4367C10.6104 28.4363 10.8415 28.3655 11.038 28.2332C11.2344 28.101 11.3873 27.9133 11.4774 27.6938C11.5675 27.4744 11.5907 27.2331 11.544 27.0004C11.4973 26.7677 11.3829 26.5542 11.2153 26.3868C11.0476 26.2193 10.8342 26.1056 10.6021 26.0598C10.3699 26.0141 10.1295 26.0385 9.91119 26.1299C9.69286 26.2212 9.50645 26.3755 9.37555 26.5732C9.24465 26.7709 9.17513 27.0031 9.17579 27.2404C9.17696 27.5583 9.30374 27.8627 9.52832 28.087C9.75291 28.3113 10.057 28.437 10.3739 28.4367Z" fill="#25395F"/>
<path d="M12.7372 31.4514C13.0074 31.4507 13.2714 31.3697 13.4957 31.2186C13.72 31.0675 13.8947 30.8531 13.9976 30.6024C14.1005 30.3518 14.127 30.0761 14.0738 29.8104C14.0206 29.5446 13.8901 29.3006 13.6987 29.1092C13.5073 28.9179 13.2637 28.7877 12.9986 28.7352C12.7335 28.6827 12.4588 28.7102 12.2093 28.8142C11.9598 28.9183 11.7466 29.0942 11.5967 29.3197C11.4469 29.5453 11.367 29.8103 11.3672 30.0814C11.3673 30.2617 11.4029 30.4401 11.4719 30.6065C11.5408 30.773 11.6418 30.9241 11.7691 31.0514C11.8963 31.1786 12.0473 31.2795 12.2134 31.3481C12.3796 31.4167 12.5575 31.4518 12.7372 31.4514Z" fill="#25395F"/>
<path d="M19.0377 32C19.3552 32.0002 19.6657 31.906 19.9298 31.7292C20.1939 31.5523 20.3998 31.3009 20.5215 31.0067C20.6431 30.7124 20.6751 30.3886 20.6133 30.0762C20.5515 29.7637 20.3987 29.4767 20.1742 29.2514C19.9498 29.026 19.6638 28.8725 19.3524 28.8103C19.0409 28.7481 18.7181 28.7799 18.4248 28.9018C18.1314 29.0236 17.8806 29.23 17.7042 29.4949C17.5278 29.7597 17.4336 30.0711 17.4336 30.3896C17.4342 30.8164 17.6033 31.2255 17.904 31.5273C18.2047 31.8291 18.6123 31.9991 19.0377 32Z" fill="#25395F"/>
<path d="M15.579 29.1208C15.8492 29.1202 16.1132 29.0392 16.3375 28.8881C16.5618 28.737 16.7365 28.5225 16.8394 28.2719C16.9423 28.0212 16.9688 27.7456 16.9156 27.4798C16.8624 27.214 16.7319 26.97 16.5405 26.7787C16.3491 26.5873 16.1055 26.4571 15.8404 26.4046C15.5753 26.3521 15.3006 26.3796 15.0511 26.4837C14.8016 26.5877 14.5884 26.7636 14.4385 26.9892C14.2887 27.2147 14.2088 27.4798 14.209 27.7509C14.2093 27.9311 14.2449 28.1094 14.3139 28.2758C14.383 28.4422 14.484 28.5933 14.6112 28.7205C14.7384 28.8477 14.8893 28.9485 15.0554 29.0172C15.2215 29.0859 15.3994 29.1211 15.579 29.1208Z" fill="#25395F"/>
<path d="M21.673 28.5757C21.9903 28.575 22.3003 28.48 22.5639 28.3027C22.8274 28.1253 23.0326 27.8736 23.1536 27.5793C23.2746 27.285 23.3059 26.9613 23.2436 26.6491C23.1813 26.337 23.0281 26.0503 22.8035 25.8255C22.5789 25.6006 22.2929 25.4475 21.9816 25.3857C21.6703 25.3238 21.3477 25.3559 21.0546 25.4779C20.7615 25.5999 20.511 25.8063 20.3347 26.071C20.1585 26.3358 20.0645 26.647 20.0645 26.9653C20.065 27.3928 20.2348 27.8026 20.5364 28.1045C20.8381 28.4065 21.2469 28.576 21.673 28.5757Z" fill="#25395F"/>
<path d="M8.93655 25.4907C9.13914 25.49 9.33699 25.4292 9.50511 25.3158C9.67324 25.2024 9.8041 25.0416 9.88117 24.8536C9.95824 24.6656 9.97806 24.459 9.93814 24.2597C9.89821 24.0605 9.80033 23.8776 9.65684 23.7341C9.51336 23.5906 9.33071 23.493 9.13197 23.4536C8.93323 23.4142 8.7273 23.4347 8.5402 23.5127C8.35309 23.5906 8.1932 23.7224 8.08072 23.8914C7.96824 24.0605 7.9082 24.2592 7.9082 24.4624C7.90835 24.5977 7.93507 24.7316 7.98684 24.8565C8.03861 24.9814 8.11442 25.0949 8.20992 25.1904C8.30543 25.2859 8.41876 25.3616 8.54344 25.4131C8.66812 25.4646 8.8017 25.491 8.93655 25.4907Z" fill="#25395F"/>
</svg>
