<svg width="114" height="38" viewBox="0 0 114 38" fill="none" xmlns="http://www.w3.org/2000/svg">
<g clip-path="url(#clip0)">
<path d="M42.1753 5.95846H43.4392L43.8997 3.87331H45.394C47.2507 3.87331 47.8483 2.57255 47.8483 1.69563C47.8483 0.804093 47.1821 0.0587158 46.0455 0.0587158H43.4833L42.1753 5.95846ZM45.4576 2.76746H44.1496L44.5072 1.14024H45.781C46.2366 1.14024 46.5256 1.43256 46.5256 1.8223C46.5207 2.35333 46.1337 2.76746 45.4576 2.76746ZM47.7112 4.13153C47.7112 5.24718 48.4656 6.06564 49.8374 6.06564C51.2973 6.06564 52.3261 4.85743 52.3261 3.52743C52.3261 2.41179 51.5619 1.58359 50.1901 1.58359C48.7399 1.58359 47.7112 2.79666 47.7112 4.13153ZM51.1503 3.58102C51.1503 4.35076 50.6359 5.06692 49.8766 5.06692C49.2446 5.06692 48.8722 4.68691 48.8722 4.0682C48.8722 3.3082 49.3867 2.58233 50.151 2.58233C50.778 2.58233 51.1503 2.9623 51.1503 3.58102ZM56.4217 5.95846H57.6219L59.8804 1.68588H58.6703L57.2202 4.56025L56.9263 1.68588H55.922L54.3396 4.56025L54.1681 1.68588H53.0414L53.399 5.95846H54.609L56.1571 3.05L56.4217 5.95846ZM59.655 4.14616C59.655 5.33974 60.527 6.06564 61.8791 6.06564C62.4131 6.06564 62.9814 5.90487 63.3978 5.62231L63.0402 4.85254C62.7756 5.05718 62.3298 5.16923 61.9575 5.16923C61.1688 5.16923 60.7818 4.64797 60.7818 4.28258V4.17536H63.9759C64.02 4.03408 64.0641 3.73206 64.0641 3.4836C64.0641 2.29001 63.2264 1.57384 62.1339 1.57384C60.7034 1.58358 59.655 2.76257 59.655 4.14616ZM63.05 3.42514H60.8993C60.9973 2.95745 61.4578 2.47511 62.0653 2.47511C62.7512 2.47511 63.05 2.9087 63.05 3.33255V3.42514ZM64.4021 5.95846H65.5289L66.1413 3.16205C66.4009 2.87948 66.7977 2.65048 67.2092 2.65048C67.3954 2.65048 67.5571 2.68464 67.6257 2.70413L67.8657 1.58847C67.1896 1.58847 66.7291 1.84179 66.347 2.25103L66.4793 1.68588H65.3525L64.4021 5.95846ZM67.7726 4.14616C67.7726 5.33974 68.6446 6.06564 69.9968 6.06564C70.5308 6.06564 71.099 5.90487 71.5154 5.62231L71.1578 4.85254C70.8933 5.05718 70.4475 5.16923 70.0751 5.16923C69.2864 5.16923 68.8994 4.64797 68.8994 4.28258V4.17536H72.0886C72.1327 4.03408 72.1768 3.73206 72.1768 3.4836C72.1768 2.29001 71.3391 1.57384 70.2466 1.57384C68.821 1.58358 67.7726 2.76257 67.7726 4.14616ZM71.1676 3.42514H69.017C69.1149 2.95745 69.5754 2.47511 70.1829 2.47511C70.8688 2.47511 71.1676 2.9087 71.1676 3.33255V3.42514ZM76.3067 2.2559C76.0225 1.83205 75.5081 1.58359 74.9398 1.58359C73.475 1.58359 72.6716 3.00613 72.6716 4.29716C72.6716 5.42739 73.3281 6.06564 74.3079 6.06564C74.8223 6.06564 75.2338 5.85615 75.5963 5.42744L75.4738 5.95846H76.6104L77.9282 0.0587158H76.7917L76.3067 2.2559ZM73.8523 4.0682C73.8523 3.28384 74.3765 2.58233 75.1162 2.58233C75.5718 2.58233 75.9343 2.79664 76.1205 3.07921L75.7923 4.56513C75.562 4.85744 75.2044 5.07179 74.8076 5.07179C74.2638 5.06692 73.8523 4.67717 73.8523 4.0682ZM81.2546 5.39328C81.5388 5.822 82.0385 6.06564 82.6215 6.06564C84.0814 6.06564 84.8799 4.63333 84.8799 3.35205C84.8799 2.2218 84.2136 1.58359 83.2534 1.58359C82.739 1.58359 82.3177 1.79798 81.9552 2.22182L82.4353 0.0635925H81.3085L80.0005 5.96333H81.1273L81.2546 5.39328ZM83.6992 3.58102C83.6992 4.36538 83.1849 5.06692 82.4353 5.06692C81.9797 5.06692 81.6172 4.86232 81.431 4.57975L81.7592 3.09384C81.9993 2.80153 82.3471 2.58233 82.7439 2.58233C83.2926 2.58233 83.6992 2.97204 83.6992 3.58102ZM85.0808 6.61615L84.7084 7.59051C84.9142 7.66359 85.1787 7.69769 85.4286 7.69769C86.1389 7.69769 86.619 7.42492 87.0893 6.66492L90.2198 1.69563H88.9755L87.1775 4.66742L86.7219 1.69563H85.5462L86.3104 5.99256L86.0459 6.38718C85.894 6.61128 85.7421 6.68923 85.5119 6.68923C85.3551 6.68923 85.1787 6.66 85.0808 6.61615Z" fill="#C4D1E8"/>
<path d="M46.3494 14.1233H44.1792V33.0453H46.3494V14.1233Z" fill="#C4D1E8"/>
<path d="M53.3354 23.5698C53.3354 18.2693 57.8033 13.7775 63.0599 13.7775C68.346 13.7775 72.7502 18.2303 72.7502 23.5698C72.7502 28.9044 68.3166 33.3621 63.0599 33.3621C57.8376 33.3913 53.3354 28.9044 53.3354 23.5698ZM70.5799 23.5698C70.5799 19.3654 67.1506 15.7846 63.0599 15.7846C58.9693 15.7846 55.5106 19.3605 55.5106 23.5698C55.5106 27.8082 58.9693 31.3841 63.0599 31.3841C67.1506 31.3793 70.5799 27.8082 70.5799 23.5698Z" fill="#C4D1E8"/>
<path d="M83.8853 16.1646H77.502V14.1233H92.4145V16.1646H86.0262V33.0453H83.8559L83.8853 16.1646Z" fill="#C4D1E8"/>
<path d="M103.8 16.7589L96.5935 33.0453H94.2322L102.129 15.1903C102.413 14.5277 103.075 14.1233 103.766 14.1233C104.486 14.1233 105.118 14.5326 105.402 15.1903L113.299 33.0453H110.938L103.8 16.7589Z" fill="#C4D1E8"/>
<path d="M22.3786 12.1749C23.3535 12.1749 24.1423 11.3906 24.1423 10.4162C24.1423 9.44671 23.3535 8.66235 22.3786 8.66235C21.4037 8.66235 20.615 9.44671 20.615 10.4162C20.6199 11.3906 21.4086 12.1749 22.3786 12.1749Z" fill="#C4D1E8"/>
<path d="M24.3625 37.0013C25.3374 37.0013 26.1261 36.217 26.1261 35.2426C26.1261 34.2731 25.3374 33.4888 24.3625 33.4888C23.3876 33.4888 22.5989 34.2731 22.5989 35.2426C22.5989 36.2121 23.3876 37.0013 24.3625 37.0013Z" fill="#C4D1E8"/>
<path d="M22.8833 16.569C23.7014 16.569 24.3628 15.9064 24.3628 15.0929C24.3628 14.2793 23.7014 13.6167 22.8833 13.6167C22.0652 13.6167 21.4038 14.2793 21.4038 15.0929C21.4038 15.9064 22.0652 16.569 22.8833 16.569Z" fill="#C4D1E8"/>
<path d="M26.8123 17.1343C27.6304 17.1343 28.2918 16.4717 28.2918 15.6582C28.2918 14.8397 27.6304 14.182 26.8123 14.182C25.9941 14.182 25.3328 14.8446 25.3328 15.6582C25.3377 16.4766 25.999 17.1343 26.8123 17.1343Z" fill="#C4D1E8"/>
<path d="M22.3784 20.3057C23.0741 20.3057 23.6375 19.7454 23.6375 19.0487C23.6375 18.3569 23.0741 17.7918 22.3784 17.7918C21.6828 17.7918 21.1194 18.3521 21.1194 19.0487C21.1194 19.7454 21.6828 20.3057 22.3784 20.3057Z" fill="#C4D1E8"/>
<path d="M26.3127 20.8369C27.0084 20.8369 27.5718 20.2766 27.5718 19.5799C27.5718 18.8833 27.0084 18.3231 26.3127 18.3231C25.6171 18.3231 25.0537 18.8833 25.0537 19.5799C25.0537 20.2766 25.6171 20.8369 26.3127 20.8369Z" fill="#C4D1E8"/>
<path d="M29.4575 22.064C30.1532 22.064 30.7166 21.4989 30.7166 20.8071C30.7166 20.1153 30.1532 19.5502 29.4575 19.5502C28.7619 19.5502 28.1985 20.1104 28.1985 20.8071C28.1985 21.4989 28.7619 22.064 29.4575 22.064Z" fill="#C4D1E8"/>
<path d="M25.1465 23.8527C25.7539 23.8527 26.2487 23.3606 26.2487 22.7565C26.2487 22.1524 25.7539 21.6555 25.1465 21.6555C24.539 21.6555 24.0442 22.1476 24.0442 22.7565C24.0491 23.3558 24.539 23.8527 25.1465 23.8527Z" fill="#C4D1E8"/>
<path d="M21.2175 23.3164C21.825 23.3164 22.3198 22.8243 22.3198 22.2154C22.3198 21.6064 21.825 21.1192 21.2175 21.1192C20.61 21.1192 20.1152 21.6064 20.1152 22.2154C20.1152 22.8243 20.61 23.3164 21.2175 23.3164Z" fill="#C4D1E8"/>
<path d="M28.3259 25.0705C28.9334 25.0705 29.4282 24.5833 29.4282 23.9744C29.4282 23.3654 28.9334 22.8734 28.3259 22.8734C27.7184 22.8734 27.2236 23.3654 27.2236 23.9744C27.2236 24.5833 27.7184 25.0705 28.3259 25.0705Z" fill="#C4D1E8"/>
<path d="M23.5739 26.1417C24.0981 26.1417 24.5194 25.7178 24.5194 25.2014C24.5194 24.6801 24.0981 24.2612 23.5739 24.2612C23.0497 24.2612 22.6284 24.6801 22.6284 25.2014C22.6284 25.7178 23.0546 26.1417 23.5739 26.1417Z" fill="#C4D1E8"/>
<path d="M26.7534 27.3355C27.2776 27.3355 27.6989 26.9117 27.6989 26.3953C27.6989 25.874 27.2776 25.455 26.7534 25.455C26.2341 25.455 25.8079 25.874 25.8079 26.3953C25.8079 26.9117 26.2292 27.3355 26.7534 27.3355Z" fill="#C4D1E8"/>
<path d="M19.6743 25.5768C20.1985 25.5768 20.6198 25.1578 20.6198 24.6365C20.6198 24.1152 20.1985 23.6963 19.6743 23.6963C19.1501 23.6963 18.7288 24.1201 18.7288 24.6365C18.7288 25.1578 19.1501 25.5768 19.6743 25.5768Z" fill="#C4D1E8"/>
<path d="M21.8446 27.6767C22.2807 27.6767 22.6334 27.3259 22.6334 26.8923C22.6334 26.4587 22.2807 26.108 21.8446 26.108C21.4086 26.108 21.0559 26.4587 21.0559 26.8923C21.0559 27.3259 21.4086 27.6767 21.8446 27.6767Z" fill="#C4D1E8"/>
<path d="M23.1969 29.8447C23.579 29.8447 23.8876 29.5378 23.8876 29.1578C23.8876 28.7778 23.579 28.4661 23.1969 28.4661C22.8147 28.4661 22.5061 28.7729 22.5061 29.1578C22.5061 29.5427 22.8147 29.8447 23.1969 29.8447Z" fill="#C4D1E8"/>
<path d="M21.5309 30.2832C21.8445 30.2832 22.0992 30.0299 22.0992 29.7181C22.0992 29.4063 21.8445 29.153 21.5309 29.153C21.2174 29.153 20.9626 29.4063 20.9626 29.7181C20.9626 30.0299 21.2174 30.2832 21.5309 30.2832Z" fill="#C4D1E8"/>
<path d="M20.0516 28.6509C20.4337 28.6509 20.7424 28.344 20.7424 27.964C20.7424 27.584 20.4337 27.2722 20.0516 27.2722C19.6695 27.2722 19.3608 27.5791 19.3608 27.964C19.3608 28.3488 19.6695 28.6509 20.0516 28.6509Z" fill="#C4D1E8"/>
<path d="M17.9108 27.1454C18.3468 27.1454 18.6995 26.7947 18.6995 26.3611C18.6995 25.9275 18.3468 25.5767 17.9108 25.5767C17.4748 25.5767 17.1221 25.9275 17.1221 26.3611C17.127 26.7947 17.4797 27.1454 17.9108 27.1454Z" fill="#C4D1E8"/>
<path d="M17.8815 21.2457C18.3175 21.2457 18.6702 20.8949 18.6702 20.4613C18.6702 20.0277 18.3175 19.6769 17.8815 19.6769C17.4455 19.6769 17.0928 20.0277 17.0928 20.4613C17.0928 20.8949 17.4455 21.2457 17.8815 21.2457Z" fill="#C4D1E8"/>
<path d="M18.2242 18.4839C18.6063 18.4839 18.915 18.177 18.915 17.797C18.915 17.417 18.6063 17.1052 18.2242 17.1052C17.8421 17.1052 17.5334 17.4121 17.5334 17.797C17.5334 18.177 17.8421 18.4839 18.2242 18.4839Z" fill="#C4D1E8"/>
<path d="M18.9833 16.228C19.2969 16.228 19.5516 15.9746 19.5516 15.6628C19.5516 15.3511 19.2969 15.0977 18.9833 15.0977C18.6698 15.0977 18.415 15.3511 18.415 15.6628C18.415 15.9746 18.6698 16.228 18.9833 16.228Z" fill="#C4D1E8"/>
<path d="M17.661 15.1562C18.0431 15.1562 18.3517 14.8493 18.3517 14.4693C18.3517 14.0893 18.0431 13.7775 17.661 13.7775C17.2789 13.7775 16.9702 14.0844 16.9702 14.4693C16.9702 14.8541 17.2789 15.1562 17.661 15.1562Z" fill="#C4D1E8"/>
<path d="M24.9899 28.8706C25.4259 28.8706 25.7786 28.5198 25.7786 28.0862C25.7786 27.6526 25.4259 27.3019 24.9899 27.3019C24.5539 27.3019 24.2012 27.6526 24.2012 28.0862C24.2061 28.5198 24.5588 28.8706 24.9899 28.8706Z" fill="#C4D1E8"/>
<path d="M15.8676 14.2501C16.3036 14.2501 16.6563 13.8993 16.6563 13.4657C16.6563 13.0321 16.3036 12.6813 15.8676 12.6813C15.4316 12.6813 15.0789 13.0321 15.0789 13.4657C15.0789 13.8944 15.4316 14.2501 15.8676 14.2501Z" fill="#C4D1E8"/>
<path d="M16.402 17.5728C16.838 17.5728 17.1908 17.222 17.1908 16.7884C17.1908 16.3549 16.838 16.0041 16.402 16.0041C15.966 16.0041 15.6133 16.3549 15.6133 16.7884C15.6182 17.222 15.9709 17.5728 16.402 17.5728Z" fill="#C4D1E8"/>
<path d="M15.52 20.7437C16.0393 20.7437 16.4655 20.3199 16.4655 19.8035C16.4655 19.2822 16.0442 18.8632 15.52 18.8632C14.9958 18.8632 14.5745 19.2871 14.5745 19.8035C14.5794 20.3199 15.0007 20.7437 15.52 20.7437Z" fill="#C4D1E8"/>
<path d="M12.6589 20.7439C13.2664 20.7439 13.7612 20.2518 13.7612 19.6428C13.7612 19.0339 13.2664 18.5467 12.6589 18.5467C12.0514 18.5467 11.5566 19.0339 11.5566 19.6428C11.5566 20.2518 12.0514 20.7439 12.6589 20.7439Z" fill="#C4D1E8"/>
<path d="M9.32276 21.4992C10.0184 21.4992 10.5818 20.9389 10.5818 20.2423C10.5818 19.5505 10.0184 18.9854 9.32276 18.9854C8.62711 18.9854 8.06372 19.5456 8.06372 20.2423C8.06372 20.9341 8.62711 21.4992 9.32276 21.4992Z" fill="#C4D1E8"/>
<path d="M5.67312 23.2872C6.49125 23.2872 7.15261 22.6246 7.15261 21.8111C7.15261 20.9926 6.49125 20.3349 5.67312 20.3349C4.85497 20.3349 4.1936 20.9975 4.1936 21.8111C4.1985 22.6246 4.85987 23.2872 5.67312 23.2872Z" fill="#C4D1E8"/>
<path d="M1.89498 26.2982C2.86988 26.2982 3.65862 25.509 3.65862 24.5395C3.65862 23.57 2.86988 22.7856 1.89498 22.7856C0.920085 22.7856 0.131348 23.57 0.131348 24.5395C0.131348 25.509 0.924984 26.2982 1.89498 26.2982Z" fill="#C4D1E8"/>
<path d="M4.19849 19.614C5.01662 19.614 5.67798 18.9514 5.67798 18.1378C5.67798 17.3242 5.01662 16.6617 4.19849 16.6617C3.38036 16.6617 2.71899 17.3242 2.71899 18.1378C2.71899 18.9514 3.38036 19.614 4.19849 19.614Z" fill="#C4D1E8"/>
<path d="M7.84351 17.826C8.53917 17.826 9.10255 17.2609 9.10255 16.5691C9.10255 15.8773 8.53917 15.3122 7.84351 15.3122C7.14786 15.3122 6.58447 15.8724 6.58447 16.5691C6.58447 17.2657 7.14786 17.826 7.84351 17.826Z" fill="#C4D1E8"/>
<path d="M7.30933 14.4986C8.00499 14.4986 8.56838 13.9335 8.56838 13.2417C8.56838 12.5499 8.00499 11.9847 7.30933 11.9847C6.61368 11.9847 6.05029 12.545 6.05029 13.2417C6.05029 13.9384 6.61368 14.4986 7.30933 14.4986Z" fill="#C4D1E8"/>
<path d="M10.6455 13.7437C11.253 13.7437 11.7478 13.2566 11.7478 12.6476C11.7478 12.0386 11.253 11.5466 10.6455 11.5466C10.038 11.5466 9.54321 12.0386 9.54321 12.6476C9.54321 13.2566 10.038 13.7437 10.6455 13.7437Z" fill="#C4D1E8"/>
<path d="M13.5065 13.7486C14.0307 13.7486 14.452 13.3296 14.452 12.8083C14.452 12.287 14.0307 11.868 13.5065 11.868C12.9823 11.868 12.561 12.287 12.561 12.8083C12.561 13.3247 12.9872 13.7486 13.5065 13.7486Z" fill="#C4D1E8"/>
<path d="M14.0405 17.0759C14.5647 17.0759 14.986 16.652 14.986 16.1356C14.986 15.6143 14.5647 15.1953 14.0405 15.1953C13.5163 15.1953 13.095 15.6143 13.095 16.1356C13.095 16.652 13.5212 17.0759 14.0405 17.0759Z" fill="#C4D1E8"/>
<path d="M11.1797 17.1C11.7871 17.1 12.2819 16.6079 12.2819 15.999C12.2819 15.3949 11.7871 14.8979 11.1797 14.8979C10.5722 14.8979 10.0774 15.39 10.0774 15.999C10.0774 16.6079 10.5722 17.1 11.1797 17.1Z" fill="#C4D1E8"/>
<path d="M8.06365 25.4552C8.37718 25.4552 8.63193 25.2019 8.63193 24.8901C8.63193 24.5783 8.37718 24.325 8.06365 24.325C7.75011 24.325 7.49536 24.5783 7.49536 24.8901C7.49536 25.2019 7.75011 25.4552 8.06365 25.4552Z" fill="#C4D1E8"/>
<path d="M10.327 25.1676C10.7091 25.1676 11.0177 24.8607 11.0177 24.4758C11.0177 24.0909 10.7091 23.7839 10.327 23.7839C9.94487 23.7839 9.63623 24.0909 9.63623 24.4758C9.63623 24.8607 9.94487 25.1676 10.327 25.1676Z" fill="#C4D1E8"/>
<path d="M12.8156 24.2276C13.2516 24.2276 13.6043 23.8768 13.6043 23.4432C13.6043 23.0096 13.2516 22.6589 12.8156 22.6589C12.3796 22.6589 12.0269 23.0096 12.0269 23.4432C12.0269 23.8768 12.3796 24.2276 12.8156 24.2276Z" fill="#C4D1E8"/>
<path d="M13.4135 26.7367C13.9377 26.7367 14.359 26.3177 14.359 25.7964C14.359 25.2751 13.9377 24.8561 13.4135 24.8561C12.8893 24.8561 12.468 25.28 12.468 25.7964C12.468 26.3177 12.8893 26.7367 13.4135 26.7367Z" fill="#C4D1E8"/>
<path d="M10.3908 27.3356C10.8268 27.3356 11.1795 26.9848 11.1795 26.5512C11.1795 26.1176 10.8268 25.7668 10.3908 25.7668C9.95478 25.7668 9.60205 26.1176 9.60205 26.5512C9.60695 26.9848 9.95968 27.3356 10.3908 27.3356Z" fill="#C4D1E8"/>
<path d="M7.72054 27.3019C8.10266 27.3019 8.4113 26.9949 8.4113 26.6101C8.4113 26.2252 8.10266 25.9183 7.72054 25.9183C7.33842 25.9183 7.02979 26.2252 7.02979 26.6101C7.02979 26.9949 7.33842 27.3019 7.72054 27.3019Z" fill="#C4D1E8"/>
<path d="M7.75016 29.4695C8.18617 29.4695 8.5389 29.1187 8.5389 28.6851C8.5389 28.2515 8.18617 27.9008 7.75016 27.9008C7.31415 27.9008 6.96143 28.2515 6.96143 28.6851C6.96143 29.1187 7.31415 29.4695 7.75016 29.4695Z" fill="#C4D1E8"/>
<path d="M10.9592 29.8786C11.4834 29.8786 11.9047 29.4548 11.9047 28.9384C11.9047 28.4171 11.4834 27.9981 10.9592 27.9981C10.435 27.9981 10.0137 28.4171 10.0137 28.9384C10.0137 29.4548 10.4399 29.8786 10.9592 29.8786Z" fill="#C4D1E8"/>
<path d="M14.7019 29.4643C15.3094 29.4643 15.8042 28.9722 15.8042 28.3632C15.8042 27.7591 15.3094 27.2671 14.7019 27.2671C14.0944 27.2671 13.5996 27.7543 13.5996 28.3632C13.5996 28.9722 14.0944 29.4643 14.7019 29.4643Z" fill="#C4D1E8"/>
<path d="M16.9065 32.1977C17.6022 32.1977 18.1655 31.6374 18.1655 30.9408C18.1655 30.2441 17.6022 29.6839 16.9065 29.6839C16.2108 29.6839 15.6475 30.2441 15.6475 30.9408C15.6475 31.6374 16.2108 32.1977 16.9065 32.1977Z" fill="#C4D1E8"/>
<path d="M12.2768 32.573C12.8843 32.573 13.3791 32.0809 13.3791 31.4719C13.3791 30.8678 12.8843 30.3758 12.2768 30.3758C11.6694 30.3758 11.1746 30.863 11.1746 31.4719C11.1795 32.0809 11.6694 32.573 12.2768 32.573Z" fill="#C4D1E8"/>
<path d="M9.67063 34.7065C10.2781 34.7065 10.7729 34.2145 10.7729 33.6055C10.7729 32.9965 10.2781 32.5093 9.67063 32.5093C9.06316 32.5093 8.56836 32.9965 8.56836 33.6055C8.56836 34.2145 9.06316 34.7065 9.67063 34.7065Z" fill="#C4D1E8"/>
<path d="M11.8406 37.4739C12.5362 37.4739 13.0996 36.9088 13.0996 36.217C13.0996 35.5252 12.5362 34.9601 11.8406 34.9601C11.1449 34.9601 10.5815 35.5203 10.5815 36.217C10.5815 36.9137 11.1449 37.4739 11.8406 37.4739Z" fill="#C4D1E8"/>
<path d="M17.6265 37.9703C18.4446 37.9703 19.106 37.3077 19.106 36.4942C19.106 35.6757 18.4446 35.018 17.6265 35.018C16.8083 35.018 16.147 35.6806 16.147 36.4942C16.1519 37.3126 16.8132 37.9703 17.6265 37.9703Z" fill="#C4D1E8"/>
<path d="M14.4522 35.3354C15.1478 35.3354 15.7112 34.7703 15.7112 34.0785C15.7112 33.3867 15.1478 32.8215 14.4522 32.8215C13.7565 32.8215 13.1931 33.3818 13.1931 34.0785C13.1931 34.7751 13.7565 35.3354 14.4522 35.3354Z" fill="#C4D1E8"/>
<path d="M20.0518 34.8384C20.8699 34.8384 21.5313 34.1759 21.5313 33.3623C21.5313 32.5487 20.8699 31.8861 20.0518 31.8861C19.2336 31.8861 18.5723 32.5487 18.5723 33.3623C18.5723 34.1759 19.2336 34.8384 20.0518 34.8384Z" fill="#C4D1E8"/>
<path d="M8.34785 32.0125C8.87204 32.0125 9.29335 31.5887 9.29335 31.0723C9.29335 30.551 8.87204 30.132 8.34785 30.132C7.82366 30.132 7.40234 30.551 7.40234 31.0723C7.40234 31.5887 7.82366 32.0125 8.34785 32.0125Z" fill="#C4D1E8"/>
</g>
<defs>
<clipPath id="clip0">
<rect width="113.657" height="38" fill="white"/>
</clipPath>
</defs>
</svg>
