<svg width="960" height="360" viewBox="0 0 960 360" fill="none" xmlns="http://www.w3.org/2000/svg">
<path d="M0 16C0 7.16344 7.16345 0 16 0H944C952.837 0 960 7.16344 960 16V344C960 352.837 952.837 360 944 360H16C7.16343 360 0 352.837 0 344V16Z" fill="url(#paint0_radial)"/>
<path d="M176.451 192.946C179.364 192.946 180.626 191.409 180.626 189.612C180.626 185.583 174.347 186.829 174.347 184.822C174.347 184.013 175.059 183.48 176.176 183.48C177.309 183.48 178.457 183.868 179.299 184.709L180.383 183.301C179.38 182.33 178.021 181.796 176.337 181.796C173.975 181.796 172.405 183.172 172.405 184.952C172.405 188.933 178.7 187.525 178.7 189.791C178.7 190.503 178.085 191.263 176.532 191.263C175.026 191.263 173.862 190.567 173.117 189.774L172.065 191.231C173.02 192.25 174.46 192.946 176.451 192.946ZM193.584 192.752V181.958H190.914L187.969 189.062L185.04 181.958H182.369V192.752H184.262V184.741L187.564 192.752H188.373L191.69 184.741V192.752H193.584ZM205.59 192.752L201.351 181.958H198.988L194.748 192.752H196.9L197.694 190.68H202.645L203.438 192.752H205.59ZM202.111 189.013H198.227L200.169 183.868L202.111 189.013ZM215.119 192.752L212.482 188.512C213.776 188.301 215.038 187.266 215.038 185.34C215.038 183.35 213.647 181.958 211.51 181.958H206.769V192.752H208.662V188.722H210.54L212.935 192.752H215.119ZM211.252 187.056H208.662V183.625H211.252C212.32 183.625 213.096 184.305 213.096 185.34C213.096 186.376 212.32 187.056 211.252 187.056ZM221.239 192.752V183.625H224.508V181.958H216.076V183.625H219.345V192.752H221.239ZM234.152 192.946C236.336 192.946 237.663 191.813 238.489 190.519L236.871 189.693C236.353 190.6 235.317 191.263 234.152 191.263C232.016 191.263 230.43 189.628 230.43 187.363C230.43 185.098 232.016 183.463 234.152 183.463C235.317 183.463 236.353 184.143 236.871 185.033L238.489 184.208C237.68 182.913 236.336 181.78 234.152 181.78C230.964 181.78 228.488 184.046 228.488 187.363C228.488 190.68 230.964 192.946 234.152 192.946ZM245.037 192.946C248.273 192.946 250.555 190.583 250.555 187.363C250.555 184.143 248.273 181.78 245.037 181.78C241.8 181.78 239.519 184.143 239.519 187.363C239.519 190.583 241.8 192.946 245.037 192.946ZM245.037 191.263C242.852 191.263 241.461 189.58 241.461 187.363C241.461 185.13 242.852 183.463 245.037 183.463C247.205 183.463 248.613 185.13 248.613 187.363C248.613 189.58 247.205 191.263 245.037 191.263ZM261.731 192.752V181.958H259.838V189.451L254.319 181.958H252.378V192.752H254.271V185.049L259.902 192.752H261.731ZM268.491 192.752V183.625H271.759V181.958H263.328V183.625H266.597V192.752H268.491ZM281.714 192.752L279.076 188.512C280.371 188.301 281.633 187.266 281.633 185.34C281.633 183.35 280.242 181.958 278.105 181.958H273.364V192.752H275.257V188.722H277.134L279.53 192.752H281.714ZM277.846 187.056H275.257V183.625H277.846C278.915 183.625 279.691 184.305 279.691 185.34C279.691 186.376 278.915 187.056 277.846 187.056ZM293.235 192.752L288.995 181.958H286.632L282.392 192.752H284.545L285.338 190.68H290.29L291.082 192.752H293.235ZM289.755 189.013H285.872L287.814 183.868L289.755 189.013ZM299.023 192.946C301.207 192.946 302.534 191.813 303.36 190.519L301.741 189.693C301.224 190.6 300.188 191.263 299.023 191.263C296.887 191.263 295.301 189.628 295.301 187.363C295.301 185.098 296.887 183.463 299.023 183.463C300.188 183.463 301.224 184.143 301.741 185.033L303.36 184.208C302.551 182.913 301.207 181.78 299.023 181.78C295.835 181.78 293.359 184.046 293.359 187.363C293.359 190.68 295.835 192.946 299.023 192.946ZM309.341 192.752V183.625H312.61V181.958H304.179V183.625H307.448V192.752H309.341ZM317.825 192.946C320.738 192.946 322 191.409 322 189.612C322 185.583 315.721 186.829 315.721 184.822C315.721 184.013 316.433 183.48 317.55 183.48C318.683 183.48 319.832 183.868 320.673 184.709L321.758 183.301C320.754 182.33 319.395 181.796 317.712 181.796C315.349 181.796 313.779 183.172 313.779 184.952C313.779 188.933 320.074 187.525 320.074 189.791C320.074 190.503 319.459 191.263 317.906 191.263C316.401 191.263 315.236 190.567 314.491 189.774L313.44 191.231C314.394 192.25 315.835 192.946 317.825 192.946Z" fill="#D9E1EF"/>
<path d="M175.266 149.72H172.803V171.297H175.266V149.72Z" fill="white"/>
<path d="M183.192 160.489C183.192 154.445 188.262 149.325 194.225 149.325C200.221 149.325 205.219 154.406 205.219 160.489C205.219 166.572 200.187 171.653 194.225 171.653C188.297 171.688 183.192 166.572 183.192 160.489ZM202.756 160.489C202.756 155.696 198.866 151.616 194.225 151.616C189.584 151.616 185.658 155.696 185.658 160.489C185.658 165.321 189.584 169.397 194.225 169.397C198.866 169.397 202.756 165.321 202.756 160.489Z" fill="white"/>
<path d="M217.857 152.046H210.611V149.72H227.535V152.046H220.285V171.297H217.822L217.857 152.046Z" fill="white"/>
<path d="M240.252 152.726L232.076 171.297H229.399L238.36 150.937C238.681 150.185 239.432 149.72 240.217 149.72C241.037 149.72 241.752 150.185 242.074 150.937L251.035 171.297H248.358L240.252 152.726Z" fill="white"/>
<g filter="url(#filter0_d)">
<path d="M126.047 139.617C127.456 138.794 129.192 138.794 130.601 139.617L154.371 153.496C155.78 154.319 156.648 155.84 156.648 157.485V185.244C156.648 186.889 155.78 188.41 154.371 189.233L130.601 203.112C129.192 203.935 127.456 203.935 126.047 203.112L102.277 189.233C100.868 188.41 100 186.889 100 185.244V157.485C100 155.84 100.868 154.319 102.277 153.496L126.047 139.617Z" fill="url(#paint1_linear)"/>
</g>
<path fill-rule="evenodd" clip-rule="evenodd" d="M142.891 161.467L131.124 154.69C129.739 153.892 128.211 153.682 126.952 154.4L126.944 154.404L114.244 161.766C114.125 161.835 114.022 161.921 113.937 162.018C112.921 162.784 112.444 164.079 112.444 165.502C112.444 167.071 112.989 168.727 113.814 170.148C114.639 171.569 115.81 172.869 117.183 173.656L117.185 173.657L119.518 175.003L113.754 178.345C112.611 179.007 112.615 180.659 113.762 181.316L125.488 188.039L125.489 188.04C126.742 188.761 128.097 189.002 129.277 188.508C129.417 188.484 129.556 188.436 129.686 188.36L129.689 188.359L142.386 180.998L142.389 180.997C143.629 180.273 144.203 178.86 144.203 177.281V177.209C144.203 175.631 143.654 173.962 142.825 172.529C141.997 171.096 140.823 169.782 139.45 168.985L137.238 167.716L142.895 164.437C144.037 163.775 144.035 162.126 142.891 161.467ZM134.789 169.136L133.378 169.954C131.484 171.052 129.147 171.055 127.249 169.962L117.201 164.175C116.497 163.769 116.002 163.733 115.695 163.804L115.493 163.92L115.492 163.921C115.252 164.062 114.894 164.483 114.894 165.502C114.894 166.537 115.268 167.771 115.933 168.918C116.599 170.064 117.49 171.008 118.403 171.531L118.407 171.533L126.75 176.347C128.119 177.142 129.298 178.449 130.131 179.882C130.944 181.283 131.49 182.914 131.503 184.475L141.154 178.88L141.155 178.88C141.392 178.741 141.753 178.322 141.753 177.281V177.209C141.753 176.165 141.376 174.917 140.704 173.755C140.033 172.595 139.137 171.638 138.222 171.106L138.22 171.104L134.789 169.136ZM118.53 162.113L128.167 156.527C128.422 156.383 128.984 156.285 129.901 156.813L140.566 162.955L132.149 167.834C131.013 168.493 129.611 168.495 128.472 167.839L118.53 162.113ZM116.086 179.825L121.967 176.416L125.52 178.466L125.521 178.467C126.439 179 127.34 179.956 128.012 181.113C128.684 182.271 129.06 183.515 129.053 184.563L129.053 184.571V184.643C129.053 185.408 128.858 185.837 128.66 186.066L128.426 186.202C128.172 186.345 127.629 186.445 126.711 185.916L116.086 179.825Z" fill="white"/>
<path d="M172.632 215H174.17V211.996H177.128V210.728H174.17V208.995H177.447V207.727H172.632V215ZM178.853 215H180.366V209.545H178.853V215ZM179.613 208.842C180.064 208.842 180.434 208.498 180.434 208.075C180.434 207.656 180.064 207.312 179.613 207.312C179.166 207.312 178.796 207.656 178.796 208.075C178.796 208.498 179.166 208.842 179.613 208.842ZM181.978 215H183.491V211.914C183.491 211.243 183.981 210.781 184.648 210.781C184.858 210.781 185.146 210.817 185.288 210.863V209.521C185.153 209.489 184.964 209.467 184.812 209.467C184.201 209.467 183.7 209.822 183.501 210.497H183.445V209.545H181.978V215ZM191.008 211.101C190.873 210.096 190.063 209.474 188.686 209.474C187.29 209.474 186.37 210.121 186.374 211.172C186.37 211.989 186.885 212.518 187.951 212.731L188.895 212.919C189.371 213.015 189.588 213.189 189.595 213.462C189.588 213.786 189.236 214.016 188.707 214.016C188.167 214.016 187.808 213.786 187.716 213.342L186.228 213.42C186.37 214.464 187.258 215.107 188.703 215.107C190.117 215.107 191.129 214.386 191.132 213.31C191.129 212.521 190.614 212.049 189.556 211.832L188.568 211.634C188.061 211.523 187.872 211.349 187.876 211.087C187.872 210.76 188.242 210.547 188.71 210.547C189.236 210.547 189.549 210.835 189.623 211.186L191.008 211.101ZM195.386 209.545H194.36V208.239H192.847V209.545H192.101V210.682H192.847V213.523C192.84 214.592 193.568 215.121 194.665 215.075C195.056 215.06 195.333 214.982 195.486 214.933L195.248 213.807C195.173 213.821 195.013 213.857 194.871 213.857C194.569 213.857 194.36 213.743 194.36 213.324V210.682H195.386V209.545ZM199.515 215H201.052V212.642H202.345C204.017 212.642 204.99 211.644 204.99 210.192C204.99 208.746 204.035 207.727 202.384 207.727H199.515V215ZM201.052 211.41V208.984H202.089C202.977 208.984 203.407 209.467 203.407 210.192C203.407 210.913 202.977 211.41 202.096 211.41H201.052ZM207.77 215.103C208.576 215.103 209.098 214.751 209.364 214.244H209.407V215H210.841V211.321C210.841 210.021 209.741 209.474 208.526 209.474C207.219 209.474 206.36 210.099 206.15 211.094L207.549 211.207C207.652 210.845 207.976 210.579 208.519 210.579C209.034 210.579 209.329 210.838 209.329 211.286V211.307C209.329 211.658 208.956 211.705 208.008 211.797C206.928 211.896 205.959 212.259 205.959 213.477C205.959 214.556 206.729 215.103 207.77 215.103ZM208.203 214.059C207.738 214.059 207.404 213.842 207.404 213.427C207.404 213.001 207.755 212.791 208.288 212.717C208.618 212.67 209.158 212.592 209.339 212.472V213.05C209.339 213.622 208.867 214.059 208.203 214.059ZM212.415 215H213.928V211.914C213.928 211.243 214.418 210.781 215.085 210.781C215.295 210.781 215.583 210.817 215.725 210.863V209.521C215.59 209.489 215.402 209.467 215.249 209.467C214.638 209.467 214.137 209.822 213.938 210.497H213.882V209.545H212.415V215ZM220.082 209.545H219.055V208.239H217.542V209.545H216.797V210.682H217.542V213.523C217.535 214.592 218.263 215.121 219.361 215.075C219.751 215.06 220.028 214.982 220.181 214.933L219.943 213.807C219.868 213.821 219.709 213.857 219.567 213.857C219.265 213.857 219.055 213.743 219.055 213.324V210.682H220.082V209.545ZM222.401 217.045C223.527 217.045 224.123 216.47 224.432 215.589L226.552 209.553L224.951 209.545L223.811 213.551H223.754L222.625 209.545H221.034L222.99 215.156L222.902 215.387C222.703 215.898 222.323 215.923 221.79 215.76L221.449 216.889C221.666 216.982 222.017 217.045 222.401 217.045ZM237.152 211.364C237.152 208.984 235.675 207.628 233.747 207.628C231.808 207.628 230.341 208.984 230.341 211.364C230.341 213.732 231.808 215.099 233.747 215.099C235.675 215.099 237.152 213.743 237.152 211.364ZM235.594 211.364C235.594 212.905 234.862 213.739 233.747 213.739C232.628 213.739 231.9 212.905 231.9 211.364C231.9 209.822 232.628 208.988 233.747 208.988C234.862 208.988 235.594 209.822 235.594 211.364ZM238.663 215H240.176V211.914C240.176 211.243 240.666 210.781 241.334 210.781C241.543 210.781 241.831 210.817 241.973 210.863V209.521C241.838 209.489 241.65 209.467 241.497 209.467C240.886 209.467 240.385 209.822 240.187 210.497H240.13V209.545H238.663V215ZM244.554 215.103C245.36 215.103 245.882 214.751 246.148 214.244H246.191V215H247.626V211.321C247.626 210.021 246.525 209.474 245.31 209.474C244.004 209.474 243.144 210.099 242.935 211.094L244.334 211.207C244.437 210.845 244.76 210.579 245.303 210.579C245.818 210.579 246.113 210.838 246.113 211.286V211.307C246.113 211.658 245.74 211.705 244.792 211.797C243.712 211.896 242.743 212.259 242.743 213.477C242.743 214.556 243.514 215.103 244.554 215.103ZM244.987 214.059C244.522 214.059 244.188 213.842 244.188 213.427C244.188 213.001 244.54 212.791 245.072 212.717C245.403 212.67 245.943 212.592 246.124 212.472V213.05C246.124 213.622 245.651 214.059 244.987 214.059ZM251.664 215.107C253.116 215.107 254.029 214.254 254.1 213.001H252.672C252.584 213.583 252.2 213.91 251.682 213.91C250.975 213.91 250.517 213.317 250.517 212.273C250.517 211.243 250.979 210.653 251.682 210.653C252.236 210.653 252.591 211.019 252.672 211.562H254.1C254.036 210.302 253.081 209.474 251.657 209.474C250.002 209.474 248.979 210.621 248.979 212.294C248.979 213.952 249.984 215.107 251.664 215.107ZM256.981 207.727H255.469V215H256.981V207.727ZM261.079 215.107C262.428 215.107 263.337 214.45 263.551 213.438L262.151 213.345C261.999 213.761 261.608 213.977 261.104 213.977C260.347 213.977 259.868 213.477 259.868 212.663V212.66H263.582V212.244C263.582 210.391 262.46 209.474 261.019 209.474C259.413 209.474 258.373 210.614 258.373 212.298C258.373 214.027 259.399 215.107 261.079 215.107ZM259.868 211.722C259.9 211.101 260.372 210.604 261.043 210.604C261.7 210.604 262.155 211.072 262.158 211.722H259.868Z" fill="#17E7EB"/>
<mask id="mask0" mask-type="alpha" maskUnits="userSpaceOnUse" x="349" y="0" width="611" height="360">
<rect width="611" height="360" transform="matrix(-1 0 0 1 960 0)" fill="#C4C4C4"/>
</mask>
<g mask="url(#mask0)">
<g style="mix-blend-mode:multiply" filter="url(#filter1_f)">
<path d="M867.774 212.223L974.223 274.269C977.353 276.344 978.946 277.783 980.827 280.47C979.311 282.256 977.832 283.542 975.529 285.02L884.684 337.901C867.823 347.716 846.993 347.73 830.119 337.938L738.113 284.543C736.123 283.122 735.121 282.238 733.604 280.458C735.512 277.656 737.091 276.386 740.175 274.276L846.259 212.223C853.22 208.421 860.813 208.421 867.774 212.223Z" fill="url(#paint2_linear)"/>
<path d="M846.728 213.052C853.397 209.414 860.637 209.414 867.306 213.053L973.72 275.078C976.512 276.931 978 278.229 979.613 280.412C978.329 281.834 977.004 282.94 975.032 284.207L884.205 337.078C867.64 346.721 847.175 346.734 830.598 337.114L738.63 283.742C736.939 282.532 736.008 281.741 734.811 280.395C736.437 278.149 737.901 276.987 740.685 275.081L846.728 213.052Z" stroke="url(#paint3_linear)" stroke-width="1.90498"/>
</g>
<g style="mix-blend-mode:screen" filter="url(#filter2_f)">
<g filter="url(#filter3_b)">
<path d="M875.479 170.292C865.018 176.475 862.698 175.748 857.195 176.321V338.469C861.338 338.469 865.482 337.088 868.935 335.016L984.26 268.031C991.166 263.888 996 256.291 996 248.005V113.343C996 109.2 994.618 105.057 992.547 101.604L875.479 170.292Z" fill="url(#paint4_linear)"/>
</g>
<g filter="url(#filter4_b)">
<path d="M721.843 101.604C719.772 105.057 718.391 109.2 718.391 113.343V248.005C718.391 256.291 722.534 263.888 730.13 268.031L845.456 335.016C848.908 337.088 853.052 338.469 857.195 338.469V176.335C853.585 176.14 850.455 176.14 844.305 173.372L721.843 101.604Z" fill="url(#paint5_linear)"/>
<path d="M856.243 337.492C852.62 337.3 849.012 336.039 845.946 334.2L845.934 334.193L730.609 267.208L730.598 267.201L730.586 267.195C723.314 263.228 719.343 255.964 719.343 248.005V113.343C719.343 109.721 720.456 106.068 722.191 102.911L843.823 174.194L843.868 174.22L843.914 174.241C849.703 176.846 852.935 177.068 856.243 177.239V337.492Z" stroke="url(#paint6_radial)" stroke-opacity="0.3" stroke-width="1.90498"/>
</g>
<g filter="url(#filter5_b)">
<path d="M992.573 101.603C990.501 98.1502 987.739 95.388 984.286 93.3163L868.961 26.331C861.365 22.1875 853.078 22.1875 845.482 26.331L730.157 93.3163C726.704 95.388 723.941 98.1502 721.87 101.603L840.317 171.117C850.733 177.23 863.64 177.231 874.057 171.121L992.573 101.603Z" fill="url(#paint7_linear)"/>
<path d="M983.796 94.133C983.798 94.1341 983.8 94.1351 983.802 94.1362C986.842 95.9612 989.32 98.3392 991.245 101.278L873.576 170.299C863.456 176.235 850.917 176.234 840.799 170.295L723.198 101.278C725.123 98.3393 727.601 95.9613 730.641 94.1363C730.643 94.1352 730.645 94.1341 730.647 94.133L845.949 27.161C853.254 23.1808 861.189 23.1808 868.494 27.1611C868.498 27.1631 868.501 27.1651 868.505 27.1671L983.796 94.133Z" stroke="url(#paint8_radial)" stroke-width="1.90498"/>
</g>
</g>
<g filter="url(#filter6_b)">
<path d="M867.774 188.287L974.223 250.333C977.353 252.408 978.946 253.846 980.827 256.534C979.311 258.319 977.832 259.606 975.529 261.084L870.33 322.321C862.344 326.97 852.477 326.976 844.484 322.338L738.113 260.607C736.123 259.186 735.121 258.302 733.604 256.522C735.512 253.72 737.091 252.45 740.175 250.34L846.259 188.287C853.22 184.485 860.813 184.485 867.774 188.287Z" fill="url(#paint9_linear)"/>
</g>
<circle cx="857.122" cy="182.698" r="65.8592" fill="url(#paint10_radial)"/>
<g filter="url(#filter7_b)">
<path d="M732.082 107.727C730.167 110.918 728.891 114.748 728.891 118.578V243.053C728.891 250.713 732.721 257.735 739.742 261.565L846.344 323.484C849.536 325.399 853.366 326.675 857.196 326.675V176.805C853.859 176.624 850.965 176.624 845.281 174.066L732.082 107.727Z" fill="url(#paint11_linear)"/>
<path d="M856.558 326.025C853.076 325.893 849.606 324.696 846.673 322.936L846.665 322.932L740.063 261.013L740.055 261.009L740.048 261.005C733.243 257.293 729.529 250.494 729.529 243.053V118.578C729.529 115.099 730.624 111.597 732.312 108.601L844.958 174.617L844.988 174.634L845.019 174.648C850.462 177.098 853.43 177.25 856.555 177.411C856.556 177.411 856.557 177.411 856.558 177.411V326.025Z" stroke="url(#paint12_radial)" stroke-opacity="0.65" stroke-width="1.27642"/>
</g>
<g filter="url(#filter8_b)">
<path d="M874.095 171.219C864.426 176.934 862.282 176.263 857.195 176.792V326.675C861.025 326.675 864.855 325.399 868.046 323.484L974.648 261.565C981.032 257.735 985.5 250.713 985.5 243.053V118.578C985.5 114.748 984.223 110.918 982.308 107.727L874.095 171.219Z" fill="url(#paint13_linear)"/>
<path d="M873.772 170.668L873.771 170.669C868.958 173.514 866.064 174.741 863.768 175.332C862.129 175.754 860.802 175.855 859.239 175.975C858.59 176.024 857.899 176.077 857.129 176.157C856.804 176.191 856.557 176.465 856.557 176.792V326.675C856.557 327.028 856.842 327.313 857.195 327.313C861.16 327.313 865.101 325.994 868.371 324.033C868.372 324.032 868.374 324.032 868.375 324.031L974.969 262.117L974.977 262.112C981.531 258.18 986.138 250.962 986.138 243.053V118.578C986.138 114.611 984.818 110.669 982.856 107.398C982.676 107.098 982.287 106.999 981.985 107.176L873.772 170.668Z" stroke="url(#paint14_radial)" stroke-opacity="0.65" stroke-width="1.27642" stroke-linejoin="round"/>
</g>
<g filter="url(#filter9_b)">
<path d="M982.332 107.727C980.417 104.535 977.863 101.981 974.672 100.066L868.07 38.1481C861.048 34.3181 853.388 34.3181 846.366 38.1481L739.765 100.066C736.573 101.981 734.02 104.535 732.105 107.727L840.316 171.233C850.732 177.346 863.639 177.348 874.057 171.237L982.332 107.727Z" fill="url(#paint15_linear)"/>
<path d="M974.234 100.796C974.236 100.797 974.237 100.798 974.239 100.799C977.062 102.494 979.362 104.704 981.146 107.436L873.626 170.503C863.475 176.458 850.897 176.456 840.747 170.499L733.29 107.436C735.074 104.704 737.374 102.494 740.197 100.799C740.199 100.798 740.201 100.797 740.202 100.796L846.784 38.8897C853.545 35.2055 860.891 35.2055 867.652 38.8896L974.234 100.796Z" stroke="url(#paint16_radial)" stroke-opacity="0.65" stroke-width="1.70189"/>
</g>
<g style="mix-blend-mode:screen" filter="url(#filter10_f)">
<g filter="url(#filter11_b)">
<path d="M875.479 170.292C865.018 176.475 862.698 175.748 857.195 176.321V338.469C861.338 338.469 865.482 337.088 868.935 335.016L984.26 268.031C991.166 263.888 996 256.291 996 248.005V113.343C996 109.2 994.618 105.057 992.547 101.604L875.479 170.292Z" fill="url(#paint17_linear)"/>
</g>
<g filter="url(#filter12_b)">
<path d="M721.843 101.604C719.772 105.057 718.391 109.2 718.391 113.343V248.005C718.391 256.291 722.534 263.888 730.13 268.031L845.456 335.016C848.908 337.088 853.052 338.469 857.195 338.469V176.335C853.585 176.14 850.455 176.14 844.305 173.372L721.843 101.604Z" fill="url(#paint18_linear)"/>
<path d="M856.243 337.492C852.62 337.3 849.012 336.039 845.946 334.2L845.934 334.193L730.609 267.208L730.598 267.201L730.586 267.195C723.314 263.228 719.343 255.964 719.343 248.005V113.343C719.343 109.721 720.456 106.068 722.191 102.911L843.823 174.194L843.868 174.22L843.914 174.241C849.703 176.846 852.935 177.068 856.243 177.239V337.492Z" stroke="url(#paint19_radial)" stroke-opacity="0.3" stroke-width="1.90498"/>
</g>
<g filter="url(#filter13_b)">
<path d="M992.573 101.603C990.501 98.1502 987.739 95.388 984.286 93.3163L868.961 26.331C861.365 22.1875 853.078 22.1875 845.482 26.331L730.157 93.3163C726.704 95.388 723.941 98.1502 721.87 101.603L840.317 171.117C850.733 177.23 863.64 177.231 874.057 171.121L992.573 101.603Z" fill="url(#paint20_linear)"/>
<path d="M983.796 94.133C983.798 94.1341 983.8 94.1351 983.802 94.1362C986.842 95.9612 989.32 98.3392 991.245 101.278L873.576 170.299C863.456 176.235 850.917 176.234 840.799 170.295L723.198 101.278C725.123 98.3393 727.601 95.9613 730.641 94.1363C730.643 94.1352 730.645 94.1341 730.647 94.133L845.949 27.161C853.254 23.1808 861.189 23.1808 868.494 27.1611C868.498 27.1631 868.501 27.1651 868.505 27.1671L983.796 94.133Z" stroke="url(#paint21_radial)" stroke-width="1.90498"/>
</g>
</g>
</g>
<defs>
<filter id="filter0_d" x="92" y="133" width="72.6479" height="80.7289" filterUnits="userSpaceOnUse" color-interpolation-filters="sRGB">
<feFlood flood-opacity="0" result="BackgroundImageFix"/>
<feColorMatrix in="SourceAlpha" type="matrix" values="0 0 0 0 0 0 0 0 0 0 0 0 0 0 0 0 0 0 127 0"/>
<feOffset dy="2"/>
<feGaussianBlur stdDeviation="4"/>
<feColorMatrix type="matrix" values="0 0 0 0 0 0 0 0 0 0 0 0 0 0 0 0 0 0 0.25 0"/>
<feBlend mode="normal" in2="BackgroundImageFix" result="effect1_dropShadow"/>
<feBlend mode="normal" in="SourceGraphic" in2="effect1_dropShadow" result="shape"/>
</filter>
<filter id="filter1_f" x="705.982" y="181.749" width="302.468" height="191.145" filterUnits="userSpaceOnUse" color-interpolation-filters="sRGB">
<feFlood flood-opacity="0" result="BackgroundImageFix"/>
<feBlend mode="normal" in="SourceGraphic" in2="BackgroundImageFix" result="shape"/>
<feGaussianBlur stdDeviation="13.8111" result="effect1_foregroundBlur"/>
</filter>
<filter id="filter2_f" x="584.089" y="-111.078" width="546.211" height="583.848" filterUnits="userSpaceOnUse" color-interpolation-filters="sRGB">
<feFlood flood-opacity="0" result="BackgroundImageFix"/>
<feBlend mode="normal" in="SourceGraphic" in2="BackgroundImageFix" result="shape"/>
<feGaussianBlur stdDeviation="67.1506" result="effect1_foregroundBlur"/>
</filter>
<filter id="filter3_b" x="847.67" y="92.0789" width="157.854" height="255.915" filterUnits="userSpaceOnUse" color-interpolation-filters="sRGB">
<feFlood flood-opacity="0" result="BackgroundImageFix"/>
<feGaussianBlur in="BackgroundImage" stdDeviation="4.76245"/>
<feComposite in2="SourceAlpha" operator="in" result="effect1_backgroundBlur"/>
<feBlend mode="normal" in="SourceGraphic" in2="effect1_backgroundBlur" result="shape"/>
</filter>
<filter id="filter4_b" x="708.866" y="92.0789" width="157.854" height="255.915" filterUnits="userSpaceOnUse" color-interpolation-filters="sRGB">
<feFlood flood-opacity="0" result="BackgroundImageFix"/>
<feGaussianBlur in="BackgroundImage" stdDeviation="4.76245"/>
<feComposite in2="SourceAlpha" operator="in" result="effect1_backgroundBlur"/>
<feBlend mode="normal" in="SourceGraphic" in2="effect1_backgroundBlur" result="shape"/>
</filter>
<filter id="filter5_b" x="712.345" y="13.6985" width="289.753" height="171.529" filterUnits="userSpaceOnUse" color-interpolation-filters="sRGB">
<feFlood flood-opacity="0" result="BackgroundImageFix"/>
<feGaussianBlur in="BackgroundImage" stdDeviation="4.76245"/>
<feComposite in2="SourceAlpha" operator="in" result="effect1_backgroundBlur"/>
<feBlend mode="normal" in="SourceGraphic" in2="effect1_backgroundBlur" result="shape"/>
</filter>
<filter id="filter6_b" x="726.936" y="178.768" width="260.558" height="153.712" filterUnits="userSpaceOnUse" color-interpolation-filters="sRGB">
<feFlood flood-opacity="0" result="BackgroundImageFix"/>
<feGaussianBlur in="BackgroundImage" stdDeviation="3.33372"/>
<feComposite in2="SourceAlpha" operator="in" result="effect1_backgroundBlur"/>
<feBlend mode="normal" in="SourceGraphic" in2="effect1_backgroundBlur" result="shape"/>
</filter>
<filter id="filter7_b" x="719.366" y="98.2017" width="147.355" height="237.998" filterUnits="userSpaceOnUse" color-interpolation-filters="sRGB">
<feFlood flood-opacity="0" result="BackgroundImageFix"/>
<feGaussianBlur in="BackgroundImage" stdDeviation="4.76245"/>
<feComposite in2="SourceAlpha" operator="in" result="effect1_backgroundBlur"/>
<feBlend mode="normal" in="SourceGraphic" in2="effect1_backgroundBlur" result="shape"/>
</filter>
<filter id="filter8_b" x="846.394" y="96.925" width="149.908" height="240.551" filterUnits="userSpaceOnUse" color-interpolation-filters="sRGB">
<feFlood flood-opacity="0" result="BackgroundImageFix"/>
<feGaussianBlur in="BackgroundImage" stdDeviation="4.76245"/>
<feComposite in2="SourceAlpha" operator="in" result="effect1_backgroundBlur"/>
<feBlend mode="normal" in="SourceGraphic" in2="effect1_backgroundBlur" result="shape"/>
</filter>
<filter id="filter9_b" x="722.58" y="25.7507" width="269.277" height="159.593" filterUnits="userSpaceOnUse" color-interpolation-filters="sRGB">
<feFlood flood-opacity="0" result="BackgroundImageFix"/>
<feGaussianBlur in="BackgroundImage" stdDeviation="4.76245"/>
<feComposite in2="SourceAlpha" operator="in" result="effect1_backgroundBlur"/>
<feBlend mode="normal" in="SourceGraphic" in2="effect1_backgroundBlur" result="shape"/>
</filter>
<filter id="filter10_f" x="584.089" y="-111.078" width="546.211" height="583.848" filterUnits="userSpaceOnUse" color-interpolation-filters="sRGB">
<feFlood flood-opacity="0" result="BackgroundImageFix"/>
<feBlend mode="normal" in="SourceGraphic" in2="BackgroundImageFix" result="shape"/>
<feGaussianBlur stdDeviation="67.1506" result="effect1_foregroundBlur"/>
</filter>
<filter id="filter11_b" x="847.67" y="92.0789" width="157.854" height="255.915" filterUnits="userSpaceOnUse" color-interpolation-filters="sRGB">
<feFlood flood-opacity="0" result="BackgroundImageFix"/>
<feGaussianBlur in="BackgroundImage" stdDeviation="4.76245"/>
<feComposite in2="SourceAlpha" operator="in" result="effect1_backgroundBlur"/>
<feBlend mode="normal" in="SourceGraphic" in2="effect1_backgroundBlur" result="shape"/>
</filter>
<filter id="filter12_b" x="708.866" y="92.0789" width="157.854" height="255.915" filterUnits="userSpaceOnUse" color-interpolation-filters="sRGB">
<feFlood flood-opacity="0" result="BackgroundImageFix"/>
<feGaussianBlur in="BackgroundImage" stdDeviation="4.76245"/>
<feComposite in2="SourceAlpha" operator="in" result="effect1_backgroundBlur"/>
<feBlend mode="normal" in="SourceGraphic" in2="effect1_backgroundBlur" result="shape"/>
</filter>
<filter id="filter13_b" x="712.345" y="13.6985" width="289.753" height="171.529" filterUnits="userSpaceOnUse" color-interpolation-filters="sRGB">
<feFlood flood-opacity="0" result="BackgroundImageFix"/>
<feGaussianBlur in="BackgroundImage" stdDeviation="4.76245"/>
<feComposite in2="SourceAlpha" operator="in" result="effect1_backgroundBlur"/>
<feBlend mode="normal" in="SourceGraphic" in2="effect1_backgroundBlur" result="shape"/>
</filter>
<radialGradient id="paint0_radial" cx="0" cy="0" r="1" gradientUnits="userSpaceOnUse" gradientTransform="translate(959.286 360.738) rotate(-159.535) scale(1014.32 779.425)">
<stop stop-color="#4495FF"/>
<stop offset="0.494105" stop-color="#284693"/>
<stop offset="1" stop-color="#060323"/>
</radialGradient>
<linearGradient id="paint1_linear" x1="128.324" y1="139" x2="128.324" y2="203.729" gradientUnits="userSpaceOnUse">
<stop stop-color="#8493AD"/>
<stop offset="1" stop-color="#1B2C4F"/>
</linearGradient>
<linearGradient id="paint2_linear" x1="857.215" y1="244" x2="857.215" y2="318.687" gradientUnits="userSpaceOnUse">
<stop stop-color="#114DB4"/>
<stop offset="1" stop-color="#114DB4" stop-opacity="0.52"/>
</linearGradient>
<linearGradient id="paint3_linear" x1="857.215" y1="244" x2="857.215" y2="270.811" gradientUnits="userSpaceOnUse">
<stop stop-color="white"/>
<stop offset="1" stop-color="white" stop-opacity="0"/>
</linearGradient>
<linearGradient id="paint4_linear" x1="876.73" y1="320.57" x2="1006.43" y2="96.0555" gradientUnits="userSpaceOnUse">
<stop offset="0.149823" stop-color="#1253C0" stop-opacity="0"/>
<stop offset="0.634649" stop-color="#256ADD" stop-opacity="0.36"/>
<stop offset="1" stop-color="#73A7FF"/>
</linearGradient>
<linearGradient id="paint5_linear" x1="729.108" y1="121.052" x2="824.85" y2="281.213" gradientUnits="userSpaceOnUse">
<stop stop-color="#00E0CA"/>
<stop offset="1" stop-color="#131F37" stop-opacity="0"/>
</linearGradient>
<radialGradient id="paint6_radial" cx="0" cy="0" r="1" gradientUnits="userSpaceOnUse" gradientTransform="translate(709.462 263.323) rotate(-18.4349) scale(127.287 74.5909)">
<stop stop-color="white"/>
<stop offset="1" stop-color="white" stop-opacity="0"/>
</radialGradient>
<linearGradient id="paint7_linear" x1="881.205" y1="29.8634" x2="802.49" y2="155.091" gradientUnits="userSpaceOnUse">
<stop stop-color="#00E0CA"/>
<stop offset="0.507756" stop-color="#1253C0" stop-opacity="0.4"/>
<stop offset="1" stop-opacity="0.34"/>
</linearGradient>
<radialGradient id="paint8_radial" cx="0" cy="0" r="1" gradientUnits="userSpaceOnUse" gradientTransform="translate(856.159 181.478) rotate(-90) scale(75.5837 64.7492)">
<stop stop-color="white" stop-opacity="0.81"/>
<stop offset="1" stop-color="white" stop-opacity="0"/>
</radialGradient>
<linearGradient id="paint9_linear" x1="855.411" y1="188.587" x2="855.411" y2="315.091" gradientUnits="userSpaceOnUse">
<stop stop-color="#010D22" stop-opacity="0.8"/>
<stop offset="1" stop-color="#4140DF" stop-opacity="0.4"/>
</linearGradient>
<radialGradient id="paint10_radial" cx="0" cy="0" r="1" gradientUnits="userSpaceOnUse" gradientTransform="translate(818.501 142.937) rotate(56.0883) scale(91.7872)">
<stop stop-color="#00E0CA"/>
<stop offset="1" stop-color="#4140DF"/>
</radialGradient>
<linearGradient id="paint11_linear" x1="738.797" y1="125.704" x2="852.921" y2="308.555" gradientUnits="userSpaceOnUse">
<stop stop-color="#3071DD" stop-opacity="0.6"/>
<stop offset="1" stop-color="#131F37" stop-opacity="0"/>
</linearGradient>
<radialGradient id="paint12_radial" cx="0" cy="0" r="1" gradientUnits="userSpaceOnUse" gradientTransform="translate(729.613 255.506) rotate(-19.0778) scale(108.611 63.6465)">
<stop stop-color="white"/>
<stop offset="1" stop-color="white" stop-opacity="0"/>
</radialGradient>
<linearGradient id="paint13_linear" x1="875.252" y1="310.13" x2="995.141" y2="102.598" gradientUnits="userSpaceOnUse">
<stop stop-color="#1253C0" stop-opacity="0"/>
<stop offset="0.634649" stop-color="#256ADD" stop-opacity="0.36"/>
<stop offset="1" stop-color="#73A7FF"/>
</linearGradient>
<radialGradient id="paint14_radial" cx="0" cy="0" r="1" gradientUnits="userSpaceOnUse" gradientTransform="translate(862.367 203.861) rotate(53.1301) scale(61.0055 35.7496)">
<stop stop-color="white"/>
<stop offset="1" stop-color="white" stop-opacity="0"/>
</radialGradient>
<linearGradient id="paint15_linear" x1="879.387" y1="41.4133" x2="806.627" y2="157.168" gradientUnits="userSpaceOnUse">
<stop stop-color="#0958DD" stop-opacity="0.67"/>
<stop offset="0.507756" stop-color="#1253C0" stop-opacity="0.4"/>
<stop offset="1" stop-opacity="0.34"/>
</linearGradient>
<radialGradient id="paint16_radial" cx="0" cy="0" r="1" gradientUnits="userSpaceOnUse" gradientTransform="translate(856.236 181.56) rotate(-90) scale(69.8664 59.8515)">
<stop stop-color="white" stop-opacity="0.81"/>
<stop offset="1" stop-color="white" stop-opacity="0"/>
</radialGradient>
<linearGradient id="paint17_linear" x1="876.73" y1="320.57" x2="1006.43" y2="96.0555" gradientUnits="userSpaceOnUse">
<stop offset="0.149823" stop-color="#1253C0" stop-opacity="0"/>
<stop offset="0.634649" stop-color="#256ADD" stop-opacity="0.36"/>
<stop offset="1" stop-color="#73A7FF"/>
</linearGradient>
<linearGradient id="paint18_linear" x1="729.108" y1="121.052" x2="824.85" y2="281.213" gradientUnits="userSpaceOnUse">
<stop stop-color="#00E0CA"/>
<stop offset="1" stop-color="#131F37" stop-opacity="0"/>
</linearGradient>
<radialGradient id="paint19_radial" cx="0" cy="0" r="1" gradientUnits="userSpaceOnUse" gradientTransform="translate(709.462 263.323) rotate(-18.4349) scale(127.287 74.5909)">
<stop stop-color="white"/>
<stop offset="1" stop-color="white" stop-opacity="0"/>
</radialGradient>
<linearGradient id="paint20_linear" x1="881.205" y1="29.8634" x2="802.49" y2="155.091" gradientUnits="userSpaceOnUse">
<stop stop-color="#00E0CA"/>
<stop offset="0.507756" stop-color="#1253C0" stop-opacity="0.4"/>
<stop offset="1" stop-opacity="0.34"/>
</linearGradient>
<radialGradient id="paint21_radial" cx="0" cy="0" r="1" gradientUnits="userSpaceOnUse" gradientTransform="translate(856.159 181.478) rotate(-90) scale(75.5837 64.7492)">
<stop stop-color="white" stop-opacity="0.81"/>
<stop offset="1" stop-color="white" stop-opacity="0"/>
</radialGradient>
</defs>
</svg>
