<svg width="968" height="368" viewBox="0 0 968 368" fill="none" xmlns="http://www.w3.org/2000/svg">
<g filter="url(#filter0_d)">
<g clip-path="url(#clip0)">
<rect x="4" y="3" width="960" height="360" rx="16" fill="white"/>
<ellipse opacity="0.6" cx="968.142" cy="-41.6091" rx="419.841" ry="354.675" fill="url(#paint0_linear)"/>
<g opacity="0.68" filter="url(#filter1_f)">
<path d="M-13.0862 259.185L-13.1356 329.797C329.346 325.539 526.822 367.228 735.705 458.181L972.012 457.779C972.012 431.761 970.407 333.407 970.407 305.724C466.157 339.259 438.188 357.38 -13.0862 259.185Z" fill="url(#paint1_radial)"/>
</g>
<mask id="mask0" mask-type="alpha" maskUnits="userSpaceOnUse" x="-14" y="260" width="986" height="200">
<path d="M-13.5795 260.27L-13.629 330.881C328.853 326.623 526.328 368.313 735.212 459.265L971.519 458.864C971.519 432.845 969.914 334.492 969.914 306.809C465.663 340.344 437.694 358.464 -13.5795 260.27Z" fill="black"/>
</mask>
<g mask="url(#mask0)">
<path fill-rule="evenodd" clip-rule="evenodd" d="M1169.64 374.405C998.718 425.744 879.117 486.439 818.55 558.806L818.969 559.157C875.197 491.975 982.462 434.808 1134.68 385.843C975.151 440.011 870.053 504.185 822.029 581.16L822.493 581.449C872.583 501.163 984.977 434.737 1156.87 379.062C1161.14 377.678 1165.45 376.3 1169.8 374.929C1171.81 374.325 1173.83 373.722 1175.85 373.121C1190.74 368.698 1206.02 364.345 1221.68 360.06C1237.36 355.991 1253.39 351.983 1269.74 348.036C1285.57 344.437 1301.67 340.889 1318.02 337.39C1332.72 334.447 1347.58 331.539 1362.61 328.665C1376.03 326.282 1389.55 323.923 1403.15 321.587C1417.41 319.337 1431.72 317.108 1446.07 314.901C1458.62 313.149 1471.17 311.409 1483.71 309.682C1496.4 308.12 1509.05 306.567 1521.64 305.023C1534.02 303.692 1546.31 302.366 1558.5 301.046C1571.08 299.881 1583.51 298.717 1595.77 297.556C1604.98 296.836 1614.08 296.114 1623.05 295.391C1636.01 294.575 1648.67 293.75 1660.99 292.921C1744.12 288.868 1809.75 284.275 1847.85 280.213L1847.79 279.669C1814.39 283.23 1759.82 287.2 1690.84 290.856C1755.83 286.233 1809.84 281.53 1847.9 277.258L1847.84 276.715C1804.1 281.624 1739.28 287.102 1660.96 292.375C1659.99 292.422 1659.03 292.469 1658.06 292.515C1733.62 286.185 1798.84 279.887 1847.85 274.194L1847.79 273.651C1795.5 279.725 1724.75 286.487 1642.68 293.244C1641.42 293.302 1640.17 293.36 1638.91 293.418C1718.83 285.645 1790.34 278.081 1847.85 271.24L1847.78 270.696C1787.75 277.838 1712.47 285.767 1628.27 293.899C1625.9 294.005 1623.51 294.11 1621.11 294.215C1704.74 285.019 1782.04 276.212 1847.85 268.23L1847.78 267.687C1779.83 275.929 1699.63 285.05 1612.84 294.572C1609.96 294.696 1607.06 294.818 1604.14 294.94C1632.31 291.506 1660.04 288.132 1687.18 284.832L1687.19 284.83C1743.83 277.94 1797.87 271.367 1847.85 265.221L1847.78 264.678C1797.8 270.824 1743.77 277.397 1687.12 284.287L1687.12 284.288L1687.11 284.288L1687.09 284.291C1657.79 287.855 1627.79 291.504 1597.3 295.223C1594.12 295.353 1590.92 295.482 1587.7 295.61C1677.82 283.619 1765.91 272.396 1847.85 262.211L1847.78 261.669C1764.08 272.073 1673.95 283.56 1581.81 295.843C1578.49 295.973 1575.16 296.102 1571.81 296.229C1664.87 282.875 1758.08 270.473 1847.85 259.202L1847.78 258.659C1756.36 270.138 1661.36 282.79 1566.59 296.427C1563.05 296.56 1559.49 296.691 1555.91 296.822C1651.92 282.111 1750.25 268.537 1847.85 256.193L1847.78 255.65C1748.61 268.193 1648.68 282.006 1551.19 296.992C1547.6 297.121 1544 297.248 1540.37 297.374C1639.24 281.327 1742.55 266.595 1847.85 253.184L1847.78 252.641C1740.97 266.245 1636.2 281.207 1536.05 297.524C1532.38 297.649 1528.7 297.773 1525 297.896C1626.68 280.535 1734.94 264.673 1847.85 250.229L1847.78 249.687C1733.41 264.317 1623.81 280.403 1520.98 298.028C1517.18 298.153 1513.35 298.276 1509.51 298.397C1614.05 279.715 1727.29 262.71 1847.85 247.22L1847.78 246.677C1725.81 262.35 1611.32 279.573 1505.74 298.515C1501.92 298.634 1498.08 298.752 1494.23 298.868C1601.6 278.884 1719.75 260.748 1847.85 244.211L1847.78 243.668C1718.3 260.384 1598.98 278.733 1490.67 298.974C1486.78 299.089 1482.86 299.203 1478.94 299.315C1589.16 278.033 1712.23 258.771 1847.85 241.201L1847.78 240.659C1710.81 258.403 1586.63 277.874 1475.56 299.41C1259.3 305.497 994.28 305.957 776.649 290.556L776.61 291.102C993.152 306.425 1256.61 306.048 1472.27 300.05C1465.16 301.435 1458.1 302.828 1451.1 304.23C1236.46 314.275 983.805 320.124 780.141 312.879L780.122 313.426C982.67 320.631 1233.66 314.887 1447.54 304.944C1440.64 306.332 1433.79 307.729 1426.99 309.134C1214.19 323.15 973.596 334.386 783.632 335.202L783.634 335.749C972.448 334.938 1211.27 323.834 1423.12 309.937C1416.01 311.414 1408.96 312.902 1401.96 314.399C1191.51 332.332 963.301 348.861 787.121 357.58L787.148 358.127C962.138 349.466 1188.46 333.101 1397.72 315.309C1390.78 316.802 1383.9 318.305 1377.08 319.818C1202.08 338.188 1021.27 356.518 871.396 371.711L871.388 371.712L871.382 371.712L870.987 371.752C843.037 374.586 816.164 377.31 790.609 379.905L790.664 380.449C816.34 377.842 843.345 375.104 871.437 372.257C1019.96 357.2 1198.87 339.064 1372.4 320.859C1365.53 322.392 1358.72 323.935 1351.97 325.488C1147.2 351.171 943.37 378.121 794.149 402.285L794.237 402.825C942.164 378.87 1143.76 352.177 1346.74 326.696C1340.01 328.257 1333.33 329.829 1326.71 331.411C1125.35 360.921 933.648 392.983 797.632 424.611L797.756 425.144C932.403 393.834 1121.64 362.098 1320.79 332.833C1314.14 334.437 1307.55 336.052 1301.02 337.677C1103.56 370.959 924.021 408.029 801.114 446.94L801.279 447.462C922.722 409.014 1099.48 372.361 1294.2 339.384C1287.9 340.97 1281.66 342.565 1275.48 344.17C1082.22 381.197 914.666 423.237 804.592 469.327L804.804 469.831C913.282 424.41 1077.63 382.918 1267.4 346.28C1261.32 347.882 1255.29 349.493 1249.32 351.114C1243.74 352.318 1238.2 353.527 1232.69 354.741C1051.75 394.587 902.541 440.239 808.069 491.662L808.33 492.143C902.731 440.758 1051.88 395.12 1232.8 355.276C1235.01 354.791 1237.21 354.307 1239.42 353.823C1233.83 355.368 1228.29 356.922 1222.8 358.485C1219.76 359.221 1216.73 359.959 1213.71 360.7C1035.03 404.506 894.972 455.372 811.544 514.057L811.859 514.504C894.59 456.31 1033.13 405.778 1209.93 362.191C1205.43 363.504 1200.96 364.823 1196.53 366.149L1194.69 366.644C1018.28 414.411 887.402 470.479 815.073 536.401L815.442 536.806C885.329 473.108 1010.03 418.575 1177.85 371.837C1175.1 372.691 1172.36 373.547 1169.64 374.405ZM1475.62 299.956C1479.5 299.847 1483.36 299.736 1487.2 299.623C1480.39 300.901 1473.63 302.187 1466.91 303.479C1462.87 303.674 1458.82 303.867 1454.75 304.059C1461.65 302.683 1468.61 301.315 1475.62 299.956ZM1490.73 299.519C1494.53 299.407 1498.3 299.293 1502.06 299.177C1495.56 300.348 1489.1 301.525 1482.67 302.71C1478.72 302.905 1474.76 303.099 1470.79 303.292C1477.39 302.027 1484.04 300.77 1490.73 299.519ZM1505.8 299.061C1509.57 298.943 1513.32 298.824 1517.05 298.704C1510.87 299.767 1504.72 300.835 1498.59 301.909C1494.68 302.108 1490.76 302.306 1486.82 302.503C1493.11 301.349 1499.44 300.202 1505.8 299.061ZM1521.04 298.574C1524.64 298.456 1528.24 298.336 1531.81 298.215C1525.96 299.171 1520.13 300.132 1514.32 301.097C1510.59 301.292 1506.84 301.486 1503.08 301.679C1509.04 300.639 1515.03 299.604 1521.04 298.574ZM1536.1 298.069C1539.61 297.949 1543.09 297.827 1546.57 297.705C1541.07 298.552 1535.58 299.404 1530.1 300.259C1526.49 300.453 1522.87 300.646 1519.23 300.839C1524.84 299.911 1530.46 298.988 1536.1 298.069ZM1551.24 297.538C1554.67 297.415 1558.08 297.291 1561.47 297.165C1556.37 297.902 1551.26 298.641 1546.16 299.383C1542.64 299.578 1539.1 299.772 1535.55 299.965C1540.77 299.152 1546 298.343 1551.24 297.538ZM1566.64 296.973C1569.78 296.855 1572.91 296.736 1576.02 296.616C1571.33 297.241 1566.65 297.868 1561.96 298.498C1558.76 298.679 1555.55 298.86 1552.33 299.04C1557.1 298.348 1561.87 297.659 1566.64 296.973ZM1581.85 296.389C1584.77 296.275 1587.68 296.159 1590.57 296.043C1586.41 296.551 1582.23 297.061 1578.05 297.571C1575.09 297.744 1572.12 297.916 1569.14 298.087C1573.38 297.52 1577.62 296.953 1581.85 296.389ZM1597.34 295.769C1599.81 295.667 1602.27 295.566 1604.71 295.464C1601.2 295.848 1597.68 296.233 1594.15 296.619C1591.69 296.766 1589.23 296.913 1586.76 297.059C1590.29 296.628 1593.82 296.198 1597.34 295.769ZM1612.89 295.118C1614.53 295.048 1616.17 294.977 1617.81 294.906C1615.2 295.157 1612.58 295.408 1609.95 295.659C1608.44 295.752 1606.93 295.844 1605.42 295.937C1607.91 295.664 1610.4 295.391 1612.89 295.118ZM1577.82 298.398C1579.59 298.206 1581.35 298.014 1583.11 297.823C1581.44 297.921 1579.77 298.019 1578.1 298.117L1572.37 298.816C1574.19 298.677 1576.01 298.538 1577.82 298.398ZM1560.47 299.719C1563.48 299.35 1566.5 298.982 1569.51 298.614C1567.02 298.757 1564.52 298.9 1562.01 299.043C1558.86 299.466 1555.7 299.889 1552.55 300.314C1555.2 300.116 1557.84 299.917 1560.47 299.719ZM1543.39 300.995C1547.24 300.477 1551.08 299.959 1554.92 299.443C1552.03 299.605 1549.13 299.767 1546.22 299.928C1542.25 300.505 1538.28 301.085 1534.31 301.665C1537.35 301.442 1540.37 301.219 1543.39 300.995ZM1526.79 302.216C1531.23 301.563 1535.67 300.912 1540.12 300.263C1536.81 300.444 1533.49 300.624 1530.16 300.804C1525.54 301.525 1520.92 302.248 1516.32 302.975C1519.82 302.722 1523.31 302.469 1526.79 302.216ZM1509.88 303.437C1514.84 302.653 1519.8 301.871 1524.77 301.092C1521.32 301.276 1517.86 301.459 1514.38 301.641C1509.24 302.495 1504.11 303.352 1499 304.213C1502.64 303.955 1506.26 303.696 1509.88 303.437ZM1493.34 304.613C1498.72 303.703 1504.11 302.797 1509.52 301.895C1505.91 302.082 1502.29 302.268 1498.66 302.454C1493.06 303.435 1487.48 304.421 1481.92 305.412C1485.74 305.146 1489.54 304.88 1493.34 304.613ZM1476.84 305.765C1482.6 304.732 1488.4 303.703 1494.21 302.68C1490.4 302.872 1486.57 303.064 1482.73 303.254C1476.71 304.363 1470.72 305.477 1464.75 306.598C1468.79 306.321 1472.82 306.044 1476.84 305.765ZM1460.12 306.914C1466.25 305.756 1472.42 304.604 1478.61 303.457C1474.75 303.648 1470.87 303.837 1466.97 304.024C1460.56 305.257 1454.19 306.497 1447.87 307.744C1451.96 307.468 1456.05 307.192 1460.12 306.914ZM1443.59 308.031C1450.06 306.75 1456.57 305.476 1463.13 304.209C1459.15 304.399 1455.16 304.588 1451.16 304.775C1444.38 306.132 1437.65 307.497 1430.98 308.871C1435.19 308.592 1439.4 308.312 1443.59 308.031ZM1427.07 309.677C1431.2 309.405 1435.32 309.132 1439.42 308.858C1432.68 310.202 1425.97 311.553 1419.32 312.913C1415 313.284 1410.67 313.655 1406.33 314.026C1413.19 312.567 1420.1 311.118 1427.07 309.677ZM1443.66 308.575C1447.65 308.307 1451.63 308.039 1455.6 307.77C1449.23 308.98 1442.89 310.198 1436.58 311.422C1432.42 311.783 1428.25 312.144 1424.06 312.504C1430.55 311.187 1437.08 309.877 1443.66 308.575ZM1460.19 307.458C1464.1 307.192 1467.99 306.925 1471.88 306.657C1465.9 307.733 1459.96 308.814 1454.04 309.901C1449.97 310.257 1445.89 310.613 1441.81 310.968C1447.9 309.792 1454.03 308.622 1460.19 307.458ZM1476.9 306.309C1480.55 306.057 1484.19 305.803 1487.81 305.549C1482.26 306.492 1476.73 307.439 1471.22 308.39C1467.45 308.723 1463.66 309.056 1459.87 309.389C1465.53 308.358 1471.2 307.331 1476.9 306.309ZM1493.4 305.157C1496.81 304.916 1500.21 304.676 1503.6 304.434C1498.52 305.242 1493.46 306.052 1488.4 306.865C1484.9 307.177 1481.39 307.49 1477.87 307.801C1483.03 306.916 1488.21 306.034 1493.4 305.157ZM1509.94 303.981C1513.12 303.754 1516.28 303.526 1519.44 303.298C1514.95 303.96 1510.46 304.624 1505.98 305.291C1502.73 305.584 1499.47 305.876 1496.2 306.169C1500.77 305.437 1505.36 304.708 1509.94 303.981ZM1526.85 302.76C1529.39 302.575 1531.92 302.389 1534.45 302.203C1530.67 302.716 1526.88 303.229 1523.09 303.744C1520.57 303.973 1518.04 304.202 1515.51 304.431C1519.29 303.873 1523.07 303.315 1526.85 302.76ZM1548.87 301.137C1546.15 301.47 1543.42 301.804 1540.69 302.138L1535.51 302.612C1538.16 302.254 1540.8 301.897 1543.45 301.54C1545.26 301.406 1547.07 301.271 1548.87 301.137ZM1560.52 300.264L1560.93 300.233L1559.56 300.381L1560.52 300.264ZM1503.34 306.436C1505.91 306.085 1508.48 305.734 1511.04 305.384C1509.38 305.534 1507.71 305.684 1506.05 305.834C1503.56 306.204 1501.08 306.574 1498.59 306.944L1503.34 306.436ZM1485.7 308.323C1489.37 307.771 1493.04 307.221 1496.71 306.672C1493.97 306.917 1491.22 307.163 1488.47 307.408C1484.7 308.014 1480.94 308.622 1477.19 309.231C1480.03 308.928 1482.86 308.625 1485.7 308.323ZM1467.34 310.28C1471.82 309.547 1476.31 308.817 1480.81 308.09C1477.64 308.371 1474.47 308.652 1471.29 308.933C1466.68 309.727 1462.09 310.525 1457.51 311.325C1460.79 310.977 1464.06 310.628 1467.34 310.28ZM1449.47 312.179C1454.55 311.285 1459.64 310.396 1464.74 309.51C1461.21 309.821 1457.66 310.133 1454.11 310.444C1448.85 311.409 1443.61 312.38 1438.38 313.354C1442.08 312.962 1445.78 312.57 1449.47 312.179ZM1431.55 314.078C1437.13 313.029 1442.73 311.985 1448.35 310.947C1444.46 311.286 1440.57 311.625 1436.66 311.964C1430.83 313.095 1425.04 314.232 1419.28 315.375C1423.37 314.942 1427.46 314.51 1431.55 314.078ZM1413.3 316.006C1419.34 314.801 1425.4 313.603 1431.5 312.411C1427.48 312.759 1423.44 313.108 1419.39 313.455C1413.08 314.745 1406.81 316.042 1400.58 317.347C1404.83 316.9 1409.07 316.452 1413.3 316.006ZM1395.25 317.908C1401.69 316.55 1408.17 315.2 1414.7 313.858C1410.49 314.22 1406.27 314.58 1402.04 314.941C1395.28 316.388 1388.57 317.845 1381.91 319.31C1386.36 318.843 1390.81 318.375 1395.25 317.908ZM1377.17 320.358C1381.47 319.906 1385.78 319.454 1390.08 319.002C1383.67 320.362 1377.31 321.73 1371 323.105C1366.46 323.673 1361.92 324.241 1357.38 324.81C1363.92 323.317 1370.52 321.833 1377.17 320.358ZM1395.33 318.449C1399.39 318.022 1403.45 317.595 1407.5 317.167C1401.6 318.354 1395.73 319.548 1389.89 320.748C1385.62 321.28 1381.35 321.812 1377.08 322.345C1383.12 321.04 1389.21 319.741 1395.33 318.449ZM1413.38 316.547C1417.23 316.141 1421.07 315.735 1424.91 315.33C1419.58 316.339 1414.27 317.353 1408.98 318.371C1404.95 318.873 1400.91 319.375 1396.87 319.878C1402.34 318.762 1407.85 317.652 1413.38 316.547ZM1431.63 314.62C1434.98 314.265 1438.33 313.91 1441.67 313.556C1437 314.384 1432.34 315.215 1427.69 316.049C1424.21 316.482 1420.72 316.914 1417.23 317.347C1422.01 316.434 1426.81 315.525 1431.63 314.62ZM1449.55 312.721C1452.3 312.429 1455.05 312.137 1457.79 311.845C1453.95 312.478 1450.11 313.112 1446.28 313.748C1443.46 314.097 1440.64 314.445 1437.83 314.794C1441.72 314.101 1445.63 313.41 1449.55 312.721ZM1473.25 310.2C1470.69 310.589 1468.12 310.978 1465.56 311.368C1463.57 311.613 1461.58 311.858 1459.59 312.104C1462.2 311.676 1464.8 311.249 1467.41 310.822L1473.25 310.2ZM1445.99 314.36L1446.8 314.235L1446.36 314.29L1445.66 314.406L1445.99 314.36ZM1425.32 317.258C1428.04 316.798 1430.76 316.34 1433.49 315.882C1431.59 316.118 1429.68 316.354 1427.77 316.591C1425.05 317.079 1422.34 317.568 1419.63 318.059C1421.52 317.791 1423.42 317.524 1425.32 317.258ZM1405.97 319.99C1409.94 319.262 1413.92 318.537 1417.91 317.814C1414.96 318.18 1412.02 318.546 1409.07 318.912C1404.96 319.703 1400.87 320.497 1396.79 321.294C1399.85 320.859 1402.91 320.424 1405.97 319.99ZM1386.43 322.771C1391.27 321.815 1396.13 320.863 1401.01 319.914C1397.33 320.372 1393.66 320.829 1389.98 321.288C1384.89 322.333 1379.83 323.382 1374.8 324.437C1378.67 323.881 1382.55 323.325 1386.43 322.771ZM1366.42 325.642C1371.96 324.469 1377.53 323.302 1383.13 322.141C1379.12 322.642 1375.11 323.143 1371.09 323.645C1365.26 324.915 1359.47 326.192 1353.72 327.476C1357.95 326.863 1362.18 326.252 1366.42 325.642ZM1346.65 328.502C1352.76 327.124 1358.91 325.755 1365.11 324.393C1360.76 324.937 1356.41 325.482 1352.07 326.028C1345.61 327.513 1339.2 329.008 1332.85 330.512C1337.45 329.841 1342.04 329.171 1346.65 328.502ZM1326.82 331.949C1331.15 331.314 1335.48 330.68 1339.82 330.048C1333.79 331.421 1327.8 332.802 1321.86 334.19C1317.27 334.953 1312.69 335.717 1308.12 336.483C1314.3 334.963 1320.53 333.451 1326.82 331.949ZM1346.75 329.04C1350.61 328.48 1354.47 327.92 1358.34 327.361C1353.02 328.498 1347.73 329.64 1342.48 330.787C1338.41 331.453 1334.36 332.121 1330.3 332.79C1335.75 331.534 1341.23 330.284 1346.75 329.04ZM1366.51 326.181C1369.83 325.704 1373.14 325.227 1376.46 324.751C1372.08 325.626 1367.71 326.505 1363.36 327.387C1359.89 327.949 1356.42 328.512 1352.95 329.077C1357.45 328.108 1361.97 327.142 1366.51 326.181ZM1386.52 323.311C1388.65 323.007 1390.78 322.703 1392.91 322.399C1389.79 322.977 1386.69 323.557 1383.58 324.137C1381.47 324.475 1379.36 324.812 1377.26 325.15C1380.33 324.535 1383.42 323.922 1386.52 323.311ZM1406.06 320.53L1406.13 320.52L1405.88 320.563L1406.06 320.53ZM1364.12 327.819L1363.46 327.925C1363.04 328.011 1362.61 328.097 1362.19 328.183L1362.51 328.126L1364.12 327.819ZM1341.06 331.969C1344.08 331.34 1347.11 330.714 1350.14 330.088C1347.62 330.5 1345.1 330.912 1342.58 331.325C1339.36 332.027 1336.16 332.73 1332.97 333.436C1335.66 332.946 1338.36 332.457 1341.06 331.969ZM1318.96 336.001C1323.43 334.994 1327.93 333.991 1332.45 332.992C1328.95 333.569 1325.45 334.147 1321.96 334.727C1317.23 335.832 1312.53 336.942 1307.86 338.057C1311.55 337.37 1315.25 336.685 1318.96 336.001ZM1297.33 340.025C1302.76 338.709 1308.23 337.399 1313.74 336.097C1309.53 336.8 1305.33 337.506 1301.13 338.213C1295.35 339.654 1289.61 341.103 1283.92 342.56C1288.38 341.712 1292.85 340.867 1297.33 340.025ZM1275.6 344.705C1279.49 343.959 1283.39 343.216 1287.3 342.475C1282.21 343.727 1277.15 344.986 1272.13 346.25C1267.99 347.123 1263.86 347.998 1259.74 348.876C1264.98 347.478 1270.27 346.088 1275.6 344.705ZM1297.45 340.56C1300.19 340.044 1302.94 339.53 1305.7 339.016C1301.99 339.865 1298.31 340.718 1294.63 341.573C1291.78 342.159 1288.94 342.746 1286.1 343.334C1289.86 342.406 1293.64 341.481 1297.45 340.56ZM1321.39 336.111C1320.23 336.358 1319.07 336.606 1317.91 336.854C1317.45 336.945 1317 337.036 1316.54 337.128L1315.76 337.284C1316.87 337.035 1317.97 336.786 1319.07 336.538L1321.39 336.111ZM1269.62 347.503C1271.44 347.063 1273.27 346.623 1275.11 346.184C1274.15 346.384 1273.2 346.584 1272.25 346.783C1270.67 347.184 1269.08 347.584 1267.5 347.986C1268.21 347.825 1268.91 347.664 1269.62 347.503ZM1246.54 352.831C1250.66 351.749 1254.81 350.672 1258.98 349.599C1255.79 350.279 1252.61 350.962 1249.45 351.646C1245.11 352.822 1240.81 354.004 1236.54 355.191C1239.86 354.402 1243.19 353.615 1246.54 352.831ZM1222.94 359.014C1224.39 358.662 1225.85 358.311 1227.31 357.96C1225.38 358.483 1223.45 359.007 1221.54 359.532C1220.04 359.92 1218.54 360.309 1217.05 360.699C1219.01 360.136 1220.97 359.575 1222.94 359.014Z" fill="url(#paint2_linear)"/>
</g>
<g opacity="0.77">
<path d="M585.329 -7.1159C616.241 189.836 769.916 306.417 987.181 306.417" stroke="url(#paint3_radial)" stroke-width="0.969435" stroke-miterlimit="10"/>
<g filter="url(#filter2_f)">
<ellipse cx="591.688" cy="24.8995" rx="21.0656" ry="2.2492" transform="rotate(77.6133 591.688 24.8995)" fill="url(#paint4_radial)"/>
</g>
<path d="M1012.51 616.462C912.223 455.712 562.602 350.662 -13.0419 276.087" stroke="url(#paint5_linear)" stroke-width="0.547138" stroke-miterlimit="10"/>
<path d="M1016.02 594.138C893.566 447.834 529.445 349.13 -13.0419 279.096" stroke="url(#paint6_linear)" stroke-width="0.547138" stroke-miterlimit="10"/>
<path d="M1019.52 571.76C874.963 440.01 496.234 347.543 -13.0419 282.106" stroke="url(#paint7_linear)" stroke-width="0.547138" stroke-miterlimit="10"/>
<path d="M1023.07 549.437C856.306 432.131 463.023 346.011 -13.0419 285.115" stroke="url(#paint8_linear)" stroke-width="0.547138" stroke-miterlimit="10"/>
<path d="M1026.58 527.059C837.703 424.252 429.866 344.479 -13.0419 288.069" stroke="url(#paint9_linear)" stroke-width="0.547138" stroke-miterlimit="10"/>
<path d="M1030.08 504.736C819.046 416.373 396.655 342.892 -13.0419 291.078" stroke="url(#paint10_linear)" stroke-width="0.547138" stroke-miterlimit="10"/>
<path d="M1033.58 482.358C800.443 408.549 363.499 341.36 -13.0419 294.088" stroke="url(#paint11_linear)" stroke-width="0.547138" stroke-miterlimit="10"/>
<path d="M1037.08 460.035C781.786 400.67 330.287 339.774 -13.0419 297.097" stroke="url(#paint12_linear)" stroke-width="0.547138" stroke-miterlimit="10"/>
<path d="M1040.58 437.712C763.183 392.792 297.076 338.242 -13.0419 300.106" stroke="url(#paint13_linear)" stroke-width="0.547138" stroke-miterlimit="10"/>
<path d="M1044.14 415.334C744.525 384.913 263.919 336.71 -13.0419 303.116" stroke="url(#paint14_linear)" stroke-width="0.547138" stroke-miterlimit="10"/>
<path d="M1047.64 393.01C725.923 377.089 230.708 335.123 -13.0419 306.125" stroke="url(#paint15_linear)" stroke-width="0.547138" stroke-miterlimit="10"/>
<path d="M1051.14 370.632C707.265 369.155 197.497 333.536 -13.0419 309.079" stroke="url(#paint16_linear)" stroke-width="0.547138" stroke-miterlimit="10"/>
<path d="M1054.64 348.309C688.608 361.331 164.34 332.059 -13.0965 312.143" stroke="url(#paint17_linear)" stroke-width="0.547138" stroke-miterlimit="10"/>
<path d="M1058.15 325.986C670.005 353.452 131.129 330.472 -13.0419 315.098" stroke="url(#paint18_linear)" stroke-width="0.547138" stroke-miterlimit="10"/>
</g>
<g clip-path="url(#clip1)">
<circle r="0.549164" transform="matrix(1 -8.74228e-08 -8.74228e-08 -1 462.483 10.9144)" fill="#8493AD"/>
</g>
<g clip-path="url(#clip2)">
<circle r="0.549164" transform="matrix(1 -8.74228e-08 -8.74228e-08 -1 451.5 10.9144)" fill="#8493AD"/>
</g>
<g clip-path="url(#clip3)">
<circle r="0.549164" transform="matrix(1 -8.74228e-08 -8.74228e-08 -1 429.533 10.9145)" fill="#8493AD"/>
</g>
<g clip-path="url(#clip4)">
<circle r="0.549164" transform="matrix(1 -8.74228e-08 -8.74228e-08 -1 418.55 10.9145)" fill="#8493AD"/>
</g>
<g clip-path="url(#clip5)">
<circle r="0.549164" transform="matrix(1 -8.74228e-08 -8.74228e-08 -1 396.584 32.881)" fill="#8493AD"/>
</g>
<ellipse rx="1.09833" ry="1.09833" transform="matrix(1 -8.74228e-08 -8.74228e-08 -1 396.581 21.8977)" fill="#8493AD"/>
<g clip-path="url(#clip6)">
<circle r="0.549164" transform="matrix(1 -8.74228e-08 -8.74228e-08 -1 396.584 10.9145)" fill="#8493AD"/>
</g>
<g clip-path="url(#clip7)">
<circle r="0.549164" transform="matrix(1 -8.74228e-08 -8.74228e-08 -1 374.617 10.9145)" fill="#8493AD"/>
</g>
<g clip-path="url(#clip8)">
<circle r="0.549164" transform="matrix(1 -8.74228e-08 -8.74228e-08 -1 352.65 10.9144)" fill="#8493AD"/>
</g>
<ellipse rx="1.09833" ry="1.09833" transform="matrix(1 -8.74228e-08 -8.74228e-08 -1 341.664 21.8977)" fill="#8493AD"/>
<g clip-path="url(#clip9)">
<circle r="0.549164" transform="matrix(1 -8.74228e-08 -8.74228e-08 -1 341.667 10.9145)" fill="#8493AD"/>
</g>
<g clip-path="url(#clip10)">
<circle r="0.549164" transform="matrix(1 -8.74228e-08 -8.74228e-08 -1 319.701 10.9145)" fill="#8493AD"/>
</g>
<g clip-path="url(#clip11)">
<circle r="0.549164" transform="matrix(1 -8.74228e-08 -8.74228e-08 -1 308.717 10.9145)" fill="#8493AD"/>
</g>
<g clip-path="url(#clip12)">
<circle r="0.549164" transform="matrix(1 -8.74228e-08 -8.74228e-08 -1 286.751 10.9145)" fill="#8493AD"/>
</g>
<ellipse rx="1.09833" ry="1.09833" transform="matrix(1 -8.74228e-08 -8.74228e-08 -1 275.765 21.8977)" fill="#8493AD"/>
<g clip-path="url(#clip13)">
<circle r="0.549164" transform="matrix(1 -8.74228e-08 -8.74228e-08 -1 275.768 10.9145)" fill="#8493AD"/>
</g>
<g clip-path="url(#clip14)">
<circle r="0.549164" transform="matrix(1 -8.74228e-08 -8.74228e-08 -1 264.784 32.881)" fill="#8493AD"/>
</g>
<g clip-path="url(#clip15)">
<circle r="0.549164" transform="matrix(1 -8.74228e-08 -8.74228e-08 -1 264.784 21.8977)" fill="#8493AD"/>
</g>
<g clip-path="url(#clip16)">
<circle r="0.549164" transform="matrix(1 -8.74228e-08 -8.74228e-08 -1 264.784 10.9145)" fill="#8493AD"/>
</g>
<g clip-path="url(#clip17)">
<circle r="0.549164" transform="matrix(1 -8.74228e-08 -8.74228e-08 -1 253.801 10.9145)" fill="#8493AD"/>
</g>
<g clip-path="url(#clip18)">
<circle r="0.549164" transform="matrix(1 -8.74228e-08 -8.74228e-08 -1 242.818 10.9144)" fill="#8493AD"/>
</g>
<g clip-path="url(#clip19)">
<circle r="0.549164" transform="matrix(1 -8.74228e-08 -8.74228e-08 -1 220.851 10.9144)" fill="#8493AD"/>
</g>
<g clip-path="url(#clip20)">
<circle r="0.549164" transform="matrix(1 -8.74228e-08 -8.74228e-08 -1 209.868 10.9144)" fill="#8493AD"/>
</g>
<g clip-path="url(#clip21)">
<circle r="0.549164" transform="matrix(1 -8.74228e-08 -8.74228e-08 -1 198.885 10.9144)" fill="#8493AD"/>
</g>
<circle r="0.549164" transform="matrix(1 -8.74228e-08 -8.74228e-08 -1 176.918 10.9144)" fill="#8493AD"/>
<g clip-path="url(#clip22)">
<circle r="0.549164" transform="matrix(1 -8.74228e-08 -8.74228e-08 -1 165.935 21.8978)" fill="#8493AD"/>
</g>
<ellipse rx="1.09833" ry="1.09833" transform="matrix(1 -8.74228e-08 -8.74228e-08 -1 165.932 10.9144)" fill="#8493AD"/>
<ellipse rx="1.09833" ry="1.09833" transform="matrix(1 -8.74228e-08 -8.74228e-08 -1 154.949 21.8977)" fill="#8493AD"/>
<circle r="0.549164" transform="matrix(1 -8.74228e-08 -8.74228e-08 -1 154.951 10.9144)" fill="#8493AD"/>
<g clip-path="url(#clip23)">
<circle r="0.549164" transform="matrix(1 -8.74228e-08 -8.74228e-08 -1 143.968 43.8643)" fill="#8493AD"/>
</g>
<ellipse rx="1.09833" ry="1.09833" transform="matrix(1 -8.74228e-08 -8.74228e-08 -1 143.965 32.8809)" fill="#8493AD"/>
<g clip-path="url(#clip24)">
<circle r="0.549164" transform="matrix(1 -8.74228e-08 -8.74228e-08 -1 143.968 21.8977)" fill="#8493AD"/>
</g>
<circle r="0.549164" transform="matrix(1 -8.74228e-08 -8.74228e-08 -1 143.968 10.9144)" fill="#8493AD"/>
<g clip-path="url(#clip25)">
<circle r="0.549164" transform="matrix(1 -8.74228e-08 -8.74228e-08 -1 132.985 43.8643)" fill="#8493AD"/>
</g>
<ellipse rx="1.09833" ry="1.09833" transform="matrix(1 -8.74228e-08 -8.74228e-08 -1 132.982 32.8809)" fill="#8493AD"/>
<g clip-path="url(#clip26)">
<circle r="0.549164" transform="matrix(1 -8.74228e-08 -8.74228e-08 -1 132.985 21.8977)" fill="#8493AD"/>
</g>
<circle r="0.549164" transform="matrix(1 -8.74228e-08 -8.74228e-08 -1 132.985 10.9144)" fill="#8493AD"/>
<g clip-path="url(#clip27)">
<circle r="0.549164" transform="matrix(1 -8.74228e-08 -8.74228e-08 -1 122.002 54.8475)" fill="#8493AD"/>
</g>
<g clip-path="url(#clip28)">
<circle r="0.549164" transform="matrix(1 -8.74228e-08 -8.74228e-08 -1 122.002 43.8643)" fill="#8493AD"/>
</g>
<ellipse rx="1.09833" ry="1.09833" transform="matrix(1 -8.74228e-08 -8.74228e-08 -1 121.999 32.8809)" fill="#8493AD"/>
<ellipse rx="1.09833" ry="1.09833" transform="matrix(1 -8.74228e-08 -8.74228e-08 -1 121.999 21.8977)" fill="#8493AD"/>
<circle r="0.549164" transform="matrix(1 -8.74228e-08 -8.74228e-08 -1 122.002 10.9144)" fill="#8493AD"/>
<g clip-path="url(#clip29)">
<circle r="0.549164" transform="matrix(1 -8.74228e-08 -8.74228e-08 -1 111.018 54.8475)" fill="#8493AD"/>
</g>
<g clip-path="url(#clip30)">
<circle r="0.549164" transform="matrix(1 -8.74228e-08 -8.74228e-08 -1 111.018 43.8643)" fill="#8493AD"/>
</g>
<g clip-path="url(#clip31)">
<circle r="0.549164" transform="matrix(1 -8.74228e-08 -8.74228e-08 -1 111.018 32.881)" fill="#8493AD"/>
</g>
<ellipse rx="1.09833" ry="1.09833" transform="matrix(1 -8.74228e-08 -8.74228e-08 -1 111.015 21.8977)" fill="#8493AD"/>
<ellipse rx="1.09833" ry="1.09833" transform="matrix(1 -8.74228e-08 -8.74228e-08 -1 111.015 10.9144)" fill="#8493AD"/>
<g clip-path="url(#clip32)">
<circle r="0.549164" transform="matrix(1 -8.74228e-08 -8.74228e-08 -1 100.035 43.8643)" fill="#8493AD"/>
</g>
<ellipse rx="1.09833" ry="1.09833" transform="matrix(1 -8.74228e-08 -8.74228e-08 -1 100.032 32.8809)" fill="#8493AD"/>
<g clip-path="url(#clip33)">
<circle r="0.549164" transform="matrix(1 -8.74228e-08 -8.74228e-08 -1 100.035 21.8977)" fill="#8493AD"/>
</g>
<ellipse rx="1.09833" ry="1.09833" transform="matrix(1 -8.74228e-08 -8.74228e-08 -1 100.032 10.9144)" fill="#8493AD"/>
<g clip-path="url(#clip34)">
<circle cx="89.0518" cy="76.8141" r="0.549164" transform="rotate(180 89.0518 76.8141)" fill="#8493AD"/>
</g>
<g clip-path="url(#clip35)">
<circle cx="89.0518" cy="65.8308" r="0.549164" transform="rotate(180 89.0518 65.8308)" fill="#8493AD"/>
</g>
<g clip-path="url(#clip36)">
<circle cx="89.0518" cy="54.8475" r="0.549164" transform="rotate(180 89.0518 54.8475)" fill="#8493AD"/>
</g>
<g clip-path="url(#clip37)">
<circle cx="89.0518" cy="43.8643" r="0.549164" transform="rotate(180 89.0518 43.8643)" fill="#8493AD"/>
</g>
<ellipse cx="89.0546" cy="32.8809" rx="1.09833" ry="1.09833" transform="rotate(180 89.0546 32.8809)" fill="#8493AD"/>
<ellipse cx="89.0546" cy="21.8977" rx="1.09833" ry="1.09833" transform="rotate(180 89.0546 21.8977)" fill="#8493AD"/>
<ellipse cx="89.0546" cy="10.9144" rx="1.09833" ry="1.09833" transform="rotate(180 89.0546 10.9144)" fill="#8493AD"/>
<g clip-path="url(#clip38)">
<circle cx="78.0685" cy="98.7807" r="0.549164" transform="rotate(180 78.0685 98.7807)" fill="#8493AD"/>
</g>
<ellipse cx="78.0713" cy="87.7974" rx="1.09833" ry="1.09833" transform="rotate(180 78.0713 87.7974)" fill="#8493AD"/>
<g clip-path="url(#clip39)">
<circle cx="78.0685" cy="76.8141" r="0.549164" transform="rotate(180 78.0685 76.8141)" fill="#8493AD"/>
</g>
<g clip-path="url(#clip40)">
<circle cx="78.0685" cy="65.8308" r="0.549164" transform="rotate(180 78.0685 65.8308)" fill="#8493AD"/>
</g>
<g clip-path="url(#clip41)">
<circle cx="78.0685" cy="54.8475" r="0.549164" transform="rotate(180 78.0685 54.8475)" fill="#8493AD"/>
</g>
<g clip-path="url(#clip42)">
<circle cx="78.0685" cy="43.8643" r="0.549164" transform="rotate(180 78.0685 43.8643)" fill="#8493AD"/>
</g>
<g clip-path="url(#clip43)">
<circle cx="78.0685" cy="32.881" r="0.549164" transform="rotate(180 78.0685 32.881)" fill="#8493AD"/>
</g>
<g clip-path="url(#clip44)">
<circle cx="78.0685" cy="21.8978" r="0.549164" transform="rotate(180 78.0685 21.8978)" fill="#8493AD"/>
</g>
<circle cx="78.0685" cy="10.9145" r="0.549164" transform="rotate(180 78.0685 10.9145)" fill="#8493AD"/>
<g clip-path="url(#clip45)">
<circle cx="67.0852" cy="109.764" r="0.549164" transform="rotate(180 67.0852 109.764)" fill="#8493AD"/>
</g>
<g clip-path="url(#clip46)">
<circle cx="67.0852" cy="98.7806" r="0.549164" transform="rotate(180 67.0852 98.7806)" fill="#8493AD"/>
</g>
<g clip-path="url(#clip47)">
<circle cx="67.0852" cy="87.7973" r="0.549164" transform="rotate(180 67.0852 87.7973)" fill="#8493AD"/>
</g>
<g clip-path="url(#clip48)">
<circle cx="67.0852" cy="76.8141" r="0.549164" transform="rotate(180 67.0852 76.8141)" fill="#8493AD"/>
</g>
<ellipse cx="67.088" cy="65.8308" rx="1.09833" ry="1.09833" transform="rotate(180 67.088 65.8308)" fill="#8493AD"/>
<ellipse cx="67.088" cy="54.8475" rx="1.09833" ry="1.09833" transform="rotate(180 67.088 54.8475)" fill="#8493AD"/>
<g clip-path="url(#clip49)">
<circle cx="67.0852" cy="43.8643" r="0.549164" transform="rotate(180 67.0852 43.8643)" fill="#8493AD"/>
</g>
<g clip-path="url(#clip50)">
<circle cx="67.0852" cy="32.881" r="0.549164" transform="rotate(180 67.0852 32.881)" fill="#8493AD"/>
</g>
<ellipse cx="67.088" cy="21.8977" rx="1.09833" ry="1.09833" transform="rotate(180 67.088 21.8977)" fill="#8493AD"/>
<circle cx="67.0852" cy="10.9144" r="0.549164" transform="rotate(180 67.0852 10.9144)" fill="#8493AD"/>
<g clip-path="url(#clip51)">
<circle cx="56.1019" cy="98.7807" r="0.549164" transform="rotate(180 56.1019 98.7807)" fill="#8493AD"/>
</g>
<ellipse cx="56.1048" cy="87.7974" rx="1.09833" ry="1.09833" transform="rotate(180 56.1048 87.7974)" fill="#8493AD"/>
<g clip-path="url(#clip52)">
<circle cx="56.1019" cy="76.8141" r="0.549164" transform="rotate(180 56.1019 76.8141)" fill="#8493AD"/>
</g>
<ellipse cx="56.1048" cy="65.8308" rx="1.09833" ry="1.09833" transform="rotate(180 56.1048 65.8308)" fill="#8493AD"/>
<g clip-path="url(#clip53)">
<circle cx="56.1019" cy="54.8475" r="0.549164" transform="rotate(180 56.1019 54.8475)" fill="#8493AD"/>
</g>
<g clip-path="url(#clip54)">
<circle cx="56.1019" cy="43.8643" r="0.549164" transform="rotate(180 56.1019 43.8643)" fill="#8493AD"/>
</g>
<ellipse cx="56.1048" cy="32.881" rx="1.09833" ry="1.09833" transform="rotate(180 56.1048 32.881)" fill="#8493AD"/>
<g clip-path="url(#clip55)">
<circle cx="56.1019" cy="21.8978" r="0.549164" transform="rotate(180 56.1019 21.8978)" fill="#8493AD"/>
</g>
<g clip-path="url(#clip56)">
<circle cx="56.1019" cy="10.9145" r="0.549164" transform="rotate(180 56.1019 10.9145)" fill="#8493AD"/>
</g>
<g clip-path="url(#clip57)">
<circle cx="45.1187" cy="109.764" r="0.549164" transform="rotate(180 45.1187 109.764)" fill="#8493AD"/>
</g>
<ellipse cx="45.1215" cy="98.7806" rx="1.09833" ry="1.09833" transform="rotate(180 45.1215 98.7806)" fill="#8493AD"/>
<ellipse cx="45.1215" cy="87.7973" rx="1.09833" ry="1.09833" transform="rotate(180 45.1215 87.7973)" fill="#8493AD"/>
<g clip-path="url(#clip58)">
<circle cx="45.1187" cy="76.8141" r="0.549164" transform="rotate(180 45.1187 76.8141)" fill="#8493AD"/>
</g>
<g clip-path="url(#clip59)">
<circle cx="45.1187" cy="65.8308" r="0.549164" transform="rotate(180 45.1187 65.8308)" fill="#8493AD"/>
</g>
<g clip-path="url(#clip60)">
<circle cx="45.1187" cy="54.8475" r="0.549164" transform="rotate(180 45.1187 54.8475)" fill="#8493AD"/>
</g>
<g clip-path="url(#clip61)">
<circle cx="45.1187" cy="43.8643" r="0.549164" transform="rotate(180 45.1187 43.8643)" fill="#8493AD"/>
</g>
<ellipse cx="45.1215" cy="32.8809" rx="1.09833" ry="1.09833" transform="rotate(180 45.1215 32.8809)" fill="#8493AD"/>
<g clip-path="url(#clip62)">
<circle cx="45.1187" cy="21.8977" r="0.549164" transform="rotate(180 45.1187 21.8977)" fill="#8493AD"/>
</g>
<g clip-path="url(#clip63)">
<circle cx="45.1187" cy="10.9144" r="0.549164" transform="rotate(180 45.1187 10.9144)" fill="#8493AD"/>
</g>
<g clip-path="url(#clip64)">
<circle cx="34.1354" cy="109.764" r="0.549164" transform="rotate(180 34.1354 109.764)" fill="#8493AD"/>
</g>
<g clip-path="url(#clip65)">
<circle cx="34.1354" cy="98.7806" r="0.549164" transform="rotate(180 34.1354 98.7806)" fill="#8493AD"/>
</g>
<g clip-path="url(#clip66)">
<circle cx="34.1354" cy="87.7973" r="0.549164" transform="rotate(180 34.1354 87.7973)" fill="#8493AD"/>
</g>
<ellipse cx="34.1382" cy="76.814" rx="1.09833" ry="1.09833" transform="rotate(180 34.1382 76.814)" fill="#8493AD"/>
<ellipse cx="34.1382" cy="65.8308" rx="1.09833" ry="1.09833" transform="rotate(180 34.1382 65.8308)" fill="#8493AD"/>
<g clip-path="url(#clip67)">
<circle cx="34.1354" cy="54.8475" r="0.549164" transform="rotate(180 34.1354 54.8475)" fill="#8493AD"/>
</g>
<g clip-path="url(#clip68)">
<circle cx="34.1354" cy="43.8643" r="0.549164" transform="rotate(180 34.1354 43.8643)" fill="#8493AD"/>
</g>
<ellipse cx="34.1382" cy="32.8809" rx="1.09833" ry="1.09833" transform="rotate(180 34.1382 32.8809)" fill="#8493AD"/>
<g clip-path="url(#clip69)">
<circle cx="34.1354" cy="21.8977" r="0.549164" transform="rotate(180 34.1354 21.8977)" fill="#8493AD"/>
</g>
<g clip-path="url(#clip70)">
<circle cx="34.1354" cy="10.9144" r="0.549164" transform="rotate(180 34.1354 10.9144)" fill="#8493AD"/>
</g>
<g clip-path="url(#clip71)">
<circle cx="23.1521" cy="98.7807" r="0.549164" transform="rotate(180 23.1521 98.7807)" fill="#8493AD"/>
</g>
<g clip-path="url(#clip72)">
<circle cx="23.1521" cy="87.7974" r="0.549164" transform="rotate(180 23.1521 87.7974)" fill="#8493AD"/>
</g>
<g clip-path="url(#clip73)">
<circle cx="23.1521" cy="76.8141" r="0.549164" transform="rotate(180 23.1521 76.8141)" fill="#8493AD"/>
</g>
<g clip-path="url(#clip74)">
<circle cx="23.1521" cy="65.8308" r="0.549164" transform="rotate(180 23.1521 65.8308)" fill="#8493AD"/>
</g>
<ellipse cx="23.1549" cy="54.8475" rx="1.09833" ry="1.09833" transform="rotate(180 23.1549 54.8475)" fill="#8493AD"/>
<g clip-path="url(#clip75)">
<circle cx="23.1521" cy="43.8643" r="0.549164" transform="rotate(180 23.1521 43.8643)" fill="#8493AD"/>
</g>
<g clip-path="url(#clip76)">
<circle cx="23.1521" cy="32.881" r="0.549164" transform="rotate(180 23.1521 32.881)" fill="#8493AD"/>
</g>
<ellipse cx="23.1549" cy="21.8977" rx="1.09833" ry="1.09833" transform="rotate(180 23.1549 21.8977)" fill="#8493AD"/>
<ellipse cx="23.1549" cy="10.9145" rx="1.09833" ry="1.09833" transform="rotate(180 23.1549 10.9145)" fill="#8493AD"/>
<g clip-path="url(#clip77)">
<circle cx="12.1688" cy="120.747" r="0.549164" transform="rotate(180 12.1688 120.747)" fill="#8493AD"/>
</g>
<g clip-path="url(#clip78)">
<circle cx="12.1688" cy="109.764" r="0.549164" transform="rotate(180 12.1688 109.764)" fill="#8493AD"/>
</g>
<g clip-path="url(#clip79)">
<circle cx="12.1688" cy="98.7806" r="0.549164" transform="rotate(180 12.1688 98.7806)" fill="#8493AD"/>
</g>
<g clip-path="url(#clip80)">
<circle cx="12.1688" cy="87.7973" r="0.549164" transform="rotate(180 12.1688 87.7973)" fill="#8493AD"/>
</g>
<ellipse cx="12.1717" cy="76.814" rx="1.09833" ry="1.09833" transform="rotate(180 12.1717 76.814)" fill="#8493AD"/>
<ellipse cx="12.1717" cy="65.8307" rx="1.09833" ry="1.09833" transform="rotate(180 12.1717 65.8307)" fill="#8493AD"/>
<g clip-path="url(#clip81)">
<circle cx="12.1688" cy="54.8475" r="0.549164" transform="rotate(180 12.1688 54.8475)" fill="#8493AD"/>
</g>
<g clip-path="url(#clip82)">
<circle cx="12.1688" cy="43.8642" r="0.549164" transform="rotate(180 12.1688 43.8642)" fill="#8493AD"/>
</g>
<ellipse cx="12.1717" cy="32.8809" rx="1.09833" ry="1.09833" transform="rotate(180 12.1717 32.8809)" fill="#8493AD"/>
<g clip-path="url(#clip83)">
<circle cx="12.1688" cy="21.8977" r="0.549164" transform="rotate(180 12.1688 21.8977)" fill="#8493AD"/>
</g>
<g clip-path="url(#clip84)">
<circle cx="12.1688" cy="10.9144" r="0.549164" transform="rotate(180 12.1688 10.9144)" fill="#8493AD"/>
</g>
<path d="M416.337 293.503C423.416 293.503 428.407 288.335 428.407 281.291C428.407 274.247 423.416 269.08 416.337 269.08C409.258 269.08 404.267 274.247 404.267 281.291C404.267 288.335 409.258 293.503 416.337 293.503ZM416.337 289.821C411.558 289.821 408.514 286.14 408.514 281.291C408.514 276.406 411.558 272.761 416.337 272.761C421.08 272.761 424.159 276.406 424.159 281.291C424.159 286.14 421.08 289.821 416.337 289.821Z" fill="#0FC1B7"/>
<path d="M451.366 293.078L445.597 283.804C448.428 283.344 451.189 281.079 451.189 276.867C451.189 272.513 448.145 269.469 443.473 269.469H433.102V293.078H437.243V284.264H441.349L446.588 293.078H451.366ZM442.907 280.619H437.243V273.115H442.907C445.243 273.115 446.942 274.601 446.942 276.867C446.942 279.132 445.243 280.619 442.907 280.619Z" fill="#0FC1B7"/>
<path d="M477.273 293.078L468 269.469H462.832L453.558 293.078H458.266L460 288.547H470.831L472.566 293.078H477.273ZM469.663 284.901H461.168L465.416 273.646L469.663 284.901Z" fill="#0FC1B7"/>
<path d="M490.642 293.503C495.421 293.503 498.323 291.025 500.128 288.193L496.589 286.388C495.456 288.37 493.191 289.821 490.642 289.821C485.97 289.821 482.501 286.247 482.501 281.291C482.501 276.336 485.97 272.761 490.642 272.761C493.191 272.761 495.456 274.247 496.589 276.194L500.128 274.389C498.359 271.557 495.421 269.08 490.642 269.08C483.669 269.08 478.254 274.035 478.254 281.291C478.254 288.547 483.669 293.503 490.642 293.503Z" fill="#0FC1B7"/>
<path d="M518.698 293.078V289.432H508.292V269.469H504.151V293.078H518.698Z" fill="#0FC1B7"/>
<path d="M539.32 293.078V289.432H527.285V282.884H539.072V279.238H527.285V273.115H539.32V269.469H523.144V293.078H539.32Z" fill="#0FC1B7"/>
<path d="M552.351 293.503C558.722 293.503 561.483 290.14 561.483 286.211C561.483 277.398 547.75 280.123 547.75 275.734C547.75 273.964 549.307 272.796 551.749 272.796C554.227 272.796 556.74 273.646 558.581 275.486L560.952 272.407C558.758 270.283 555.784 269.115 552.103 269.115C546.935 269.115 543.502 272.124 543.502 276.017C543.502 284.724 557.271 281.645 557.271 286.6C557.271 288.158 555.926 289.821 552.528 289.821C549.236 289.821 546.688 288.299 545.059 286.565L542.759 289.751C544.847 291.981 547.997 293.503 552.351 293.503Z" fill="#0FC1B7"/>
<path d="M407.35 203.459H402.215V248.456H407.35V203.459Z" fill="#131F37"/>
<path d="M423.883 225.921C423.883 213.312 434.456 202.634 446.89 202.634C459.396 202.634 469.818 213.233 469.818 225.921C469.818 238.609 459.324 249.207 446.89 249.207C434.528 249.28 423.883 238.609 423.883 225.921ZM464.683 225.921C464.683 215.922 456.569 207.413 446.89 207.413C437.211 207.413 429.025 215.922 429.025 225.921C429.025 235.999 437.211 244.501 446.89 244.501C456.569 244.501 464.683 235.999 464.683 225.921Z" fill="#131F37"/>
<path d="M496.171 208.31H481.061V203.459H516.351V208.31H501.234V248.456H496.099L496.171 208.31Z" fill="#131F37"/>
<path d="M543.298 209.727L526.248 248.456H520.666L539.353 205.996C540.024 204.428 541.589 203.459 543.226 203.459C544.935 203.459 546.428 204.428 547.099 205.996L565.786 248.456H560.204L543.298 209.727Z" fill="#131F37"/>
<g filter="url(#filter3_d)">
<path d="M466.935 51.0442C477.425 44.6869 490.579 44.6869 501.069 51.0442L526.021 66.1655C535.869 72.1338 541.884 82.8128 541.884 94.3283V127.386C541.884 138.902 535.869 149.581 526.021 155.549L501.069 170.67C490.579 177.028 477.425 177.028 466.935 170.67L441.983 155.549C432.135 149.581 426.119 138.902 426.119 127.386V94.3283C426.119 82.8128 432.135 72.1337 441.983 66.1655L466.935 51.0442Z" fill="url(#paint19_linear)"/>
</g>
<path fill-rule="evenodd" clip-rule="evenodd" d="M519.478 82.5321L489.635 64.4463C486.149 62.3339 481.855 62.3339 478.369 64.4463L448.526 82.5321C445.04 84.6445 442.893 88.5484 442.893 92.7731V128.945C442.893 133.17 445.04 137.073 448.526 139.186L478.369 157.272C481.855 159.384 486.149 159.384 489.635 157.272L519.478 139.186C522.964 137.073 525.111 133.17 525.111 128.945V92.7731C525.111 88.5484 522.964 84.6445 519.478 82.5321ZM492.885 58.5381C487.388 55.207 480.616 55.207 475.119 58.5381L445.276 76.6239C439.779 79.9549 436.393 86.111 436.393 92.7731V128.945C436.393 135.607 439.779 141.763 445.276 145.094L475.119 163.18C480.616 166.511 487.388 166.511 492.885 163.18L522.728 145.094C528.225 141.763 531.611 135.607 531.611 128.945V92.7731C531.611 86.111 528.225 79.9549 522.728 76.6239L492.885 58.5381Z" fill="white"/>
<path fill-rule="evenodd" clip-rule="evenodd" d="M455.614 70.3586L459.893 67.765C465.339 69.3328 469.702 72.6546 473.155 76.9812C473.453 70.7157 475.554 64.4664 480.094 59.1237L483.43 62.2466C477.64 69.0597 476.519 77.7114 478.466 85.7769C480.725 90.696 482.33 96.1723 483.428 101.702C484.093 97.8732 485.116 94.7378 486.4 92.1085C488.448 87.9152 491.088 85.1621 493.688 83.0008C488.585 75.9762 485.94 66.856 488.454 57.0562L492.089 58.0834C492.303 58.1986 492.516 58.3187 492.728 58.4437C490.704 66.5518 492.868 74.1815 497.296 80.2306C499.281 78.7666 500.92 77.5517 502.266 75.899C503.931 73.853 505.113 71.092 504.975 66.1693L505.453 66.1545L509.411 68.553C509.15 73.1149 507.773 76.3554 505.664 78.9467C503.905 81.1076 501.593 82.8081 499.449 84.3858C498.798 84.8645 498.162 85.3319 497.562 85.7975C494.861 87.8941 492.305 90.3029 490.378 94.2488C488.707 97.6695 487.437 102.396 487.116 109.309C487.661 108.574 488.258 107.889 488.903 107.249C492.535 103.644 497.493 101.703 502.44 100.086C502.665 100.012 502.89 99.9393 503.115 99.8668C506.749 90.4508 512.843 82.0895 520.647 75.3622L522.728 76.6239C523.409 77.0363 524.057 77.4918 524.67 77.9865C517.851 83.5769 512.4 90.4168 508.784 98.0743C516.867 95.4734 524.519 92.4026 529.336 84.3248L529.839 84.6556C530.54 86.1757 531.045 87.7989 531.333 89.4836C524.911 98.0081 515.35 100.965 507.197 103.486C506.968 103.556 506.74 103.627 506.513 103.697C504.911 108.436 503.988 113.423 503.84 118.571C504.68 118.653 505.52 118.75 506.362 118.846L506.363 118.847C506.856 118.903 507.35 118.96 507.845 119.014C510.917 113.912 515.603 109.03 520.612 105.457C524.102 102.968 527.922 100.995 531.611 100.084V104.803C528.697 105.528 525.498 107.122 522.351 109.367C518.463 112.139 514.917 115.722 512.389 119.367C517.738 119.547 523.828 118.712 531.611 114.08V119.564C524.203 123.667 518.169 124.608 512.884 124.541C513.111 124.728 513.335 124.911 513.557 125.09C515.343 126.53 517.212 127.873 519.936 128.86C522.637 129.837 526.265 130.494 531.555 130.416C531.42 132.213 531.039 133.959 530.438 135.608C525.575 135.568 521.955 134.906 519.058 133.857C515.814 132.683 513.571 131.057 511.614 129.479C511.251 129.187 510.905 128.902 510.57 128.627L510.569 128.626C509.076 127.399 507.788 126.341 506.13 125.473C504.156 124.44 501.602 123.666 497.694 123.59L497.694 123.588C494.261 123.87 490.925 125.055 487.15 128.28C487.156 141.334 487.235 157.894 487.62 165.287C485.091 165.839 482.473 165.806 479.955 165.188C480.361 157.805 480.429 141.313 480.424 128.295C477.81 126.104 473.867 124.002 468.312 123.574L468.311 123.608C461.919 123.687 458.685 126.068 454.959 128.812L454.957 128.814L454.944 128.823C454.71 128.996 454.474 129.17 454.235 129.344C450.274 132.242 445.806 135.152 437.545 135.551C436.955 133.916 436.581 132.185 436.448 130.405C444.508 130.266 448.555 127.672 452.256 124.975C448.215 124.946 444.112 124.229 440.4 122.992C439.014 122.529 437.67 121.991 436.393 121.38V115.984C437.825 116.753 439.417 117.434 441.121 118.002C446.511 119.799 452.786 120.383 458.215 119.208C461.925 118.406 465.255 118.199 468.227 118.425C468.266 118.424 468.305 118.423 468.344 118.423C468.382 118.422 468.42 118.422 468.457 118.421L468.457 118.443C471.644 118.711 474.416 119.476 476.798 120.532C474.114 117.762 471.721 116.097 469.49 115.062C466.325 113.593 463.252 113.275 459.701 113.197C458.94 113.18 458.163 113.175 457.366 113.169C451.688 113.13 445.024 113.085 436.393 108.833V103.972C444.508 108.236 450.603 108.288 456.459 108.338C457.263 108.345 458.063 108.352 458.862 108.37C462.533 108.451 466.32 108.771 470.377 110.654C473.632 112.164 476.914 114.609 480.409 118.451L480.406 117.236C479.477 111.257 477.42 108.096 474.9 106.205C472.178 104.161 468.586 103.329 464.119 102.686C463.213 102.555 462.276 102.434 461.314 102.31L461.312 102.31C453.482 101.3 444.005 100.077 436.42 91.7408C436.466 90.8818 436.567 90.0334 436.722 89.2006L438.713 87.4095C443.137 92.8276 448.334 95.0917 453.796 96.3292C452.129 94.2656 450.88 91.8673 449.97 89.3311C448.343 84.7909 447.763 79.7358 447.728 75.1374L452.244 72.4005C452.04 77.3128 452.451 82.9289 454.154 87.6788C456.103 93.1162 459.653 97.2539 465.975 98.2172L465.974 98.2254C470.049 98.8705 474.142 99.8671 477.5 102.389C478.136 102.866 478.737 103.391 479.302 103.967C478.237 98.1547 476.615 92.4578 474.293 87.4969L474.276 87.5016L474.253 87.4132C474.003 86.8801 473.744 86.3556 473.477 85.8404C469.442 78.0613 463.656 72.6343 455.472 71.6342L455.614 70.3586ZM497.569 118.403C497.728 118.406 497.885 118.41 498.04 118.415C498.487 118.383 498.931 118.364 499.374 118.356C499.507 113.901 500.167 109.572 501.296 105.412C497.474 106.795 494.299 108.35 491.974 110.658C489.541 113.072 487.856 116.504 487.702 122.072C491.18 119.714 494.425 118.745 497.57 118.454L497.569 118.403Z" fill="white"/>
<path d="M407.683 311.837V307.805H412.345V306.363H407.683V303.941H412.443V302.499H406.045V311.837H407.683ZM416.525 311.837V302.499H414.887V311.837H416.525ZM426.714 311.837L424.432 308.169C425.552 307.987 426.644 307.091 426.644 305.425C426.644 303.703 425.44 302.499 423.592 302.499H419.49V311.837H421.128V308.351H422.752L424.824 311.837H426.714ZM423.368 306.909H421.128V303.941H423.368C424.292 303.941 424.964 304.529 424.964 305.425C424.964 306.321 424.292 306.909 423.368 306.909ZM432.453 312.005C434.973 312.005 436.065 310.675 436.065 309.121C436.065 305.635 430.633 306.713 430.633 304.977C430.633 304.277 431.249 303.815 432.215 303.815C433.195 303.815 434.189 304.151 434.917 304.879L435.855 303.661C434.987 302.821 433.811 302.359 432.355 302.359C430.311 302.359 428.953 303.549 428.953 305.089C428.953 308.533 434.399 307.315 434.399 309.275C434.399 309.891 433.867 310.549 432.523 310.549C431.221 310.549 430.213 309.947 429.569 309.261L428.659 310.521C429.485 311.403 430.731 312.005 432.453 312.005ZM442.28 311.837V303.941H445.108V302.499H437.814V303.941H440.642V311.837H442.28ZM453.69 311.837V308.351H456.154C458.1 308.351 459.206 307.007 459.206 305.425C459.206 303.843 458.114 302.499 456.154 302.499H452.052V311.837H453.69ZM455.93 306.909H453.69V303.941H455.93C456.854 303.941 457.526 304.529 457.526 305.425C457.526 306.321 456.854 306.909 455.93 306.909ZM468.897 311.837L465.229 302.499H463.185L459.517 311.837H461.379L462.065 310.045H466.349L467.035 311.837H468.897ZM465.887 308.603H462.527L464.207 304.151L465.887 308.603ZM478.121 311.837L475.839 308.169C476.959 307.987 478.051 307.091 478.051 305.425C478.051 303.703 476.847 302.499 474.999 302.499H470.897V311.837H472.535V308.351H474.159L476.231 311.837H478.121ZM474.775 306.909H472.535V303.941H474.775C475.699 303.941 476.371 304.529 476.371 305.425C476.371 306.321 475.699 306.909 474.775 306.909ZM484.395 311.837V303.941H487.223V302.499H479.929V303.941H482.757V311.837H484.395ZM493.875 311.837V307.959L497.487 302.499H495.611L493.063 306.503L490.487 302.499H488.611L492.237 307.959V311.837H493.875ZM508.415 312.005C511.215 312.005 513.189 309.961 513.189 307.175C513.189 304.389 511.215 302.345 508.415 302.345C505.615 302.345 503.641 304.389 503.641 307.175C503.641 309.961 505.615 312.005 508.415 312.005ZM508.415 310.549C506.525 310.549 505.321 309.093 505.321 307.175C505.321 305.243 506.525 303.801 508.415 303.801C510.291 303.801 511.509 305.243 511.509 307.175C511.509 309.093 510.291 310.549 508.415 310.549ZM522.97 311.837L520.688 308.169C521.808 307.987 522.9 307.091 522.9 305.425C522.9 303.703 521.696 302.499 519.848 302.499H515.746V311.837H517.384V308.351H519.008L521.08 311.837H522.97ZM519.624 306.909H517.384V303.941H519.624C520.548 303.941 521.22 304.529 521.22 305.425C521.22 306.321 520.548 306.909 519.624 306.909ZM533.917 311.837L530.249 302.499H528.205L524.537 311.837H526.399L527.085 310.045H531.369L532.055 311.837H533.917ZM530.907 308.603H527.547L529.227 304.151L530.907 308.603ZM539.905 312.005C541.795 312.005 542.943 311.025 543.657 309.905L542.257 309.191C541.809 309.975 540.913 310.549 539.905 310.549C538.057 310.549 536.685 309.135 536.685 307.175C536.685 305.215 538.057 303.801 539.905 303.801C540.913 303.801 541.809 304.389 542.257 305.159L543.657 304.445C542.957 303.325 541.795 302.345 539.905 302.345C537.147 302.345 535.005 304.305 535.005 307.175C535.005 310.045 537.147 312.005 539.905 312.005ZM551.702 311.837V310.395H547.586V302.499H545.948V311.837H551.702ZM560.558 311.837V310.395H555.798V307.805H560.46V306.363H555.798V303.941H560.558V302.499H554.16V311.837H560.558Z" fill="#7E8DA7"/>
</g>
<rect x="4.5" y="3.5" width="959" height="359" rx="15.5" stroke="#E4EBFA"/>
</g>
<defs>
<filter id="filter0_d" x="0" y="0" width="968" height="368" filterUnits="userSpaceOnUse" color-interpolation-filters="sRGB">
<feFlood flood-opacity="0" result="BackgroundImageFix"/>
<feColorMatrix in="SourceAlpha" type="matrix" values="0 0 0 0 0 0 0 0 0 0 0 0 0 0 0 0 0 0 127 0"/>
<feOffset dy="1"/>
<feGaussianBlur stdDeviation="2"/>
<feColorMatrix type="matrix" values="0 0 0 0 0.145098 0 0 0 0 0.223529 0 0 0 0 0.372549 0 0 0 0.1 0"/>
<feBlend mode="normal" in2="BackgroundImageFix" result="effect1_dropShadow"/>
<feBlend mode="normal" in="SourceGraphic" in2="effect1_dropShadow" result="shape"/>
</filter>
<filter id="filter1_f" x="-29.1313" y="243.19" width="1017.14" height="230.987" filterUnits="userSpaceOnUse" color-interpolation-filters="sRGB">
<feFlood flood-opacity="0" result="BackgroundImageFix"/>
<feBlend mode="normal" in="SourceGraphic" in2="BackgroundImageFix" result="shape"/>
<feGaussianBlur stdDeviation="7.99784" result="effect1_foregroundBlur"/>
</filter>
<filter id="filter2_f" x="585.209" y="2.86431" width="12.9595" height="44.0703" filterUnits="userSpaceOnUse" color-interpolation-filters="sRGB">
<feFlood flood-opacity="0" result="BackgroundImageFix"/>
<feBlend mode="normal" in="SourceGraphic" in2="BackgroundImageFix" result="shape"/>
<feGaussianBlur stdDeviation="0.727076" result="effect1_foregroundBlur"/>
</filter>
<filter id="filter3_d" x="420.13" y="35.1523" width="141.436" height="154.833" filterUnits="userSpaceOnUse" color-interpolation-filters="sRGB">
<feFlood flood-opacity="0" result="BackgroundImageFix"/>
<feColorMatrix in="SourceAlpha" type="matrix" values="0 0 0 0 0 0 0 0 0 0 0 0 0 0 0 0 0 0 127 0"/>
<feOffset dx="6.84549" dy="1.71137"/>
<feGaussianBlur stdDeviation="6.41765"/>
<feColorMatrix type="matrix" values="0 0 0 0 0.282353 0 0 0 0 0.341176 0 0 0 0 0.462745 0 0 0 0.25 0"/>
<feBlend mode="normal" in2="BackgroundImageFix" result="effect1_dropShadow"/>
<feBlend mode="normal" in="SourceGraphic" in2="effect1_dropShadow" result="shape"/>
</filter>
<linearGradient id="paint0_linear" x1="887.069" y1="72.2143" x2="851.292" y2="298.539" gradientUnits="userSpaceOnUse">
<stop stop-color="#FAFCFD" stop-opacity="0"/>
<stop offset="1" stop-color="#EEF1F8"/>
</linearGradient>
<radialGradient id="paint1_radial" cx="0" cy="0" r="1" gradientUnits="userSpaceOnUse" gradientTransform="translate(398.795 362.107) scale(587.742 119.181)">
<stop stop-color="#C3D0E4"/>
<stop offset="1" stop-color="#C3D0E4" stop-opacity="0"/>
</radialGradient>
<linearGradient id="paint2_linear" x1="976.366" y1="322.914" x2="795.89" y2="440.058" gradientUnits="userSpaceOnUse">
<stop stop-color="#C3D0E4"/>
<stop offset="1" stop-color="#C3D0E4" stop-opacity="0"/>
</linearGradient>
<radialGradient id="paint3_radial" cx="0" cy="0" r="1" gradientUnits="userSpaceOnUse" gradientTransform="translate(594.793 27.5577) rotate(49.6725) scale(335.637 3469.03)">
<stop stop-color="#0FC1B7"/>
<stop offset="1" stop-color="#0FC1B7" stop-opacity="0"/>
</radialGradient>
<radialGradient id="paint4_radial" cx="0" cy="0" r="1" gradientUnits="userSpaceOnUse" gradientTransform="translate(591.688 24.8995) rotate(90) scale(2.2492 19.961)">
<stop offset="0.385443" stop-color="#0FC1B7"/>
<stop offset="1" stop-color="#0FC1B7" stop-opacity="0"/>
</radialGradient>
<linearGradient id="paint5_linear" x1="499.736" y1="276.087" x2="499.736" y2="616.462" gradientUnits="userSpaceOnUse">
<stop stop-color="#C3D0E4" stop-opacity="0.49"/>
<stop offset="0.515625" stop-color="#485776"/>
<stop offset="1" stop-color="#C3D0E4" stop-opacity="0.5"/>
</linearGradient>
<linearGradient id="paint6_linear" x1="501.487" y1="279.096" x2="501.487" y2="594.138" gradientUnits="userSpaceOnUse">
<stop stop-color="#C3D0E4" stop-opacity="0.49"/>
<stop offset="0.515625" stop-color="#485776"/>
<stop offset="1" stop-color="#C3D0E4" stop-opacity="0.5"/>
</linearGradient>
<linearGradient id="paint7_linear" x1="503.238" y1="282.106" x2="503.238" y2="571.76" gradientUnits="userSpaceOnUse">
<stop stop-color="#C3D0E4" stop-opacity="0.49"/>
<stop offset="0.515625" stop-color="#485776"/>
<stop offset="1" stop-color="#C3D0E4" stop-opacity="0.5"/>
</linearGradient>
<linearGradient id="paint8_linear" x1="505.016" y1="285.115" x2="505.016" y2="549.437" gradientUnits="userSpaceOnUse">
<stop stop-color="#C3D0E4" stop-opacity="0.49"/>
<stop offset="0.515625" stop-color="#485776"/>
<stop offset="1" stop-color="#C3D0E4" stop-opacity="0.5"/>
</linearGradient>
<linearGradient id="paint9_linear" x1="506.767" y1="288.069" x2="506.767" y2="527.059" gradientUnits="userSpaceOnUse">
<stop stop-color="#C3D0E4" stop-opacity="0.49"/>
<stop offset="0.515625" stop-color="#485776"/>
<stop offset="1" stop-color="#C3D0E4" stop-opacity="0.5"/>
</linearGradient>
<linearGradient id="paint10_linear" x1="508.517" y1="291.078" x2="508.517" y2="504.736" gradientUnits="userSpaceOnUse">
<stop stop-color="#C3D0E4" stop-opacity="0.49"/>
<stop offset="0.515625" stop-color="#485776"/>
<stop offset="1" stop-color="#C3D0E4" stop-opacity="0.5"/>
</linearGradient>
<linearGradient id="paint11_linear" x1="510.268" y1="294.088" x2="510.268" y2="482.358" gradientUnits="userSpaceOnUse">
<stop stop-color="#C3D0E4" stop-opacity="0.49"/>
<stop offset="0.515625" stop-color="#485776"/>
<stop offset="1" stop-color="#C3D0E4" stop-opacity="0.5"/>
</linearGradient>
<linearGradient id="paint12_linear" x1="512.019" y1="297.097" x2="512.019" y2="460.035" gradientUnits="userSpaceOnUse">
<stop stop-color="#C3D0E4" stop-opacity="0.49"/>
<stop offset="0.515625" stop-color="#485776"/>
<stop offset="1" stop-color="#C3D0E4" stop-opacity="0.5"/>
</linearGradient>
<linearGradient id="paint13_linear" x1="513.77" y1="300.106" x2="513.77" y2="437.712" gradientUnits="userSpaceOnUse">
<stop stop-color="#C3D0E4" stop-opacity="0.49"/>
<stop offset="0.515625" stop-color="#485776"/>
<stop offset="1" stop-color="#C3D0E4" stop-opacity="0.5"/>
</linearGradient>
<linearGradient id="paint14_linear" x1="515.548" y1="303.116" x2="515.548" y2="415.334" gradientUnits="userSpaceOnUse">
<stop stop-color="#C3D0E4" stop-opacity="0.49"/>
<stop offset="0.515625" stop-color="#485776"/>
<stop offset="1" stop-color="#C3D0E4" stop-opacity="0.5"/>
</linearGradient>
<linearGradient id="paint15_linear" x1="517.299" y1="306.125" x2="517.299" y2="393.01" gradientUnits="userSpaceOnUse">
<stop stop-color="#C3D0E4" stop-opacity="0.49"/>
<stop offset="0.515625" stop-color="#485776"/>
<stop offset="1" stop-color="#C3D0E4" stop-opacity="0.5"/>
</linearGradient>
<linearGradient id="paint16_linear" x1="519.05" y1="309.079" x2="519.05" y2="370.632" gradientUnits="userSpaceOnUse">
<stop stop-color="#C3D0E4" stop-opacity="0.49"/>
<stop offset="0.515625" stop-color="#485776"/>
<stop offset="1" stop-color="#C3D0E4" stop-opacity="0.5"/>
</linearGradient>
<linearGradient id="paint17_linear" x1="520.774" y1="312.143" x2="520.774" y2="351.538" gradientUnits="userSpaceOnUse">
<stop stop-color="#C3D0E4" stop-opacity="0.49"/>
<stop offset="0.515625" stop-color="#485776"/>
<stop offset="1" stop-color="#C3D0E4" stop-opacity="0.5"/>
</linearGradient>
<linearGradient id="paint18_linear" x1="522.552" y1="315.098" x2="522.552" y2="338.789" gradientUnits="userSpaceOnUse">
<stop stop-color="#C3D0E4" stop-opacity="0.49"/>
<stop offset="0.515625" stop-color="#485776"/>
<stop offset="1" stop-color="#C3D0E4" stop-opacity="0.5"/>
</linearGradient>
<linearGradient id="paint19_linear" x1="484.002" y1="40.701" x2="484.002" y2="181.014" gradientUnits="userSpaceOnUse">
<stop stop-color="#8493AD"/>
<stop offset="1" stop-color="#1B2840"/>
</linearGradient>
<clipPath id="clip0">
<rect x="4" y="3" width="960" height="360" rx="16" fill="white"/>
</clipPath>
<clipPath id="clip1">
<rect width="2.19665" height="2.19665" fill="white" transform="matrix(1 -8.74228e-08 -8.74228e-08 -1 461.385 12.0128)"/>
</clipPath>
<clipPath id="clip2">
<rect width="2.19665" height="2.19665" fill="white" transform="matrix(1 -8.74228e-08 -8.74228e-08 -1 450.402 12.0128)"/>
</clipPath>
<clipPath id="clip3">
<rect width="2.19665" height="2.19665" fill="white" transform="matrix(1 -8.74228e-08 -8.74228e-08 -1 428.435 12.0128)"/>
</clipPath>
<clipPath id="clip4">
<rect width="2.19665" height="2.19665" fill="white" transform="matrix(1 -8.74228e-08 -8.74228e-08 -1 417.452 12.0128)"/>
</clipPath>
<clipPath id="clip5">
<rect width="2.19665" height="2.19665" fill="white" transform="matrix(1 -8.74228e-08 -8.74228e-08 -1 395.485 33.9793)"/>
</clipPath>
<clipPath id="clip6">
<rect width="2.19665" height="2.19665" fill="white" transform="matrix(1 -8.74228e-08 -8.74228e-08 -1 395.485 12.0128)"/>
</clipPath>
<clipPath id="clip7">
<rect width="2.19665" height="2.19665" fill="white" transform="matrix(1 -8.74228e-08 -8.74228e-08 -1 373.519 12.0128)"/>
</clipPath>
<clipPath id="clip8">
<rect width="2.19665" height="2.19665" fill="white" transform="matrix(1 -8.74228e-08 -8.74228e-08 -1 351.552 12.0128)"/>
</clipPath>
<clipPath id="clip9">
<rect width="2.19665" height="2.19665" fill="white" transform="matrix(1 -8.74228e-08 -8.74228e-08 -1 340.569 12.0128)"/>
</clipPath>
<clipPath id="clip10">
<rect width="2.19665" height="2.19665" fill="white" transform="matrix(1 -8.74228e-08 -8.74228e-08 -1 318.602 12.0128)"/>
</clipPath>
<clipPath id="clip11">
<rect width="2.19665" height="2.19665" fill="white" transform="matrix(1 -8.74228e-08 -8.74228e-08 -1 307.619 12.0128)"/>
</clipPath>
<clipPath id="clip12">
<rect width="2.19665" height="2.19665" fill="white" transform="matrix(1 -8.74228e-08 -8.74228e-08 -1 285.652 12.0128)"/>
</clipPath>
<clipPath id="clip13">
<rect width="2.19665" height="2.19665" fill="white" transform="matrix(1 -8.74228e-08 -8.74228e-08 -1 274.669 12.0128)"/>
</clipPath>
<clipPath id="clip14">
<rect width="2.19665" height="2.19665" fill="white" transform="matrix(1 -8.74228e-08 -8.74228e-08 -1 263.686 33.9793)"/>
</clipPath>
<clipPath id="clip15">
<rect width="2.19665" height="2.19665" fill="white" transform="matrix(1 -8.74228e-08 -8.74228e-08 -1 263.686 22.9961)"/>
</clipPath>
<clipPath id="clip16">
<rect width="2.19665" height="2.19665" fill="white" transform="matrix(1 -8.74228e-08 -8.74228e-08 -1 263.686 12.0128)"/>
</clipPath>
<clipPath id="clip17">
<rect width="2.19665" height="2.19665" fill="white" transform="matrix(1 -8.74228e-08 -8.74228e-08 -1 252.703 12.0128)"/>
</clipPath>
<clipPath id="clip18">
<rect width="2.19665" height="2.19665" fill="white" transform="matrix(1 -8.74228e-08 -8.74228e-08 -1 241.719 12.0128)"/>
</clipPath>
<clipPath id="clip19">
<rect width="2.19665" height="2.19665" fill="white" transform="matrix(1 -8.74228e-08 -8.74228e-08 -1 219.753 12.0128)"/>
</clipPath>
<clipPath id="clip20">
<rect width="2.19665" height="2.19665" fill="white" transform="matrix(1 -8.74228e-08 -8.74228e-08 -1 208.77 12.0128)"/>
</clipPath>
<clipPath id="clip21">
<rect width="2.19665" height="2.19665" fill="white" transform="matrix(1 -8.74228e-08 -8.74228e-08 -1 197.786 12.0128)"/>
</clipPath>
<clipPath id="clip22">
<rect width="2.19665" height="2.19665" fill="white" transform="matrix(1 -8.74228e-08 -8.74228e-08 -1 164.836 22.9961)"/>
</clipPath>
<clipPath id="clip23">
<rect width="2.19665" height="2.19665" fill="white" transform="matrix(1 -8.74228e-08 -8.74228e-08 -1 142.87 44.9626)"/>
</clipPath>
<clipPath id="clip24">
<rect width="2.19665" height="2.19665" fill="white" transform="matrix(1 -8.74228e-08 -8.74228e-08 -1 142.87 22.996)"/>
</clipPath>
<clipPath id="clip25">
<rect width="2.19665" height="2.19665" fill="white" transform="matrix(1 -8.74228e-08 -8.74228e-08 -1 131.887 44.9626)"/>
</clipPath>
<clipPath id="clip26">
<rect width="2.19665" height="2.19665" fill="white" transform="matrix(1 -8.74228e-08 -8.74228e-08 -1 131.887 22.996)"/>
</clipPath>
<clipPath id="clip27">
<rect width="2.19665" height="2.19665" fill="white" transform="matrix(1 -8.74228e-08 -8.74228e-08 -1 120.903 55.9458)"/>
</clipPath>
<clipPath id="clip28">
<rect width="2.19665" height="2.19665" fill="white" transform="matrix(1 -8.74228e-08 -8.74228e-08 -1 120.903 44.9626)"/>
</clipPath>
<clipPath id="clip29">
<rect width="2.19665" height="2.19665" fill="white" transform="matrix(1 -8.74228e-08 -8.74228e-08 -1 109.92 55.9458)"/>
</clipPath>
<clipPath id="clip30">
<rect width="2.19665" height="2.19665" fill="white" transform="matrix(1 -8.74228e-08 -8.74228e-08 -1 109.92 44.9626)"/>
</clipPath>
<clipPath id="clip31">
<rect width="2.19665" height="2.19665" fill="white" transform="matrix(1 -8.74228e-08 -8.74228e-08 -1 109.92 33.9793)"/>
</clipPath>
<clipPath id="clip32">
<rect width="2.19665" height="2.19665" fill="white" transform="matrix(1 -8.74228e-08 -8.74228e-08 -1 98.9367 44.9626)"/>
</clipPath>
<clipPath id="clip33">
<rect width="2.19665" height="2.19665" fill="white" transform="matrix(1 -8.74228e-08 -8.74228e-08 -1 98.9367 22.996)"/>
</clipPath>
<clipPath id="clip34">
<rect width="2.19665" height="2.19665" fill="white" transform="translate(90.1501 77.9124) rotate(180)"/>
</clipPath>
<clipPath id="clip35">
<rect width="2.19665" height="2.19665" fill="white" transform="translate(90.1501 66.9291) rotate(180)"/>
</clipPath>
<clipPath id="clip36">
<rect width="2.19665" height="2.19665" fill="white" transform="translate(90.1501 55.9458) rotate(180)"/>
</clipPath>
<clipPath id="clip37">
<rect width="2.19665" height="2.19665" fill="white" transform="translate(90.1501 44.9626) rotate(180)"/>
</clipPath>
<clipPath id="clip38">
<rect width="2.19665" height="2.19665" fill="white" transform="translate(79.1668 99.879) rotate(180)"/>
</clipPath>
<clipPath id="clip39">
<rect width="2.19665" height="2.19665" fill="white" transform="translate(79.1668 77.9125) rotate(180)"/>
</clipPath>
<clipPath id="clip40">
<rect width="2.19665" height="2.19665" fill="white" transform="translate(79.1668 66.9292) rotate(180)"/>
</clipPath>
<clipPath id="clip41">
<rect width="2.19665" height="2.19665" fill="white" transform="translate(79.1668 55.9459) rotate(180)"/>
</clipPath>
<clipPath id="clip42">
<rect width="2.19665" height="2.19665" fill="white" transform="translate(79.1668 44.9626) rotate(180)"/>
</clipPath>
<clipPath id="clip43">
<rect width="2.19665" height="2.19665" fill="white" transform="translate(79.1668 33.9794) rotate(180)"/>
</clipPath>
<clipPath id="clip44">
<rect width="2.19665" height="2.19665" fill="white" transform="translate(79.1668 22.9961) rotate(180)"/>
</clipPath>
<clipPath id="clip45">
<rect width="2.19665" height="2.19665" fill="white" transform="translate(68.1835 110.862) rotate(180)"/>
</clipPath>
<clipPath id="clip46">
<rect width="2.19665" height="2.19665" fill="white" transform="translate(68.1835 99.8789) rotate(180)"/>
</clipPath>
<clipPath id="clip47">
<rect width="2.19665" height="2.19665" fill="white" transform="translate(68.1835 88.8957) rotate(180)"/>
</clipPath>
<clipPath id="clip48">
<rect width="2.19665" height="2.19665" fill="white" transform="translate(68.1835 77.9124) rotate(180)"/>
</clipPath>
<clipPath id="clip49">
<rect width="2.19665" height="2.19665" fill="white" transform="translate(68.1835 44.9626) rotate(180)"/>
</clipPath>
<clipPath id="clip50">
<rect width="2.19665" height="2.19665" fill="white" transform="translate(68.1835 33.9793) rotate(180)"/>
</clipPath>
<clipPath id="clip51">
<rect width="2.19665" height="2.19665" fill="white" transform="translate(57.2003 99.879) rotate(180)"/>
</clipPath>
<clipPath id="clip52">
<rect width="2.19665" height="2.19665" fill="white" transform="translate(57.2003 77.9125) rotate(180)"/>
</clipPath>
<clipPath id="clip53">
<rect width="2.19665" height="2.19665" fill="white" transform="translate(57.2003 55.9459) rotate(180)"/>
</clipPath>
<clipPath id="clip54">
<rect width="2.19665" height="2.19665" fill="white" transform="translate(57.2003 44.9626) rotate(180)"/>
</clipPath>
<clipPath id="clip55">
<rect width="2.19665" height="2.19665" fill="white" transform="translate(57.2002 22.9961) rotate(180)"/>
</clipPath>
<clipPath id="clip56">
<rect width="2.19665" height="2.19665" fill="white" transform="translate(57.2002 12.0128) rotate(180)"/>
</clipPath>
<clipPath id="clip57">
<rect width="2.19665" height="2.19665" fill="white" transform="translate(46.217 110.862) rotate(180)"/>
</clipPath>
<clipPath id="clip58">
<rect width="2.19665" height="2.19665" fill="white" transform="translate(46.217 77.9124) rotate(180)"/>
</clipPath>
<clipPath id="clip59">
<rect width="2.19665" height="2.19665" fill="white" transform="translate(46.217 66.9291) rotate(180)"/>
</clipPath>
<clipPath id="clip60">
<rect width="2.19665" height="2.19665" fill="white" transform="translate(46.217 55.9459) rotate(180)"/>
</clipPath>
<clipPath id="clip61">
<rect width="2.19665" height="2.19665" fill="white" transform="translate(46.217 44.9626) rotate(180)"/>
</clipPath>
<clipPath id="clip62">
<rect width="2.19665" height="2.19665" fill="white" transform="translate(46.217 22.996) rotate(180)"/>
</clipPath>
<clipPath id="clip63">
<rect width="2.19665" height="2.19665" fill="white" transform="translate(46.217 12.0127) rotate(180)"/>
</clipPath>
<clipPath id="clip64">
<rect width="2.19665" height="2.19665" fill="white" transform="translate(35.2337 110.862) rotate(180)"/>
</clipPath>
<clipPath id="clip65">
<rect width="2.19665" height="2.19665" fill="white" transform="translate(35.2337 99.8789) rotate(180)"/>
</clipPath>
<clipPath id="clip66">
<rect width="2.19665" height="2.19665" fill="white" transform="translate(35.2337 88.8957) rotate(180)"/>
</clipPath>
<clipPath id="clip67">
<rect width="2.19665" height="2.19665" fill="white" transform="translate(35.2337 55.9459) rotate(180)"/>
</clipPath>
<clipPath id="clip68">
<rect width="2.19665" height="2.19665" fill="white" transform="translate(35.2337 44.9626) rotate(180)"/>
</clipPath>
<clipPath id="clip69">
<rect width="2.19665" height="2.19665" fill="white" transform="translate(35.2337 22.996) rotate(180)"/>
</clipPath>
<clipPath id="clip70">
<rect width="2.19665" height="2.19665" fill="white" transform="translate(35.2337 12.0127) rotate(180)"/>
</clipPath>
<clipPath id="clip71">
<rect width="2.19665" height="2.19665" fill="white" transform="translate(24.2504 99.879) rotate(180)"/>
</clipPath>
<clipPath id="clip72">
<rect width="2.19665" height="2.19665" fill="white" transform="translate(24.2504 88.8957) rotate(180)"/>
</clipPath>
<clipPath id="clip73">
<rect width="2.19665" height="2.19665" fill="white" transform="translate(24.2504 77.9125) rotate(180)"/>
</clipPath>
<clipPath id="clip74">
<rect width="2.19665" height="2.19665" fill="white" transform="translate(24.2504 66.9292) rotate(180)"/>
</clipPath>
<clipPath id="clip75">
<rect width="2.19665" height="2.19665" fill="white" transform="translate(24.2504 44.9626) rotate(180)"/>
</clipPath>
<clipPath id="clip76">
<rect width="2.19665" height="2.19665" fill="white" transform="translate(24.2504 33.9794) rotate(180)"/>
</clipPath>
<clipPath id="clip77">
<rect width="2.19665" height="2.19665" fill="white" transform="translate(13.2672 121.845) rotate(180)"/>
</clipPath>
<clipPath id="clip78">
<rect width="2.19665" height="2.19665" fill="white" transform="translate(13.2672 110.862) rotate(180)"/>
</clipPath>
<clipPath id="clip79">
<rect width="2.19665" height="2.19665" fill="white" transform="translate(13.2672 99.8789) rotate(180)"/>
</clipPath>
<clipPath id="clip80">
<rect width="2.19665" height="2.19665" fill="white" transform="translate(13.2672 88.8956) rotate(180)"/>
</clipPath>
<clipPath id="clip81">
<rect width="2.19665" height="2.19665" fill="white" transform="translate(13.2672 55.9458) rotate(180)"/>
</clipPath>
<clipPath id="clip82">
<rect width="2.19665" height="2.19665" fill="white" transform="translate(13.2672 44.9626) rotate(180)"/>
</clipPath>
<clipPath id="clip83">
<rect width="2.19665" height="2.19665" fill="white" transform="translate(13.2672 22.996) rotate(180)"/>
</clipPath>
<clipPath id="clip84">
<rect width="2.19665" height="2.19665" fill="white" transform="translate(13.2672 12.0127) rotate(180)"/>
</clipPath>
</defs>
</svg>
